<?xml version="1.0" encoding="us-ascii" standalone="no"?><svg xmlns="http://www.w3.org/2000/svg" xmlns:xlink="http://www.w3.org/1999/xlink" contentStyleType="text/css" height="314px" preserveAspectRatio="none" style="width:258px;height:314px;background:#FFFFFF;" version="1.1" viewBox="0 0 258 314" width="258px" zoomAndPan="magnify"><defs/><g><!--class Root--><g id="elem_Root"><rect codeLine="2" fill="#F1F1F1" height="64.4883" id="Root" rx="2.5" ry="2.5" style="stroke:#181818;stroke-width:0.5;" width="64" x="7" y="7"/><ellipse cx="22" cy="23" fill="#ADD1B2" rx="11" ry="11" style="stroke:#181818;stroke-width:1.0;"/><path d="M24.4731,29.1431 Q23.8921,29.4419 23.2529,29.5913 Q22.6138,29.7407 21.9082,29.7407 Q19.4014,29.7407 18.0815,28.0889 Q16.7617,26.437 16.7617,23.3159 Q16.7617,20.1865 18.0815,18.5347 Q19.4014,16.8828 21.9082,16.8828 Q22.6138,16.8828 23.2612,17.0322 Q23.9087,17.1816 24.4731,17.4805 L24.4731,20.2031 Q23.8423,19.6221 23.2488,19.3523 Q22.6553,19.0825 22.0244,19.0825 Q20.6797,19.0825 19.9949,20.1492 Q19.3101,21.2158 19.3101,23.3159 Q19.3101,25.4077 19.9949,26.4744 Q20.6797,27.541 22.0244,27.541 Q22.6553,27.541 23.2488,27.2712 Q23.8423,27.0015 24.4731,26.4204 Z " fill="#000000"/><text fill="#000000" font-family="sans-serif" font-size="14" lengthAdjust="spacing" textLength="32" x="36" y="28.291">Root</text><line style="stroke:#181818;stroke-width:0.5;" x1="8" x2="70" y1="39" y2="39"/><line style="stroke:#181818;stroke-width:0.5;" x1="8" x2="70" y1="47" y2="47"/><text fill="#000000" font-family="sans-serif" font-size="14" lengthAdjust="spacing" textLength="36" x="13" y="64.5352">pong</text></g><!--class A--><g id="elem_A"><rect codeLine="6" fill="#F1F1F1" height="64.4883" id="A" rx="2.5" ry="2.5" style="stroke:#181818;stroke-width:0.5;" width="48" x="115" y="7"/><ellipse cx="132.7" cy="23" fill="#ADD1B2" rx="11" ry="11" style="stroke:#181818;stroke-width:1.0;"/><path d="M135.1731,29.1431 Q134.5921,29.4419 133.9529,29.5913 Q133.3138,29.7407 132.6082,29.7407 Q130.1014,29.7407 128.7815,28.0889 Q127.4617,26.437 127.4617,23.3159 Q127.4617,20.1865 128.7815,18.5347 Q130.1014,16.8828 132.6082,16.8828 Q133.3138,16.8828 133.9612,17.0322 Q134.6087,17.1816 135.1731,17.4805 L135.1731,20.2031 Q134.5423,19.6221 133.9488,19.3523 Q133.3553,19.0825 132.7244,19.0825 Q131.3797,19.0825 130.6949,20.1492 Q130.0101,21.2158 130.0101,23.3159 Q130.0101,25.4077 130.6949,26.4744 Q131.3797,27.541 132.7244,27.541 Q133.3553,27.541 133.9488,27.2712 Q134.5423,27.0015 135.1731,26.4204 Z " fill="#000000"/><text fill="#000000" font-family="sans-serif" font-size="14" lengthAdjust="spacing" textLength="10" x="147.3" y="28.291">A</text><line style="stroke:#181818;stroke-width:0.5;" x1="116" x2="162" y1="39" y2="39"/><line style="stroke:#181818;stroke-width:0.5;" x1="116" x2="162" y1="47" y2="47"/><text fill="#000000" font-family="sans-serif" font-size="14" lengthAdjust="spacing" textLength="36" x="121" y="64.5352">pong</text></g><!--class B--><g id="elem_B"><rect codeLine="10" fill="#F1F1F1" height="64.4883" id="B" rx="2.5" ry="2.5" style="stroke:#181818;stroke-width:0.5;" width="48" x="12" y="139"/><ellipse cx="30.6" cy="155" fill="#ADD1B2" rx="11" ry="11" style="stroke:#181818;stroke-width:1.0;"/><path d="M33.0731,161.1431 Q32.4921,161.4419 31.8529,161.5913 Q31.2138,161.7407 30.5082,161.7407 Q28.0014,161.7407 26.6815,160.0889 Q25.3617,158.437 25.3617,155.3159 Q25.3617,152.1865 26.6815,150.5347 Q28.0014,148.8828 30.5082,148.8828 Q31.2138,148.8828 31.8612,149.0322 Q32.5087,149.1816 33.0731,149.4805 L33.0731,152.2031 Q32.4423,151.6221 31.8488,151.3523 Q31.2553,151.0825 30.6244,151.0825 Q29.2797,151.0825 28.5949,152.1492 Q27.9101,153.2158 27.9101,155.3159 Q27.9101,157.4077 28.5949,158.4744 Q29.2797,159.541 30.6244,159.541 Q31.2553,159.541 31.8488,159.2712 Q32.4423,159.0015 33.0731,158.4204 Z " fill="#000000"/><text fill="#000000" font-family="sans-serif" font-size="14" lengthAdjust="spacing" textLength="8" x="45.4" y="160.291">B</text><line style="stroke:#181818;stroke-width:0.5;" x1="13" x2="59" y1="171" y2="171"/><line style="stroke:#181818;stroke-width:0.5;" x1="13" x2="59" y1="179" y2="179"/><text fill="#000000" font-family="sans-serif" font-size="14" lengthAdjust="spacing" textLength="36" x="18" y="196.5352">pong</text></g><!--class Leaf--><g id="elem_Leaf"><rect codeLine="14" fill="#F1F1F1" height="48" id="Leaf" rx="2.5" ry="2.5" style="stroke:#181818;stroke-width:0.5;" width="60" x="111" y="147"/><ellipse cx="126" cy="163" fill="#ADD1B2" rx="11" ry="11" style="stroke:#181818;stroke-width:1.0;"/><path d="M128.4731,169.1431 Q127.8921,169.4419 127.2529,169.5913 Q126.6138,169.7407 125.9082,169.7407 Q123.4014,169.7407 122.0815,168.0889 Q120.7617,166.437 120.7617,163.3159 Q120.7617,160.1865 122.0815,158.5347 Q123.4014,156.8828 125.9082,156.8828 Q126.6138,156.8828 127.2612,157.0322 Q127.9087,157.1816 128.4731,157.4805 L128.4731,160.2031 Q127.8423,159.6221 127.2488,159.3523 Q126.6553,159.0825 126.0244,159.0825 Q124.6797,159.0825 123.9949,160.1492 Q123.3101,161.2158 123.3101,163.3159 Q123.3101,165.4077 123.9949,166.4744 Q124.6797,167.541 126.0244,167.541 Q126.6553,167.541 127.2488,167.2712 Q127.8423,167.0015 128.4731,166.4204 Z " fill="#000000"/><text fill="#000000" font-family="sans-serif" font-size="14" lengthAdjust="spacing" textLength="28" x="140" y="168.291">Leaf</text><line style="stroke:#181818;stroke-width:0.5;" x1="112" x2="170" y1="179" y2="179"/><line style="stroke:#181818;stroke-width:0.5;" x1="112" x2="170" y1="187" y2="187"/></g><g id="elem_GMN6"><path d="M31,267 L31,307.6211 A0,0 0 0 0 31,307.6211 L251,307.6211 A0,0 0 0 0 251,307.6211 L251,277 L241,267 L145,267 L141,198.85 L137,267 L31,267 A0,0 0 0 0 31,267 " fill="#FEFFDD" style="stroke:#181818;stroke-width:0.5;"/><path d="M241,267 L241,277 L251,277 L241,267 " fill="#FEFFDD" style="stroke:#181818;stroke-width:0.5;"/><text fill="#000000" font-family="sans-serif" font-size="13" lengthAdjust="spacing" textLength="195" x="37" y="284.5684">not implemented pong method</text><text fill="#000000" font-family="sans-serif" font-size="13" lengthAdjust="spacing" textLength="78" x="37" y="299.8789">in Leaf class</text></g><!--reverse link Root to A--><g id="link_Root_A"><path codeLine="18" d="M92.86,39 C97.59,39 102.33,39 107.06,39 " fill="none" id="Root-backto-A" style="stroke:#181818;stroke-width:1.0;"/><polygon fill="none" points="92.94,46,72.94,39,92.94,32,92.94,46" style="stroke:#181818;stroke-width:1.0;"/></g><!--reverse link Root to B--><g id="link_Root_B"><path codeLine="19" d="M37.78,92.81 C37.45,107.07 37.1,122.15 36.8,135.16 " fill="none" id="Root-backto-B" style="stroke:#181818;stroke-width:1.0;"/><polygon fill="none" points="30.78,92.82,38.24,72.98,44.78,93.14,30.78,92.82" style="stroke:#181818;stroke-width:1.0;"/></g><!--reverse link A to Leaf--><g id="link_A_Leaf"><path codeLine="21" d="M139.87,96.26 C140.12,112.61 140.38,129.71 140.59,143.32 " fill="none" id="A-backto-Leaf" style="stroke:#181818;stroke-width:1.0;"/><polygon fill="none" points="132.87,96.46,139.56,76.35,146.87,96.24,132.87,96.46" style="stroke:#181818;stroke-width:1.0;"/></g><!--reverse link A to Leaf--><g id="link_A_Leaf"><path codeLine="25" d="M170.4,59.74 C195.04,66.12 174.03,112.59 157.11,143.13 " fill="none" id="A-backto-Leaf-1" style="stroke:#FF0000;stroke-width:1.0;stroke-dasharray:7.0,7.0;"/><polygon fill="#FF0000" points="165.5,59.17,173.9827,64.1743,170.4671,59.7426,174.8989,56.227,165.5,59.17" style="stroke:#FF0000;stroke-width:1.0;"/></g><!--reverse link B to Leaf--><g id="link_B_Leaf"><path codeLine="22" d="M89.37,171 C93.94,171 98.5,171 103.07,171 " fill="none" id="B-backto-Leaf" style="stroke:#181818;stroke-width:1.0;"/><polygon fill="none" points="89.51,178,69.51,171,89.51,164,89.51,178" style="stroke:#181818;stroke-width:1.0;"/></g><!--link A to B--><g id="link_A_B"><path codeLine="24" d="M114,59 C84.61,59 91.38,173.09 67.08,189.13 " fill="none" id="A-to-B" style="stroke:#FF0000;stroke-width:1.0;stroke-dasharray:7.0,7.0;"/><polygon fill="#FF0000" points="62.45,190.56,72.2281,191.7384,67.2292,189.0906,69.877,184.0917,62.45,190.56" style="stroke:#FF0000;stroke-width:1.0;"/></g><!--SRC=[VOwn3i8m34HtVyL9pFG38eIKp4oim50Q0vMQkA9XAlrt4XVeLazdlxkJcwuU1Xn5qaZ8CmPE3_4JUebtceWQDTXLwbRfWUlRcDSeYN6Lb2GOv0Ljw3iE71DxZM3EunpRg2be0L5v3xlt5dQHZiYgA4PoYoHhZBPLfysJ_QNQmyqNAlm7Nt_wzTC7]--></g></svg>