<?xml version="1.0" encoding="us-ascii" standalone="no"?><svg xmlns="http://www.w3.org/2000/svg" xmlns:xlink="http://www.w3.org/1999/xlink" contentStyleType="text/css" height="278px" preserveAspectRatio="none" style="width:131px;height:278px;background:#FFFFFF;" version="1.1" viewBox="0 0 131 278" width="131px" zoomAndPan="magnify"><defs/><g><!--class C--><g id="elem_C"><rect codeLine="2" fill="#F1F1F1" height="48" id="C" rx="2.5" ry="2.5" style="stroke:#181818;stroke-width:0.5;" width="42" x="44" y="7"/><ellipse cx="59" cy="23" fill="#ADD1B2" rx="11" ry="11" style="stroke:#181818;stroke-width:1.0;"/><path d="M61.4731,29.1431 Q60.8921,29.4419 60.2529,29.5913 Q59.6138,29.7407 58.9082,29.7407 Q56.4014,29.7407 55.0815,28.0889 Q53.7617,26.437 53.7617,23.3159 Q53.7617,20.1865 55.0815,18.5347 Q56.4014,16.8828 58.9082,16.8828 Q59.6138,16.8828 60.2612,17.0322 Q60.9087,17.1816 61.4731,17.4805 L61.4731,20.2031 Q60.8423,19.6221 60.2488,19.3523 Q59.6553,19.0825 59.0244,19.0825 Q57.6797,19.0825 56.9949,20.1492 Q56.3101,21.2158 56.3101,23.3159 Q56.3101,25.4077 56.9949,26.4744 Q57.6797,27.541 59.0244,27.541 Q59.6553,27.541 60.2488,27.2712 Q60.8423,27.0015 61.4731,26.4204 Z " fill="#000000"/><text fill="#000000" font-family="sans-serif" font-size="14" lengthAdjust="spacing" textLength="10" x="73" y="28.291">C</text><line style="stroke:#181818;stroke-width:0.5;" x1="45" x2="85" y1="39" y2="39"/><line style="stroke:#181818;stroke-width:0.5;" x1="45" x2="85" y1="47" y2="47"/></g><!--class A--><g id="elem_A"><rect codeLine="5" fill="#F1F1F1" height="48" id="A" rx="2.5" ry="2.5" style="stroke:#181818;stroke-width:0.5;" width="42" x="82" y="115"/><ellipse cx="97" cy="131" fill="#ADD1B2" rx="11" ry="11" style="stroke:#181818;stroke-width:1.0;"/><path d="M99.4731,137.1431 Q98.8921,137.4419 98.2529,137.5913 Q97.6138,137.7407 96.9082,137.7407 Q94.4014,137.7407 93.0815,136.0889 Q91.7617,134.437 91.7617,131.3159 Q91.7617,128.1865 93.0815,126.5347 Q94.4014,124.8828 96.9082,124.8828 Q97.6138,124.8828 98.2612,125.0322 Q98.9087,125.1816 99.4731,125.4805 L99.4731,128.2031 Q98.8423,127.6221 98.2488,127.3523 Q97.6553,127.0825 97.0244,127.0825 Q95.6797,127.0825 94.9949,128.1492 Q94.3101,129.2158 94.3101,131.3159 Q94.3101,133.4077 94.9949,134.4744 Q95.6797,135.541 97.0244,135.541 Q97.6553,135.541 98.2488,135.2712 Q98.8423,135.0015 99.4731,134.4204 Z " fill="#000000"/><text fill="#000000" font-family="sans-serif" font-size="14" lengthAdjust="spacing" textLength="10" x="111" y="136.291">A</text><line style="stroke:#181818;stroke-width:0.5;" x1="83" x2="123" y1="147" y2="147"/><line style="stroke:#181818;stroke-width:0.5;" x1="83" x2="123" y1="155" y2="155"/></g><!--class B--><g id="elem_B"><rect codeLine="8" fill="#F1F1F1" height="48" id="B" rx="2.5" ry="2.5" style="stroke:#181818;stroke-width:0.5;" width="40" x="7" y="115"/><ellipse cx="22" cy="131" fill="#ADD1B2" rx="11" ry="11" style="stroke:#181818;stroke-width:1.0;"/><path d="M24.4731,137.1431 Q23.8921,137.4419 23.2529,137.5913 Q22.6138,137.7407 21.9082,137.7407 Q19.4014,137.7407 18.0815,136.0889 Q16.7617,134.437 16.7617,131.3159 Q16.7617,128.1865 18.0815,126.5347 Q19.4014,124.8828 21.9082,124.8828 Q22.6138,124.8828 23.2612,125.0322 Q23.9087,125.1816 24.4731,125.4805 L24.4731,128.2031 Q23.8423,127.6221 23.2488,127.3523 Q22.6553,127.0825 22.0244,127.0825 Q20.6797,127.0825 19.9949,128.1492 Q19.3101,129.2158 19.3101,131.3159 Q19.3101,133.4077 19.9949,134.4744 Q20.6797,135.541 22.0244,135.541 Q22.6553,135.541 23.2488,135.2712 Q23.8423,135.0015 24.4731,134.4204 Z " fill="#000000"/><text fill="#000000" font-family="sans-serif" font-size="14" lengthAdjust="spacing" textLength="8" x="36" y="136.291">B</text><line style="stroke:#181818;stroke-width:0.5;" x1="8" x2="46" y1="147" y2="147"/><line style="stroke:#181818;stroke-width:0.5;" x1="8" x2="46" y1="155" y2="155"/></g><!--class D--><g id="elem_D"><rect codeLine="11" fill="#F1F1F1" height="48" id="D" rx="2.5" ry="2.5" style="stroke:#181818;stroke-width:0.5;" width="42" x="44" y="223"/><ellipse cx="59" cy="239" fill="#ADD1B2" rx="11" ry="11" style="stroke:#181818;stroke-width:1.0;"/><path d="M61.4731,245.1431 Q60.8921,245.4419 60.2529,245.5913 Q59.6138,245.7407 58.9082,245.7407 Q56.4014,245.7407 55.0815,244.0889 Q53.7617,242.437 53.7617,239.3159 Q53.7617,236.1865 55.0815,234.5347 Q56.4014,232.8828 58.9082,232.8828 Q59.6138,232.8828 60.2612,233.0322 Q60.9087,233.1816 61.4731,233.4805 L61.4731,236.2031 Q60.8423,235.6221 60.2488,235.3523 Q59.6553,235.0825 59.0244,235.0825 Q57.6797,235.0825 56.9949,236.1492 Q56.3101,237.2158 56.3101,239.3159 Q56.3101,241.4077 56.9949,242.4744 Q57.6797,243.541 59.0244,243.541 Q59.6553,243.541 60.2488,243.2712 Q60.8423,243.0015 61.4731,242.4204 Z " fill="#000000"/><text fill="#000000" font-family="sans-serif" font-size="14" lengthAdjust="spacing" textLength="10" x="73" y="244.291">D</text><line style="stroke:#181818;stroke-width:0.5;" x1="45" x2="85" y1="255" y2="255"/><line style="stroke:#181818;stroke-width:0.5;" x1="45" x2="85" y1="263" y2="263"/></g><!--reverse link C to A--><g id="link_C_A"><path codeLine="14" d="M80.51,75.27 C85.36,88.8 90.53,103.2 94.68,114.79 " fill="none" id="C-backto-A" style="stroke:#181818;stroke-width:1.0;"/><polygon fill="none" points="74.01,77.88,73.85,56.69,87.19,73.15,74.01,77.88" style="stroke:#181818;stroke-width:1.0;"/></g><!--reverse link C to B--><g id="link_C_B"><path codeLine="15" d="M49.49,75.27 C44.64,88.8 39.47,103.2 35.32,114.79 " fill="none" id="C-backto-B" style="stroke:#181818;stroke-width:1.0;"/><polygon fill="none" points="42.81,73.15,56.15,56.69,55.99,77.88,42.81,73.15" style="stroke:#181818;stroke-width:1.0;"/></g><!--reverse link A to D--><g id="link_A_D"><path codeLine="16" d="M87.49,183.27 C82.64,196.8 77.47,211.2 73.32,222.79 " fill="none" id="A-backto-D" style="stroke:#181818;stroke-width:1.0;"/><polygon fill="none" points="80.81,181.15,94.15,164.69,93.99,185.88,80.81,181.15" style="stroke:#181818;stroke-width:1.0;"/></g><!--reverse link B to D--><g id="link_B_D"><path codeLine="17" d="M42.51,183.27 C47.36,196.8 52.53,211.2 56.68,222.79 " fill="none" id="B-backto-D" style="stroke:#181818;stroke-width:1.0;"/><polygon fill="none" points="36.01,185.88,35.85,164.69,49.19,181.15,36.01,185.88" style="stroke:#181818;stroke-width:1.0;"/></g><!--SRC=[Iyv9B2vMSAxcgkNYIWQp7P7OJaXi5p3RKK6tLBV6Ji6PomdESe6o7E4i9ou0]--></g></svg>