<?xml version="1.0" encoding="us-ascii" standalone="no"?><svg xmlns="http://www.w3.org/2000/svg" xmlns:xlink="http://www.w3.org/1999/xlink" contentStyleType="text/css" height="503px" preserveAspectRatio="none" style="width:427px;height:503px;background:#FFFFFF;" version="1.1" viewBox="0 0 427 503" width="427px" zoomAndPan="magnify"><defs/><g><!--class F--><g id="elem_F"><rect codeLine="2" fill="#F1F1F1" height="64.4883" id="F" rx="2.5" ry="2.5" style="stroke:#181818;stroke-width:0.5;" width="117" x="105.5" y="115"/><ellipse cx="155.75" cy="131" fill="#ADD1B2" rx="11" ry="11" style="stroke:#181818;stroke-width:1.0;"/><path d="M158.2231,137.1431 Q157.6421,137.4419 157.0029,137.5913 Q156.3638,137.7407 155.6582,137.7407 Q153.1514,137.7407 151.8315,136.0889 Q150.5117,134.437 150.5117,131.3159 Q150.5117,128.1865 151.8315,126.5347 Q153.1514,124.8828 155.6582,124.8828 Q156.3638,124.8828 157.0112,125.0322 Q157.6587,125.1816 158.2231,125.4805 L158.2231,128.2031 Q157.5923,127.6221 156.9988,127.3523 Q156.4053,127.0825 155.7744,127.0825 Q154.4297,127.0825 153.7449,128.1492 Q153.0601,129.2158 153.0601,131.3159 Q153.0601,133.4077 153.7449,134.4744 Q154.4297,135.541 155.7744,135.541 Q156.4053,135.541 156.9988,135.2712 Q157.5923,135.0015 158.2231,134.4204 Z " fill="#000000"/><text fill="#000000" font-family="sans-serif" font-size="14" lengthAdjust="spacing" textLength="8" x="176.25" y="136.291">F</text><line style="stroke:#181818;stroke-width:0.5;" x1="106.5" x2="221.5" y1="147" y2="147"/><line style="stroke:#181818;stroke-width:0.5;" x1="106.5" x2="221.5" y1="155" y2="155"/><text fill="#000000" font-family="sans-serif" font-size="14" lengthAdjust="spacing" textLength="105" x="111.5" y="172.5352">remember2buy</text></g><g id="elem_GMN3"><path d="M258,134.5 L258,143 L222.79,147 L258,151 L258,159.8105 A0,0 0 0 0 258,159.8105 L420,159.8105 A0,0 0 0 0 420,159.8105 L420,144.5 L410,134.5 L258,134.5 A0,0 0 0 0 258,134.5 " fill="#FEFFDD" style="stroke:#181818;stroke-width:0.5;"/><path d="M410,134.5 L410,144.5 L420,144.5 L410,134.5 " fill="#FEFFDD" style="stroke:#181818;stroke-width:0.5;"/><text fill="#000000" font-family="sans-serif" font-size="13" lengthAdjust="spacing" textLength="141" x="264" y="152.0684">method returns 'spam'</text></g><!--class E--><g id="elem_E"><rect codeLine="7" fill="#F1F1F1" height="64.4883" id="E" rx="2.5" ry="2.5" style="stroke:#181818;stroke-width:0.5;" width="117" x="49.5" y="239"/><ellipse cx="99.75" cy="255" fill="#ADD1B2" rx="11" ry="11" style="stroke:#181818;stroke-width:1.0;"/><path d="M102.2231,261.1431 Q101.6421,261.4419 101.0029,261.5913 Q100.3638,261.7407 99.6582,261.7407 Q97.1514,261.7407 95.8315,260.0889 Q94.5117,258.437 94.5117,255.3159 Q94.5117,252.1865 95.8315,250.5347 Q97.1514,248.8828 99.6582,248.8828 Q100.3638,248.8828 101.0112,249.0322 Q101.6587,249.1816 102.2231,249.4805 L102.2231,252.2031 Q101.5923,251.6221 100.9988,251.3523 Q100.4053,251.0825 99.7744,251.0825 Q98.4297,251.0825 97.7449,252.1492 Q97.0601,253.2158 97.0601,255.3159 Q97.0601,257.4077 97.7449,258.4744 Q98.4297,259.541 99.7744,259.541 Q100.4053,259.541 100.9988,259.2712 Q101.5923,259.0015 102.2231,258.4204 Z " fill="#000000"/><text fill="#000000" font-family="sans-serif" font-size="14" lengthAdjust="spacing" textLength="8" x="120.25" y="260.291">E</text><line style="stroke:#181818;stroke-width:0.5;" x1="50.5" x2="165.5" y1="271" y2="271"/><line style="stroke:#181818;stroke-width:0.5;" x1="50.5" x2="165.5" y1="279" y2="279"/><text fill="#000000" font-family="sans-serif" font-size="14" lengthAdjust="spacing" textLength="105" x="55.5" y="296.5352">remember2buy</text></g><g id="elem_GMN7"><path d="M6,374.5 L6,399.8105 A0,0 0 0 0 6,399.8105 L164,399.8105 A0,0 0 0 0 164,399.8105 L164,384.5 L154,374.5 L91.38,374.5 L101.65,303.45 L83.38,374.5 L6,374.5 A0,0 0 0 0 6,374.5 " fill="#FEFFDD" style="stroke:#181818;stroke-width:0.5;"/><path d="M154,374.5 L154,384.5 L164,384.5 L154,374.5 " fill="#FEFFDD" style="stroke:#181818;stroke-width:0.5;"/><text fill="#000000" font-family="sans-serif" font-size="13" lengthAdjust="spacing" textLength="137" x="12" y="392.0684">method returns 'eggs'</text></g><!--class G--><g id="elem_G"><rect codeLine="12" fill="#F1F1F1" height="48" id="G" rx="2.5" ry="2.5" style="stroke:#181818;stroke-width:0.5;" width="42" x="199" y="363"/><ellipse cx="214" cy="379" fill="#ADD1B2" rx="11" ry="11" style="stroke:#181818;stroke-width:1.0;"/><path d="M216.4731,385.1431 Q215.8921,385.4419 215.2529,385.5913 Q214.6138,385.7407 213.9082,385.7407 Q211.4014,385.7407 210.0815,384.0889 Q208.7617,382.437 208.7617,379.3159 Q208.7617,376.1865 210.0815,374.5347 Q211.4014,372.8828 213.9082,372.8828 Q214.6138,372.8828 215.2612,373.0322 Q215.9087,373.1816 216.4731,373.4805 L216.4731,376.2031 Q215.8423,375.6221 215.2488,375.3523 Q214.6553,375.0825 214.0244,375.0825 Q212.6797,375.0825 211.9949,376.1492 Q211.3101,377.2158 211.3101,379.3159 Q211.3101,381.4077 211.9949,382.4744 Q212.6797,383.541 214.0244,383.541 Q214.6553,383.541 215.2488,383.2712 Q215.8423,383.0015 216.4731,382.4204 Z " fill="#000000"/><text fill="#000000" font-family="sans-serif" font-size="14" lengthAdjust="spacing" textLength="10" x="228" y="384.291">G</text><line style="stroke:#181818;stroke-width:0.5;" x1="200" x2="240" y1="395" y2="395"/><line style="stroke:#181818;stroke-width:0.5;" x1="200" x2="240" y1="403" y2="403"/></g><g id="elem_GMN11"><path d="M63.5,471 L63.5,496.3105 A0,0 0 0 0 63.5,496.3105 L376.5,496.3105 A0,0 0 0 0 376.5,496.3105 L376.5,481 L366.5,471 L224,471 L220,411.36 L216,471 L63.5,471 A0,0 0 0 0 63.5,471 " fill="#FEFFDD" style="stroke:#181818;stroke-width:0.5;"/><path d="M366.5,471 L366.5,481 L376.5,481 L366.5,471 " fill="#FEFFDD" style="stroke:#181818;stroke-width:0.5;"/><text fill="#000000" font-family="sans-serif" font-size="13" lengthAdjust="spacing" textLength="292" x="69.5" y="488.5684">remember2buy is inheritted from class E or F ?</text></g><!--class O--><g id="elem_O"><rect fill="#F1F1F1" height="48" id="O" rx="2.5" ry="2.5" style="stroke:#181818;stroke-width:0.5;" width="43" x="142.5" y="7"/><ellipse cx="157.5" cy="23" fill="#ADD1B2" rx="11" ry="11" style="stroke:#181818;stroke-width:1.0;"/><path d="M159.9731,29.1431 Q159.3921,29.4419 158.7529,29.5913 Q158.1138,29.7407 157.4082,29.7407 Q154.9014,29.7407 153.5815,28.0889 Q152.2617,26.437 152.2617,23.3159 Q152.2617,20.1865 153.5815,18.5347 Q154.9014,16.8828 157.4082,16.8828 Q158.1138,16.8828 158.7612,17.0322 Q159.4087,17.1816 159.9731,17.4805 L159.9731,20.2031 Q159.3423,19.6221 158.7488,19.3523 Q158.1553,19.0825 157.5244,19.0825 Q156.1797,19.0825 155.4949,20.1492 Q154.8101,21.2158 154.8101,23.3159 Q154.8101,25.4077 155.4949,26.4744 Q156.1797,27.541 157.5244,27.541 Q158.1553,27.541 158.7488,27.2712 Q159.3423,27.0015 159.9731,26.4204 Z " fill="#000000"/><text fill="#000000" font-family="sans-serif" font-size="14" lengthAdjust="spacing" textLength="11" x="171.5" y="28.291">O</text><line style="stroke:#181818;stroke-width:0.5;" x1="143.5" x2="184.5" y1="39" y2="39"/><line style="stroke:#181818;stroke-width:0.5;" x1="143.5" x2="184.5" y1="47" y2="47"/></g><!--reverse link O to F--><g id="link_O_F"><path codeLine="16" d="M164,76.79 C164,89.54 164,103.15 164,114.9 " fill="none" id="O-backto-F" style="stroke:#181818;stroke-width:1.0;"/><polygon fill="none" points="157,76.86,164,56.86,171,76.86,157,76.86" style="stroke:#181818;stroke-width:1.0;"/></g><!--reverse link F to E--><g id="link_F_E"><path codeLine="17" d="M140.81,198.52 C134.56,212.13 127.98,226.46 122.37,238.69 " fill="none" id="F-backto-E" style="stroke:#181818;stroke-width:1.0;"/><polygon fill="none" points="134.24,196.05,148.95,180.79,146.97,201.89,134.24,196.05" style="stroke:#181818;stroke-width:1.0;"/></g><!--reverse link E to G--><g id="link_E_G"><path codeLine="18" d="M153.91,318.73 C169.46,334.55 186.08,351.47 198.77,364.39 " fill="none" id="E-backto-G" style="stroke:#181818;stroke-width:1.0;"/><polygon fill="none" points="148.98,323.7,139.96,304.53,158.97,313.89,148.98,323.7" style="stroke:#181818;stroke-width:1.0;"/></g><!--reverse link F to G--><g id="link_F_G"><path codeLine="19" d="M176.19,199.81 C188.11,250.45 205.7,325.23 214.53,362.75 " fill="none" id="F-backto-G" style="stroke:#181818;stroke-width:1.0;"/><polygon fill="none" points="169.43,201.66,171.67,180.59,183.06,198.45,169.43,201.66" style="stroke:#181818;stroke-width:1.0;"/></g><!--SRC=[ZOux3i8m40NxFSNhKgMXf83AJiaPybaSIpX6wtM1ajoT2Am8GSEhfXYDNdzhKuAT2Tlcm3h6OOLmuD2n7Bhye9Mcg0pnRjGZtifcQ9OfeKhtDbH4_QjZ_kXqKJM6tn0xb_PGCt_hdodu13-DB5wL1rmb1fG3Y0ABCv55dUlbX0kPGfQQGcOdIqy0]--></g></svg>