<?xml version="1.0" encoding="us-ascii" standalone="no"?><svg xmlns="http://www.w3.org/2000/svg" xmlns:xlink="http://www.w3.org/1999/xlink" contentStyleType="text/css" height="386px" preserveAspectRatio="none" style="width:206px;height:386px;background:#FFFFFF;" version="1.1" viewBox="0 0 206 386" width="206px" zoomAndPan="magnify"><defs/><g><!--class O--><g id="elem_O"><rect codeLine="4" fill="#F1F1F1" height="48" id="O" rx="2.5" ry="2.5" style="stroke:#181818;stroke-width:0.5;" width="43" x="81.5" y="7"/><ellipse cx="96.5" cy="23" fill="#ADD1B2" rx="11" ry="11" style="stroke:#181818;stroke-width:1.0;"/><path d="M98.9731,29.1431 Q98.3921,29.4419 97.7529,29.5913 Q97.1138,29.7407 96.4082,29.7407 Q93.9014,29.7407 92.5815,28.0889 Q91.2617,26.437 91.2617,23.3159 Q91.2617,20.1865 92.5815,18.5347 Q93.9014,16.8828 96.4082,16.8828 Q97.1138,16.8828 97.7612,17.0322 Q98.4087,17.1816 98.9731,17.4805 L98.9731,20.2031 Q98.3423,19.6221 97.7488,19.3523 Q97.1553,19.0825 96.5244,19.0825 Q95.1797,19.0825 94.4949,20.1492 Q93.8101,21.2158 93.8101,23.3159 Q93.8101,25.4077 94.4949,26.4744 Q95.1797,27.541 96.5244,27.541 Q97.1553,27.541 97.7488,27.2712 Q98.3423,27.0015 98.9731,26.4204 Z " fill="#000000"/><text fill="#000000" font-family="sans-serif" font-size="14" lengthAdjust="spacing" textLength="11" x="110.5" y="28.291">O</text><line style="stroke:#181818;stroke-width:0.5;" x1="82.5" x2="123.5" y1="39" y2="39"/><line style="stroke:#181818;stroke-width:0.5;" x1="82.5" x2="123.5" y1="47" y2="47"/></g><!--class F--><g id="elem_F"><rect codeLine="6" fill="#F1F1F1" height="48" id="F" rx="2.5" ry="2.5" style="stroke:#181818;stroke-width:0.5;" width="40" x="159" y="115"/><ellipse cx="174" cy="131" fill="#ADD1B2" rx="11" ry="11" style="stroke:#181818;stroke-width:1.0;"/><path d="M176.4731,137.1431 Q175.8921,137.4419 175.2529,137.5913 Q174.6138,137.7407 173.9082,137.7407 Q171.4014,137.7407 170.0815,136.0889 Q168.7617,134.437 168.7617,131.3159 Q168.7617,128.1865 170.0815,126.5347 Q171.4014,124.8828 173.9082,124.8828 Q174.6138,124.8828 175.2612,125.0322 Q175.9087,125.1816 176.4731,125.4805 L176.4731,128.2031 Q175.8423,127.6221 175.2488,127.3523 Q174.6553,127.0825 174.0244,127.0825 Q172.6797,127.0825 171.9949,128.1492 Q171.3101,129.2158 171.3101,131.3159 Q171.3101,133.4077 171.9949,134.4744 Q172.6797,135.541 174.0244,135.541 Q174.6553,135.541 175.2488,135.2712 Q175.8423,135.0015 176.4731,134.4204 Z " fill="#000000"/><text fill="#000000" font-family="sans-serif" font-size="14" lengthAdjust="spacing" textLength="8" x="188" y="136.291">F</text><line style="stroke:#181818;stroke-width:0.5;" x1="160" x2="198" y1="147" y2="147"/><line style="stroke:#181818;stroke-width:0.5;" x1="160" x2="198" y1="155" y2="155"/></g><!--class E--><g id="elem_E"><rect codeLine="7" fill="#F1F1F1" height="48" id="E" rx="2.5" ry="2.5" style="stroke:#181818;stroke-width:0.5;" width="40" x="7" y="115"/><ellipse cx="22" cy="131" fill="#ADD1B2" rx="11" ry="11" style="stroke:#181818;stroke-width:1.0;"/><path d="M24.4731,137.1431 Q23.8921,137.4419 23.2529,137.5913 Q22.6138,137.7407 21.9082,137.7407 Q19.4014,137.7407 18.0815,136.0889 Q16.7617,134.437 16.7617,131.3159 Q16.7617,128.1865 18.0815,126.5347 Q19.4014,124.8828 21.9082,124.8828 Q22.6138,124.8828 23.2612,125.0322 Q23.9087,125.1816 24.4731,125.4805 L24.4731,128.2031 Q23.8423,127.6221 23.2488,127.3523 Q22.6553,127.0825 22.0244,127.0825 Q20.6797,127.0825 19.9949,128.1492 Q19.3101,129.2158 19.3101,131.3159 Q19.3101,133.4077 19.9949,134.4744 Q20.6797,135.541 22.0244,135.541 Q22.6553,135.541 23.2488,135.2712 Q23.8423,135.0015 24.4731,134.4204 Z " fill="#000000"/><text fill="#000000" font-family="sans-serif" font-size="14" lengthAdjust="spacing" textLength="8" x="36" y="136.291">E</text><line style="stroke:#181818;stroke-width:0.5;" x1="8" x2="46" y1="147" y2="147"/><line style="stroke:#181818;stroke-width:0.5;" x1="8" x2="46" y1="155" y2="155"/></g><!--class D--><g id="elem_D"><rect codeLine="8" fill="#F1F1F1" height="48" id="D" rx="2.5" ry="2.5" style="stroke:#181818;stroke-width:0.5;" width="42" x="82" y="115"/><ellipse cx="97" cy="131" fill="#ADD1B2" rx="11" ry="11" style="stroke:#181818;stroke-width:1.0;"/><path d="M99.4731,137.1431 Q98.8921,137.4419 98.2529,137.5913 Q97.6138,137.7407 96.9082,137.7407 Q94.4014,137.7407 93.0815,136.0889 Q91.7617,134.437 91.7617,131.3159 Q91.7617,128.1865 93.0815,126.5347 Q94.4014,124.8828 96.9082,124.8828 Q97.6138,124.8828 98.2612,125.0322 Q98.9087,125.1816 99.4731,125.4805 L99.4731,128.2031 Q98.8423,127.6221 98.2488,127.3523 Q97.6553,127.0825 97.0244,127.0825 Q95.6797,127.0825 94.9949,128.1492 Q94.3101,129.2158 94.3101,131.3159 Q94.3101,133.4077 94.9949,134.4744 Q95.6797,135.541 97.0244,135.541 Q97.6553,135.541 98.2488,135.2712 Q98.8423,135.0015 99.4731,134.4204 Z " fill="#000000"/><text fill="#000000" font-family="sans-serif" font-size="14" lengthAdjust="spacing" textLength="10" x="111" y="136.291">D</text><line style="stroke:#181818;stroke-width:0.5;" x1="83" x2="123" y1="147" y2="147"/><line style="stroke:#181818;stroke-width:0.5;" x1="83" x2="123" y1="155" y2="155"/></g><!--class C--><g id="elem_C"><rect codeLine="14" fill="#F1F1F1" height="48" id="C" rx="2.5" ry="2.5" style="stroke:#181818;stroke-width:0.5;" width="42" x="120" y="223"/><ellipse cx="135" cy="239" fill="#ADD1B2" rx="11" ry="11" style="stroke:#181818;stroke-width:1.0;"/><path d="M137.4731,245.1431 Q136.8921,245.4419 136.2529,245.5913 Q135.6138,245.7407 134.9082,245.7407 Q132.4014,245.7407 131.0815,244.0889 Q129.7617,242.437 129.7617,239.3159 Q129.7617,236.1865 131.0815,234.5347 Q132.4014,232.8828 134.9082,232.8828 Q135.6138,232.8828 136.2612,233.0322 Q136.9087,233.1816 137.4731,233.4805 L137.4731,236.2031 Q136.8423,235.6221 136.2488,235.3523 Q135.6553,235.0825 135.0244,235.0825 Q133.6797,235.0825 132.9949,236.1492 Q132.3101,237.2158 132.3101,239.3159 Q132.3101,241.4077 132.9949,242.4744 Q133.6797,243.541 135.0244,243.541 Q135.6553,243.541 136.2488,243.2712 Q136.8423,243.0015 137.4731,242.4204 Z " fill="#000000"/><text fill="#000000" font-family="sans-serif" font-size="14" lengthAdjust="spacing" textLength="10" x="149" y="244.291">C</text><line style="stroke:#181818;stroke-width:0.5;" x1="121" x2="161" y1="255" y2="255"/><line style="stroke:#181818;stroke-width:0.5;" x1="121" x2="161" y1="263" y2="263"/></g><!--class B--><g id="elem_B"><rect codeLine="15" fill="#F1F1F1" height="48" id="B" rx="2.5" ry="2.5" style="stroke:#181818;stroke-width:0.5;" width="40" x="45" y="223"/><ellipse cx="60" cy="239" fill="#ADD1B2" rx="11" ry="11" style="stroke:#181818;stroke-width:1.0;"/><path d="M62.4731,245.1431 Q61.8921,245.4419 61.2529,245.5913 Q60.6138,245.7407 59.9082,245.7407 Q57.4014,245.7407 56.0815,244.0889 Q54.7617,242.437 54.7617,239.3159 Q54.7617,236.1865 56.0815,234.5347 Q57.4014,232.8828 59.9082,232.8828 Q60.6138,232.8828 61.2612,233.0322 Q61.9087,233.1816 62.4731,233.4805 L62.4731,236.2031 Q61.8423,235.6221 61.2488,235.3523 Q60.6553,235.0825 60.0244,235.0825 Q58.6797,235.0825 57.9949,236.1492 Q57.3101,237.2158 57.3101,239.3159 Q57.3101,241.4077 57.9949,242.4744 Q58.6797,243.541 60.0244,243.541 Q60.6553,243.541 61.2488,243.2712 Q61.8423,243.0015 62.4731,242.4204 Z " fill="#000000"/><text fill="#000000" font-family="sans-serif" font-size="14" lengthAdjust="spacing" textLength="8" x="74" y="244.291">B</text><line style="stroke:#181818;stroke-width:0.5;" x1="46" x2="84" y1="255" y2="255"/><line style="stroke:#181818;stroke-width:0.5;" x1="46" x2="84" y1="263" y2="263"/></g><!--class A--><g id="elem_A"><rect codeLine="23" fill="#F1F1F1" height="48" id="A" rx="2.5" ry="2.5" style="stroke:#181818;stroke-width:0.5;" width="42" x="82" y="331"/><ellipse cx="97" cy="347" fill="#ADD1B2" rx="11" ry="11" style="stroke:#181818;stroke-width:1.0;"/><path d="M99.4731,353.1431 Q98.8921,353.4419 98.2529,353.5913 Q97.6138,353.7407 96.9082,353.7407 Q94.4014,353.7407 93.0815,352.0889 Q91.7617,350.437 91.7617,347.3159 Q91.7617,344.1865 93.0815,342.5347 Q94.4014,340.8828 96.9082,340.8828 Q97.6138,340.8828 98.2612,341.0322 Q98.9087,341.1816 99.4731,341.4805 L99.4731,344.2031 Q98.8423,343.6221 98.2488,343.3523 Q97.6553,343.0825 97.0244,343.0825 Q95.6797,343.0825 94.9949,344.1492 Q94.3101,345.2158 94.3101,347.3159 Q94.3101,349.4077 94.9949,350.4744 Q95.6797,351.541 97.0244,351.541 Q97.6553,351.541 98.2488,351.2712 Q98.8423,351.0015 99.4731,350.4204 Z " fill="#000000"/><text fill="#000000" font-family="sans-serif" font-size="14" lengthAdjust="spacing" textLength="10" x="111" y="352.291">A</text><line style="stroke:#181818;stroke-width:0.5;" x1="83" x2="123" y1="363" y2="363"/><line style="stroke:#181818;stroke-width:0.5;" x1="83" x2="123" y1="371" y2="371"/></g><!--reverse link O to F--><g id="link_O_F"><path codeLine="10" d="M131.96,72.39 C142.24,86.73 153.46,102.37 162.36,114.79 " fill="none" id="O-backto-F" style="stroke:#181818;stroke-width:1.0;"/><polygon fill="none" points="126.53,76.82,120.56,56.49,137.9,68.67,126.53,76.82" style="stroke:#181818;stroke-width:1.0;"/></g><!--reverse link O to E--><g id="link_O_E"><path codeLine="11" d="M74.04,72.39 C63.76,86.73 52.54,102.37 43.64,114.79 " fill="none" id="O-backto-E" style="stroke:#181818;stroke-width:1.0;"/><polygon fill="none" points="68.1,68.67,85.44,56.49,79.47,76.82,68.1,68.67" style="stroke:#181818;stroke-width:1.0;"/></g><!--reverse link O to D--><g id="link_O_D"><path codeLine="12" d="M103,76.72 C103,89.82 103,103.62 103,114.79 " fill="none" id="O-backto-D" style="stroke:#181818;stroke-width:1.0;"/><polygon fill="none" points="96,76.78,103,56.78,110,76.78,96,76.78" style="stroke:#181818;stroke-width:1.0;"/></g><!--reverse link D to C--><g id="link_D_C"><path codeLine="17" d="M118.51,183.27 C123.36,196.8 128.53,211.2 132.68,222.79 " fill="none" id="D-backto-C" style="stroke:#181818;stroke-width:1.0;"/><polygon fill="none" points="112.01,185.88,111.85,164.69,125.19,181.15,112.01,185.88" style="stroke:#181818;stroke-width:1.0;"/></g><!--reverse link F to C--><g id="link_F_C"><path codeLine="18" d="M163.49,183.27 C158.64,196.8 153.47,211.2 149.32,222.79 " fill="none" id="F-backto-C" style="stroke:#181818;stroke-width:1.0;"/><polygon fill="none" points="156.81,181.15,170.15,164.69,169.99,185.88,156.81,181.15" style="stroke:#181818;stroke-width:1.0;"/></g><!--reverse link D to B--><g id="link_D_B"><path codeLine="20" d="M87.49,183.27 C82.64,196.8 77.47,211.2 73.32,222.79 " fill="none" id="D-backto-B" style="stroke:#181818;stroke-width:1.0;"/><polygon fill="none" points="80.81,181.15,94.15,164.69,93.99,185.88,80.81,181.15" style="stroke:#181818;stroke-width:1.0;"/></g><!--reverse link E to B--><g id="link_E_B"><path codeLine="21" d="M42.51,183.27 C47.36,196.8 52.53,211.2 56.68,222.79 " fill="none" id="E-backto-B" style="stroke:#181818;stroke-width:1.0;"/><polygon fill="none" points="36.01,185.88,35.85,164.69,49.19,181.15,36.01,185.88" style="stroke:#181818;stroke-width:1.0;"/></g><!--reverse link B to A--><g id="link_B_A"><path codeLine="25" d="M80.51,291.27 C85.36,304.8 90.53,319.2 94.68,330.79 " fill="none" id="B-backto-A" style="stroke:#181818;stroke-width:1.0;"/><polygon fill="none" points="74.01,293.88,73.85,272.69,87.19,289.15,74.01,293.88" style="stroke:#181818;stroke-width:1.0;"/></g><!--reverse link C to A--><g id="link_C_A"><path codeLine="26" d="M125.49,291.27 C120.64,304.8 115.47,319.2 111.32,330.79 " fill="none" id="C-backto-A" style="stroke:#181818;stroke-width:1.0;"/><polygon fill="none" points="118.81,289.15,132.15,272.69,131.99,293.88,118.81,289.15" style="stroke:#181818;stroke-width:1.0;"/></g><!--SRC=[FSkx3O0m34NHtbDu0LP0ohVD310e8W56n5J0xX2Hk3jwzcNQaGb7OgOLftJCaHDj074PSiPmFOt-uoydikNiiJkxkyS0JcH5zTD8eqjZwjsAF82MiScrN9L8rLMB3Bm0]--></g></svg>