<?xml version="1.0" encoding="us-ascii" standalone="no"?><svg xmlns="http://www.w3.org/2000/svg" xmlns:xlink="http://www.w3.org/1999/xlink" contentStyleType="text/css" height="386px" preserveAspectRatio="none" style="width:131px;height:386px;background:#FFFFFF;" version="1.1" viewBox="0 0 131 386" width="131px" zoomAndPan="magnify"><defs/><g><!--class O--><g id="elem_O"><rect codeLine="4" fill="#F1F1F1" height="48" id="O" rx="2.5" ry="2.5" style="stroke:#181818;stroke-width:0.5;" width="43" x="44" y="7"/><ellipse cx="59" cy="23" fill="#ADD1B2" rx="11" ry="11" style="stroke:#181818;stroke-width:1.0;"/><path d="M61.4731,29.1431 Q60.8921,29.4419 60.2529,29.5913 Q59.6138,29.7407 58.9082,29.7407 Q56.4014,29.7407 55.0815,28.0889 Q53.7617,26.437 53.7617,23.3159 Q53.7617,20.1865 55.0815,18.5347 Q56.4014,16.8828 58.9082,16.8828 Q59.6138,16.8828 60.2612,17.0322 Q60.9087,17.1816 61.4731,17.4805 L61.4731,20.2031 Q60.8423,19.6221 60.2488,19.3523 Q59.6553,19.0825 59.0244,19.0825 Q57.6797,19.0825 56.9949,20.1492 Q56.3101,21.2158 56.3101,23.3159 Q56.3101,25.4077 56.9949,26.4744 Q57.6797,27.541 59.0244,27.541 Q59.6553,27.541 60.2488,27.2712 Q60.8423,27.0015 61.4731,26.4204 Z " fill="#000000"/><text fill="#000000" font-family="sans-serif" font-size="14" lengthAdjust="spacing" textLength="11" x="73" y="28.291">O</text><line style="stroke:#181818;stroke-width:0.5;" x1="45" x2="86" y1="39" y2="39"/><line style="stroke:#181818;stroke-width:0.5;" x1="45" x2="86" y1="47" y2="47"/></g><!--class X--><g id="elem_X"><rect codeLine="6" fill="#F1F1F1" height="48" id="X" rx="2.5" ry="2.5" style="stroke:#181818;stroke-width:0.5;" width="41" x="83" y="115"/><ellipse cx="98" cy="131" fill="#ADD1B2" rx="11" ry="11" style="stroke:#181818;stroke-width:1.0;"/><path d="M100.4731,137.1431 Q99.8921,137.4419 99.2529,137.5913 Q98.6138,137.7407 97.9082,137.7407 Q95.4014,137.7407 94.0815,136.0889 Q92.7617,134.437 92.7617,131.3159 Q92.7617,128.1865 94.0815,126.5347 Q95.4014,124.8828 97.9082,124.8828 Q98.6138,124.8828 99.2612,125.0322 Q99.9087,125.1816 100.4731,125.4805 L100.4731,128.2031 Q99.8423,127.6221 99.2488,127.3523 Q98.6553,127.0825 98.0244,127.0825 Q96.6797,127.0825 95.9949,128.1492 Q95.3101,129.2158 95.3101,131.3159 Q95.3101,133.4077 95.9949,134.4744 Q96.6797,135.541 98.0244,135.541 Q98.6553,135.541 99.2488,135.2712 Q99.8423,135.0015 100.4731,134.4204 Z " fill="#000000"/><text fill="#000000" font-family="sans-serif" font-size="14" lengthAdjust="spacing" textLength="9" x="112" y="136.291">X</text><line style="stroke:#181818;stroke-width:0.5;" x1="84" x2="123" y1="147" y2="147"/><line style="stroke:#181818;stroke-width:0.5;" x1="84" x2="123" y1="155" y2="155"/></g><!--class Y--><g id="elem_Y"><rect codeLine="7" fill="#F1F1F1" height="48" id="Y" rx="2.5" ry="2.5" style="stroke:#181818;stroke-width:0.5;" width="41" x="7" y="115"/><ellipse cx="22" cy="131" fill="#ADD1B2" rx="11" ry="11" style="stroke:#181818;stroke-width:1.0;"/><path d="M24.4731,137.1431 Q23.8921,137.4419 23.2529,137.5913 Q22.6138,137.7407 21.9082,137.7407 Q19.4014,137.7407 18.0815,136.0889 Q16.7617,134.437 16.7617,131.3159 Q16.7617,128.1865 18.0815,126.5347 Q19.4014,124.8828 21.9082,124.8828 Q22.6138,124.8828 23.2612,125.0322 Q23.9087,125.1816 24.4731,125.4805 L24.4731,128.2031 Q23.8423,127.6221 23.2488,127.3523 Q22.6553,127.0825 22.0244,127.0825 Q20.6797,127.0825 19.9949,128.1492 Q19.3101,129.2158 19.3101,131.3159 Q19.3101,133.4077 19.9949,134.4744 Q20.6797,135.541 22.0244,135.541 Q22.6553,135.541 23.2488,135.2712 Q23.8423,135.0015 24.4731,134.4204 Z " fill="#000000"/><text fill="#000000" font-family="sans-serif" font-size="14" lengthAdjust="spacing" textLength="9" x="36" y="136.291">Y</text><line style="stroke:#181818;stroke-width:0.5;" x1="8" x2="47" y1="147" y2="147"/><line style="stroke:#181818;stroke-width:0.5;" x1="8" x2="47" y1="155" y2="155"/></g><!--class A--><g id="elem_A"><rect codeLine="9" fill="#F1F1F1" height="48" id="A" rx="2.5" ry="2.5" style="stroke:#181818;stroke-width:0.5;" width="42" x="82.5" y="223"/><ellipse cx="97.5" cy="239" fill="#ADD1B2" rx="11" ry="11" style="stroke:#181818;stroke-width:1.0;"/><path d="M99.9731,245.1431 Q99.3921,245.4419 98.7529,245.5913 Q98.1138,245.7407 97.4082,245.7407 Q94.9014,245.7407 93.5815,244.0889 Q92.2617,242.437 92.2617,239.3159 Q92.2617,236.1865 93.5815,234.5347 Q94.9014,232.8828 97.4082,232.8828 Q98.1138,232.8828 98.7612,233.0322 Q99.4087,233.1816 99.9731,233.4805 L99.9731,236.2031 Q99.3423,235.6221 98.7488,235.3523 Q98.1553,235.0825 97.5244,235.0825 Q96.1797,235.0825 95.4949,236.1492 Q94.8101,237.2158 94.8101,239.3159 Q94.8101,241.4077 95.4949,242.4744 Q96.1797,243.541 97.5244,243.541 Q98.1553,243.541 98.7488,243.2712 Q99.3423,243.0015 99.9731,242.4204 Z " fill="#000000"/><text fill="#000000" font-family="sans-serif" font-size="14" lengthAdjust="spacing" textLength="10" x="111.5" y="244.291">A</text><line style="stroke:#181818;stroke-width:0.5;" x1="83.5" x2="123.5" y1="255" y2="255"/><line style="stroke:#181818;stroke-width:0.5;" x1="83.5" x2="123.5" y1="263" y2="263"/></g><!--class B--><g id="elem_B"><rect codeLine="10" fill="#F1F1F1" height="48" id="B" rx="2.5" ry="2.5" style="stroke:#181818;stroke-width:0.5;" width="40" x="7.5" y="223"/><ellipse cx="22.5" cy="239" fill="#ADD1B2" rx="11" ry="11" style="stroke:#181818;stroke-width:1.0;"/><path d="M24.9731,245.1431 Q24.3921,245.4419 23.7529,245.5913 Q23.1138,245.7407 22.4082,245.7407 Q19.9014,245.7407 18.5815,244.0889 Q17.2617,242.437 17.2617,239.3159 Q17.2617,236.1865 18.5815,234.5347 Q19.9014,232.8828 22.4082,232.8828 Q23.1138,232.8828 23.7612,233.0322 Q24.4087,233.1816 24.9731,233.4805 L24.9731,236.2031 Q24.3423,235.6221 23.7488,235.3523 Q23.1553,235.0825 22.5244,235.0825 Q21.1797,235.0825 20.4949,236.1492 Q19.8101,237.2158 19.8101,239.3159 Q19.8101,241.4077 20.4949,242.4744 Q21.1797,243.541 22.5244,243.541 Q23.1553,243.541 23.7488,243.2712 Q24.3423,243.0015 24.9731,242.4204 Z " fill="#000000"/><text fill="#000000" font-family="sans-serif" font-size="14" lengthAdjust="spacing" textLength="8" x="36.5" y="244.291">B</text><line style="stroke:#181818;stroke-width:0.5;" x1="8.5" x2="46.5" y1="255" y2="255"/><line style="stroke:#181818;stroke-width:0.5;" x1="8.5" x2="46.5" y1="263" y2="263"/></g><!--class C--><g id="elem_C"><rect codeLine="12" fill="#F1F1F1" height="48" id="C" rx="2.5" ry="2.5" style="stroke:#181818;stroke-width:0.5;" width="42" x="44.5" y="331"/><ellipse cx="59.5" cy="347" fill="#ADD1B2" rx="11" ry="11" style="stroke:#181818;stroke-width:1.0;"/><path d="M61.9731,353.1431 Q61.3921,353.4419 60.7529,353.5913 Q60.1138,353.7407 59.4082,353.7407 Q56.9014,353.7407 55.5815,352.0889 Q54.2617,350.437 54.2617,347.3159 Q54.2617,344.1865 55.5815,342.5347 Q56.9014,340.8828 59.4082,340.8828 Q60.1138,340.8828 60.7612,341.0322 Q61.4087,341.1816 61.9731,341.4805 L61.9731,344.2031 Q61.3423,343.6221 60.7488,343.3523 Q60.1553,343.0825 59.5244,343.0825 Q58.1797,343.0825 57.4949,344.1492 Q56.8101,345.2158 56.8101,347.3159 Q56.8101,349.4077 57.4949,350.4744 Q58.1797,351.541 59.5244,351.541 Q60.1553,351.541 60.7488,351.2712 Q61.3423,351.0015 61.9731,350.4204 Z " fill="#000000"/><text fill="#000000" font-family="sans-serif" font-size="14" lengthAdjust="spacing" textLength="10" x="73.5" y="352.291">C</text><line style="stroke:#181818;stroke-width:0.5;" x1="45.5" x2="85.5" y1="363" y2="363"/><line style="stroke:#181818;stroke-width:0.5;" x1="45.5" x2="85.5" y1="371" y2="371"/></g><!--reverse link O to X--><g id="link_O_X"><path codeLine="14" d="M81.01,75.27 C85.86,88.8 91.03,103.2 95.18,114.79 " fill="none" id="O-backto-X" style="stroke:#181818;stroke-width:1.0;"/><polygon fill="none" points="74.51,77.88,74.35,56.69,87.69,73.15,74.51,77.88" style="stroke:#181818;stroke-width:1.0;"/></g><!--reverse link O to Y--><g id="link_O_Y"><path codeLine="15" d="M49.99,75.27 C45.14,88.8 39.97,103.2 35.82,114.79 " fill="none" id="O-backto-Y" style="stroke:#181818;stroke-width:1.0;"/><polygon fill="none" points="43.31,73.15,56.65,56.69,56.49,77.88,43.31,73.15" style="stroke:#181818;stroke-width:1.0;"/></g><!--reverse link X to A--><g id="link_X_A"><path codeLine="17" d="M103.5,184.72 C103.5,197.82 103.5,211.62 103.5,222.79 " fill="none" id="X-backto-A" style="stroke:#181818;stroke-width:1.0;"/><polygon fill="none" points="96.5,184.78,103.5,164.78,110.5,184.78,96.5,184.78" style="stroke:#181818;stroke-width:1.0;"/></g><!--reverse link X to B--><g id="link_X_B"><path codeLine="18" d="M74.54,180.39 C64.26,194.73 53.04,210.37 44.14,222.79 " fill="none" id="X-backto-B" style="stroke:#181818;stroke-width:1.0;"/><polygon fill="none" points="68.6,176.67,85.94,164.49,79.97,184.82,68.6,176.67" style="stroke:#181818;stroke-width:1.0;"/></g><!--reverse link Y to A--><g id="link_Y_A"><path codeLine="20" d="M56.46,180.39 C66.74,194.73 77.96,210.37 86.86,222.79 " fill="none" id="Y-backto-A" style="stroke:#181818;stroke-width:1.0;"/><polygon fill="none" points="51.03,184.82,45.06,164.49,62.4,176.67,51.03,184.82" style="stroke:#181818;stroke-width:1.0;"/></g><!--reverse link Y to B--><g id="link_Y_B"><path codeLine="21" d="M27.5,184.72 C27.5,197.82 27.5,211.62 27.5,222.79 " fill="none" id="Y-backto-B" style="stroke:#181818;stroke-width:1.0;"/><polygon fill="none" points="20.5,184.78,27.5,164.78,34.5,184.78,20.5,184.78" style="stroke:#181818;stroke-width:1.0;"/></g><!--reverse link A to C--><g id="link_A_C"><path codeLine="23" d="M87.99,291.27 C83.14,304.8 77.97,319.2 73.82,330.79 " fill="none" id="A-backto-C" style="stroke:#181818;stroke-width:1.0;"/><polygon fill="none" points="81.31,289.15,94.65,272.69,94.49,293.88,81.31,289.15" style="stroke:#181818;stroke-width:1.0;"/></g><!--reverse link B to C--><g id="link_B_C"><path codeLine="24" d="M43.01,291.27 C47.86,304.8 53.03,319.2 57.18,330.79 " fill="none" id="B-backto-C" style="stroke:#181818;stroke-width:1.0;"/><polygon fill="none" points="36.51,293.88,36.35,272.69,49.69,289.15,36.51,293.88" style="stroke:#181818;stroke-width:1.0;"/></g><!--SRC=[HSWn3e0W3030lQ_e1_Y22V00LZegEfYeDL8dzUzgnB9TJdX5OUnOX6Vinsr8Cl82aAOsPmp7zJC-_4GrhQQhwLz6DBiv6mn0Ah254PnAapG9m1TQbOCR]--></g></svg>