<?xml version="1.0" encoding="us-ascii" standalone="no"?><svg xmlns="http://www.w3.org/2000/svg" xmlns:xlink="http://www.w3.org/1999/xlink" contentStyleType="text/css" height="388px" preserveAspectRatio="none" style="width:515px;height:388px;background:#FFFFFF;" version="1.1" viewBox="0 0 515 388" width="515px" zoomAndPan="magnify"><defs/><g><!--class Order--><g id="elem_Order"><rect codeLine="2" fill="#F1F1F1" height="80.9766" id="Order" rx="2.5" ry="2.5" style="stroke:#181818;stroke-width:0.5;" width="72" x="336.5" y="91"/><ellipse cx="351.5" cy="107" fill="#ADD1B2" rx="11" ry="11" style="stroke:#181818;stroke-width:1.0;"/><path d="M353.9731,113.1431 Q353.3921,113.4419 352.7529,113.5913 Q352.1138,113.7407 351.4082,113.7407 Q348.9014,113.7407 347.5815,112.0889 Q346.2617,110.437 346.2617,107.3159 Q346.2617,104.1865 347.5815,102.5347 Q348.9014,100.8828 351.4082,100.8828 Q352.1138,100.8828 352.7612,101.0322 Q353.4087,101.1816 353.9731,101.4805 L353.9731,104.2031 Q353.3423,103.6221 352.7488,103.3523 Q352.1553,103.0825 351.5244,103.0825 Q350.1797,103.0825 349.4949,104.1492 Q348.8101,105.2158 348.8101,107.3159 Q348.8101,109.4077 349.4949,110.4744 Q350.1797,111.541 351.5244,111.541 Q352.1553,111.541 352.7488,111.2712 Q353.3423,111.0015 353.9731,110.4204 Z " fill="#000000"/><text fill="#000000" font-family="sans-serif" font-size="14" lengthAdjust="spacing" textLength="40" x="365.5" y="112.291">Order</text><line style="stroke:#181818;stroke-width:0.5;" x1="337.5" x2="407.5" y1="123" y2="123"/><line style="stroke:#181818;stroke-width:0.5;" x1="337.5" x2="407.5" y1="131" y2="131"/><text fill="#000000" font-family="sans-serif" font-size="14" lengthAdjust="spacing" textLength="41" x="342.5" y="148.5352">total()</text><text fill="#000000" font-family="sans-serif" font-size="14" lengthAdjust="spacing" textLength="36" x="342.5" y="165.0234">due()</text></g><!--class Promotion--><g id="elem_Promotion"><rect codeLine="7" fill="#F1F1F1" height="64.4883" id="Promotion" rx="2.5" ry="2.5" style="stroke:#181818;stroke-width:0.5;" width="104" x="197.5" y="99.5"/><ellipse cx="212.5" cy="115.5" fill="#ADD1B2" rx="11" ry="11" style="stroke:#181818;stroke-width:1.0;"/><path d="M214.9731,121.6431 Q214.3921,121.9419 213.7529,122.0913 Q213.1138,122.2407 212.4082,122.2407 Q209.9014,122.2407 208.5815,120.5889 Q207.2617,118.937 207.2617,115.8159 Q207.2617,112.6865 208.5815,111.0347 Q209.9014,109.3828 212.4082,109.3828 Q213.1138,109.3828 213.7612,109.5322 Q214.4087,109.6816 214.9731,109.9805 L214.9731,112.7031 Q214.3423,112.1221 213.7488,111.8523 Q213.1553,111.5825 212.5244,111.5825 Q211.1797,111.5825 210.4949,112.6492 Q209.8101,113.7158 209.8101,115.8159 Q209.8101,117.9077 210.4949,118.9744 Q211.1797,120.041 212.5244,120.041 Q213.1553,120.041 213.7488,119.7712 Q214.3423,119.5015 214.9731,118.9204 Z " fill="#000000"/><text fill="#000000" font-family="sans-serif" font-size="14" lengthAdjust="spacing" textLength="72" x="226.5" y="120.791">Promotion</text><line style="stroke:#181818;stroke-width:0.5;" x1="198.5" x2="300.5" y1="131.5" y2="131.5"/><line style="stroke:#181818;stroke-width:0.5;" x1="198.5" x2="300.5" y1="139.5" y2="139.5"/><text fill="#000000" font-family="sans-serif" font-size="14" lengthAdjust="spacing" textLength="69" x="203.5" y="157.0352">discount()</text></g><!--class FidelityPromo--><g id="elem_FidelityPromo"><rect codeLine="11" fill="#F1F1F1" height="64.4883" id="FidelityPromo" rx="2.5" ry="2.5" style="stroke:#181818;stroke-width:0.5;" width="126" x="17.5" y="232"/><ellipse cx="32.5" cy="248" fill="#ADD1B2" rx="11" ry="11" style="stroke:#181818;stroke-width:1.0;"/><path d="M34.9731,254.1431 Q34.3921,254.4419 33.7529,254.5913 Q33.1138,254.7407 32.4082,254.7407 Q29.9014,254.7407 28.5815,253.0889 Q27.2617,251.437 27.2617,248.3159 Q27.2617,245.1865 28.5815,243.5347 Q29.9014,241.8828 32.4082,241.8828 Q33.1138,241.8828 33.7612,242.0322 Q34.4087,242.1816 34.9731,242.4805 L34.9731,245.2031 Q34.3423,244.6221 33.7488,244.3523 Q33.1553,244.0825 32.5244,244.0825 Q31.1797,244.0825 30.4949,245.1492 Q29.8101,246.2158 29.8101,248.3159 Q29.8101,250.4077 30.4949,251.4744 Q31.1797,252.541 32.5244,252.541 Q33.1553,252.541 33.7488,252.2712 Q34.3423,252.0015 34.9731,251.4204 Z " fill="#000000"/><text fill="#000000" font-family="sans-serif" font-size="14" lengthAdjust="spacing" textLength="94" x="46.5" y="253.291">FidelityPromo</text><line style="stroke:#181818;stroke-width:0.5;" x1="18.5" x2="142.5" y1="264" y2="264"/><line style="stroke:#181818;stroke-width:0.5;" x1="18.5" x2="142.5" y1="272" y2="272"/><text fill="#000000" font-family="sans-serif" font-size="14" lengthAdjust="spacing" textLength="69" x="23.5" y="289.5352">discount()</text></g><!--class BulkItemPromo--><g id="elem_BulkItemPromo"><rect codeLine="14" fill="#F1F1F1" height="64.4883" id="BulkItemPromo" rx="2.5" ry="2.5" style="stroke:#181818;stroke-width:0.5;" width="136" x="181.5" y="232"/><ellipse cx="196.5" cy="248" fill="#ADD1B2" rx="11" ry="11" style="stroke:#181818;stroke-width:1.0;"/><path d="M198.9731,254.1431 Q198.3921,254.4419 197.7529,254.5913 Q197.1138,254.7407 196.4082,254.7407 Q193.9014,254.7407 192.5815,253.0889 Q191.2617,251.437 191.2617,248.3159 Q191.2617,245.1865 192.5815,243.5347 Q193.9014,241.8828 196.4082,241.8828 Q197.1138,241.8828 197.7612,242.0322 Q198.4087,242.1816 198.9731,242.4805 L198.9731,245.2031 Q198.3423,244.6221 197.7488,244.3523 Q197.1553,244.0825 196.5244,244.0825 Q195.1797,244.0825 194.4949,245.1492 Q193.8101,246.2158 193.8101,248.3159 Q193.8101,250.4077 194.4949,251.4744 Q195.1797,252.541 196.5244,252.541 Q197.1553,252.541 197.7488,252.2712 Q198.3423,252.0015 198.9731,251.4204 Z " fill="#000000"/><text fill="#000000" font-family="sans-serif" font-size="14" lengthAdjust="spacing" textLength="104" x="210.5" y="253.291">BulkItemPromo</text><line style="stroke:#181818;stroke-width:0.5;" x1="182.5" x2="316.5" y1="264" y2="264"/><line style="stroke:#181818;stroke-width:0.5;" x1="182.5" x2="316.5" y1="272" y2="272"/><text fill="#000000" font-family="sans-serif" font-size="14" lengthAdjust="spacing" textLength="69" x="187.5" y="289.5352">discount()</text></g><!--class LargeOrderPromo--><g id="elem_LargeOrderPromo"><rect codeLine="17" fill="#F1F1F1" height="64.4883" id="LargeOrderPromo" rx="2.5" ry="2.5" style="stroke:#181818;stroke-width:0.5;" width="155" x="353" y="232"/><ellipse cx="368" cy="248" fill="#ADD1B2" rx="11" ry="11" style="stroke:#181818;stroke-width:1.0;"/><path d="M370.4731,254.1431 Q369.8921,254.4419 369.2529,254.5913 Q368.6138,254.7407 367.9082,254.7407 Q365.4014,254.7407 364.0815,253.0889 Q362.7617,251.437 362.7617,248.3159 Q362.7617,245.1865 364.0815,243.5347 Q365.4014,241.8828 367.9082,241.8828 Q368.6138,241.8828 369.2612,242.0322 Q369.9087,242.1816 370.4731,242.4805 L370.4731,245.2031 Q369.8423,244.6221 369.2488,244.3523 Q368.6553,244.0825 368.0244,244.0825 Q366.6797,244.0825 365.9949,245.1492 Q365.3101,246.2158 365.3101,248.3159 Q365.3101,250.4077 365.9949,251.4744 Q366.6797,252.541 368.0244,252.541 Q368.6553,252.541 369.2488,252.2712 Q369.8423,252.0015 370.4731,251.4204 Z " fill="#000000"/><text fill="#000000" font-family="sans-serif" font-size="14" lengthAdjust="spacing" textLength="123" x="382" y="253.291">LargeOrderPromo</text><line style="stroke:#181818;stroke-width:0.5;" x1="354" x2="507" y1="264" y2="264"/><line style="stroke:#181818;stroke-width:0.5;" x1="354" x2="507" y1="272" y2="272"/><text fill="#000000" font-family="sans-serif" font-size="14" lengthAdjust="spacing" textLength="69" x="359" y="289.5352">discount()</text></g><g id="elem_GMN15"><path d="M338,6 L338,31.3105 A0,0 0 0 0 338,31.3105 L368.5,31.3105 L372.5,90.68 L376.5,31.3105 L407,31.3105 A0,0 0 0 0 407,31.3105 L407,16 L397,6 L338,6 A0,0 0 0 0 338,6 " fill="#FEFFDD" style="stroke:#181818;stroke-width:0.5;"/><path d="M397,6 L397,16 L407,16 L397,6 " fill="#FEFFDD" style="stroke:#181818;stroke-width:0.5;"/><text fill="#000000" font-family="sans-serif" font-size="13" lengthAdjust="spacing" textLength="48" x="344" y="23.5684">context</text></g><g id="elem_GMN18"><path d="M213.5,6 L213.5,31.3105 A0,0 0 0 0 213.5,31.3105 L245.5,31.3105 L249.5,99.43 L253.5,31.3105 L285.5,31.3105 A0,0 0 0 0 285.5,31.3105 L285.5,16 L275.5,6 L213.5,6 A0,0 0 0 0 213.5,6 " fill="#FEFFDD" style="stroke:#181818;stroke-width:0.5;"/><path d="M275.5,6 L275.5,16 L285.5,16 L275.5,6 " fill="#FEFFDD" style="stroke:#181818;stroke-width:0.5;"/><text fill="#000000" font-family="sans-serif" font-size="13" lengthAdjust="spacing" textLength="51" x="219.5" y="23.5684">strategy</text></g><g id="elem_GMN21"><path d="M6,356 L6,381.3105 A0,0 0 0 0 6,381.3105 L147,381.3105 A0,0 0 0 0 147,381.3105 L147,366 L137,356 L80.97,356 L79.28,296.31 L72.97,356 L6,356 A0,0 0 0 0 6,356 " fill="#FEFFDD" style="stroke:#181818;stroke-width:0.5;"/><path d="M137,356 L137,366 L147,366 L137,356 " fill="#FEFFDD" style="stroke:#181818;stroke-width:0.5;"/><text fill="#000000" font-family="sans-serif" font-size="13" lengthAdjust="spacing" textLength="120" x="12" y="373.5684">concrete strategies</text></g><g id="elem_GMN24"><path d="M182,356 L182,381.3105 A0,0 0 0 0 182,381.3105 L323,381.3105 A0,0 0 0 0 323,381.3105 L323,366 L313,356 L256.15,356 L250.42,296.31 L248.15,356 L182,356 A0,0 0 0 0 182,356 " fill="#FEFFDD" style="stroke:#181818;stroke-width:0.5;"/><path d="M313,356 L313,366 L323,366 L313,356 " fill="#FEFFDD" style="stroke:#181818;stroke-width:0.5;"/><text fill="#000000" font-family="sans-serif" font-size="13" lengthAdjust="spacing" textLength="120" x="188" y="373.5684">concrete strategies</text></g><g id="elem_GMN27"><path d="M360,356 L360,381.3105 A0,0 0 0 0 360,381.3105 L501,381.3105 A0,0 0 0 0 501,381.3105 L501,366 L491,356 L434.5,356 L430.5,296.31 L426.5,356 L360,356 A0,0 0 0 0 360,356 " fill="#FEFFDD" style="stroke:#181818;stroke-width:0.5;"/><path d="M491,356 L491,366 L501,366 L491,356 " fill="#FEFFDD" style="stroke:#181818;stroke-width:0.5;"/><text fill="#000000" font-family="sans-serif" font-size="13" lengthAdjust="spacing" textLength="120" x="366" y="373.5684">concrete strategies</text></g><!--reverse link Promotion to Order--><g id="link_Promotion_Order"><path codeLine="21" d="M316.3,131.5 C322.9,131.5 329.49,131.5 336.08,131.5 " fill="none" id="Promotion-backto-Order" style="stroke:#181818;stroke-width:1.0;"/><polygon fill="none" points="303.38,131.5,309.38,135.5,315.38,131.5,309.38,127.5,303.38,131.5" style="stroke:#181818;stroke-width:1.0;"/></g><!--reverse link Promotion to FidelityPromo--><g id="link_Promotion_FidelityPromo"><path codeLine="22" d="M192.31,176.66 C168.99,194.67 142.55,215.09 121.24,231.54 " fill="none" id="Promotion-backto-FidelityPromo" style="stroke:#181818;stroke-width:1.0;"/><polygon fill="none" points="187.71,171.37,207.82,164.68,196.27,182.45,187.71,171.37" style="stroke:#181818;stroke-width:1.0;"/></g><!--reverse link Promotion to BulkItemPromo--><g id="link_Promotion_BulkItemPromo"><path codeLine="23" d="M249.5,185.25 C249.5,200.95 249.5,217.66 249.5,231.54 " fill="none" id="Promotion-backto-BulkItemPromo" style="stroke:#181818;stroke-width:1.0;"/><polygon fill="none" points="242.5,185.27,249.5,165.27,256.5,185.27,242.5,185.27" style="stroke:#181818;stroke-width:1.0;"/></g><!--reverse link Promotion to LargeOrderPromo--><g id="link_Promotion_LargeOrderPromo"><path codeLine="24" d="M310.02,176.13 C335.18,194.27 363.83,214.93 386.87,231.54 " fill="none" id="Promotion-backto-LargeOrderPromo" style="stroke:#181818;stroke-width:1.0;"/><polygon fill="none" points="306.21,182.02,294.08,164.64,314.4,170.66,306.21,182.02" style="stroke:#181818;stroke-width:1.0;"/></g><!--SRC=[bP312i8m38RlVOeUzT1NyE1140HzXTfcezWreyt0eRwxNJUPBOvXJu5yV_CboieG-DbhyFp1U7o49ErccshTGQnUZAc4NJmsI0RTX6eJ57QElfc3qM0DzOdznOtOlhEt8q6pWfsaho7PBO9ib1SMAX8uExBCH7IjUExcPZQ_R1PJopPpI13lr7AinjCbAuMEu4uCdEO3aM5pUa03UKbGzmLxHI9i1Znp__okF4HeoXe8Y-bikR_JnVQh-JS0]--></g></svg>