<?xml version="1.0" encoding="us-ascii" standalone="no"?><svg xmlns="http://www.w3.org/2000/svg" xmlns:xlink="http://www.w3.org/1999/xlink" contentStyleType="text/css" height="354px" preserveAspectRatio="none" style="width:648px;height:354px;background:#FFFFFF;" version="1.1" viewBox="0 0 648 354" width="648px" zoomAndPan="magnify"><defs/><g><!--class MutableSequence--><g id="elem_MutableSequence"><rect codeLine="3" fill="#F1F1F1" height="311.8125" id="MutableSequence" rx="2.5" ry="2.5" style="stroke:#181818;stroke-width:0.5;" width="153" x="488" y="7"/><ellipse cx="503" cy="23" fill="#A9DCDF" rx="11" ry="11" style="stroke:#181818;stroke-width:1.0;"/><path d="M502.8633,18.3481 L501.7095,23.4199 L504.0254,23.4199 Z M501.3691,16.1069 L504.3657,16.1069 L507.7109,28.5 L505.2622,28.5 L504.4985,25.437 L501.2197,25.437 L500.4727,28.5 L498.0239,28.5 Z " fill="#000000"/><text fill="#000000" font-family="sans-serif" font-size="14" font-style="italic" lengthAdjust="spacing" textLength="121" x="517" y="28.291">MutableSequence</text><line style="stroke:#181818;stroke-width:0.5;" x1="489" x2="640" y1="39" y2="39"/><line style="stroke:#181818;stroke-width:0.5;" x1="489" x2="640" y1="47" y2="47"/><text fill="#8B0000" font-family="sans-serif" font-size="14" lengthAdjust="spacing" textLength="80" x="494" y="64.5352">__getitem__</text><text fill="#8B0000" font-family="sans-serif" font-size="14" lengthAdjust="spacing" textLength="78" x="494" y="81.0234">__setitem__</text><text fill="#8B0000" font-family="sans-serif" font-size="14" lengthAdjust="spacing" textLength="79" x="494" y="97.5117">__delitem__</text><text fill="#8B0000" font-family="sans-serif" font-size="14" lengthAdjust="spacing" textLength="49" x="494" y="114">__len__</text><text fill="#8B0000" font-family="sans-serif" font-size="14" lengthAdjust="spacing" textLength="39" x="494" y="130.4883">insert</text><text fill="#00008B" font-family="sans-serif" font-size="14" lengthAdjust="spacing" textLength="86" x="494" y="146.9766">__contains__</text><text fill="#00008B" font-family="sans-serif" font-size="14" lengthAdjust="spacing" textLength="51" x="494" y="163.4648">__iter__</text><text fill="#00008B" font-family="sans-serif" font-size="14" lengthAdjust="spacing" textLength="87" x="494" y="179.9531">__reversed__</text><text fill="#00008B" font-family="sans-serif" font-size="14" lengthAdjust="spacing" textLength="39" x="494" y="196.4414">index</text><text fill="#00008B" font-family="sans-serif" font-size="14" lengthAdjust="spacing" textLength="39" x="494" y="212.9297">count</text><text fill="#00008B" font-family="sans-serif" font-size="14" lengthAdjust="spacing" textLength="52" x="494" y="229.418">append</text><text fill="#00008B" font-family="sans-serif" font-size="14" lengthAdjust="spacing" textLength="50" x="494" y="245.9063">reverse</text><text fill="#00008B" font-family="sans-serif" font-size="14" lengthAdjust="spacing" textLength="48" x="494" y="262.3945">extend</text><text fill="#00008B" font-family="sans-serif" font-size="14" lengthAdjust="spacing" textLength="27" x="494" y="278.8828">pop</text><text fill="#00008B" font-family="sans-serif" font-size="14" lengthAdjust="spacing" textLength="51" x="494" y="295.3711">remove</text><text fill="#00008B" font-family="sans-serif" font-size="14" lengthAdjust="spacing" textLength="58" x="494" y="311.8594">__iadd__</text></g><!--class Sequence--><g id="elem_Sequence"><rect codeLine="22" fill="#F1F1F1" height="163.418" id="Sequence" rx="2.5" ry="2.5" style="stroke:#181818;stroke-width:0.5;" width="99" x="329" y="81.5"/><ellipse cx="344.45" cy="97.5" fill="#A9DCDF" rx="11" ry="11" style="stroke:#181818;stroke-width:1.0;"/><path d="M344.3133,92.8481 L343.1595,97.9199 L345.4754,97.9199 Z M342.8191,90.6069 L345.8157,90.6069 L349.1609,103 L346.7122,103 L345.9485,99.937 L342.6697,99.937 L341.9227,103 L339.4739,103 Z " fill="#000000"/><text fill="#000000" font-family="sans-serif" font-size="14" font-style="italic" lengthAdjust="spacing" textLength="66" x="358.55" y="102.791">Sequence</text><line style="stroke:#181818;stroke-width:0.5;" x1="330" x2="427" y1="113.5" y2="113.5"/><line style="stroke:#181818;stroke-width:0.5;" x1="330" x2="427" y1="121.5" y2="121.5"/><text fill="#8B0000" font-family="sans-serif" font-size="14" lengthAdjust="spacing" textLength="80" x="335" y="139.0352">__getitem__</text><text fill="#8B0000" font-family="sans-serif" font-size="14" lengthAdjust="spacing" textLength="49" x="335" y="155.5234">__len__</text><text fill="#00008B" font-family="sans-serif" font-size="14" lengthAdjust="spacing" textLength="86" x="335" y="172.0117">__contains__</text><text fill="#00008B" font-family="sans-serif" font-size="14" lengthAdjust="spacing" textLength="51" x="335" y="188.5">__iter__</text><text fill="#00008B" font-family="sans-serif" font-size="14" lengthAdjust="spacing" textLength="87" x="335" y="204.9883">__reversed__</text><text fill="#00008B" font-family="sans-serif" font-size="14" lengthAdjust="spacing" textLength="39" x="335" y="221.4766">index</text><text fill="#00008B" font-family="sans-serif" font-size="14" lengthAdjust="spacing" textLength="39" x="335" y="237.9648">count</text></g><!--class Reversible--><g id="elem_Reversible"><rect codeLine="32" fill="#F1F1F1" height="64.4883" id="Reversible" rx="2.5" ry="2.5" style="stroke:#181818;stroke-width:0.5;" width="102" x="167" y="73"/><ellipse cx="182" cy="89" fill="#A9DCDF" rx="11" ry="11" style="stroke:#181818;stroke-width:1.0;"/><path d="M181.8633,84.3481 L180.7095,89.4199 L183.0254,89.4199 Z M180.3691,82.1069 L183.3657,82.1069 L186.7109,94.5 L184.2622,94.5 L183.4985,91.437 L180.2197,91.437 L179.4727,94.5 L177.0239,94.5 Z " fill="#000000"/><text fill="#000000" font-family="sans-serif" font-size="14" font-style="italic" lengthAdjust="spacing" textLength="70" x="196" y="94.291">Reversible</text><line style="stroke:#181818;stroke-width:0.5;" x1="168" x2="268" y1="105" y2="105"/><line style="stroke:#181818;stroke-width:0.5;" x1="168" x2="268" y1="113" y2="113"/><text fill="#8B0000" font-family="sans-serif" font-size="14" lengthAdjust="spacing" textLength="87" x="173" y="130.5352">__reversed__</text></g><!--class Collection--><g id="elem_Collection"><rect codeLine="36" fill="#F1F1F1" height="97.4648" id="Collection" rx="2.5" ry="2.5" style="stroke:#181818;stroke-width:0.5;" width="101" x="167.5" y="172.5"/><ellipse cx="182.5" cy="188.5" fill="#A9DCDF" rx="11" ry="11" style="stroke:#181818;stroke-width:1.0;"/><path d="M182.3633,183.8481 L181.2095,188.9199 L183.5254,188.9199 Z M180.8691,181.6069 L183.8657,181.6069 L187.2109,194 L184.7622,194 L183.9985,190.937 L180.7197,190.937 L179.9727,194 L177.5239,194 Z " fill="#000000"/><text fill="#000000" font-family="sans-serif" font-size="14" font-style="italic" lengthAdjust="spacing" textLength="69" x="196.5" y="193.791">Collection</text><line style="stroke:#181818;stroke-width:0.5;" x1="168.5" x2="267.5" y1="204.5" y2="204.5"/><line style="stroke:#181818;stroke-width:0.5;" x1="168.5" x2="267.5" y1="212.5" y2="212.5"/><text fill="#8B0000" font-family="sans-serif" font-size="14" lengthAdjust="spacing" textLength="86" x="173.5" y="230.0352">__contains__</text><text fill="#8B0000" font-family="sans-serif" font-size="14" lengthAdjust="spacing" textLength="51" x="173.5" y="246.5234">__iter__</text><text fill="#8B0000" font-family="sans-serif" font-size="14" lengthAdjust="spacing" textLength="49" x="173.5" y="263.0117">__len__</text></g><!--class Sized--><g id="elem_Sized"><rect codeLine="42" fill="#F1F1F1" height="64.4883" id="Sized" rx="2.5" ry="2.5" style="stroke:#181818;stroke-width:0.5;" width="69" x="22.5" y="184"/><ellipse cx="37.5" cy="200" fill="#A9DCDF" rx="11" ry="11" style="stroke:#181818;stroke-width:1.0;"/><path d="M37.3633,195.3481 L36.2095,200.4199 L38.5254,200.4199 Z M35.8691,193.1069 L38.8657,193.1069 L42.2109,205.5 L39.7622,205.5 L38.9985,202.437 L35.7197,202.437 L34.9727,205.5 L32.5239,205.5 Z " fill="#000000"/><text fill="#000000" font-family="sans-serif" font-size="14" font-style="italic" lengthAdjust="spacing" textLength="37" x="51.5" y="205.291">Sized</text><line style="stroke:#181818;stroke-width:0.5;" x1="23.5" x2="90.5" y1="216" y2="216"/><line style="stroke:#181818;stroke-width:0.5;" x1="23.5" x2="90.5" y1="224" y2="224"/><text fill="#8B0000" font-family="sans-serif" font-size="14" lengthAdjust="spacing" textLength="49" x="28.5" y="241.5352">__len__</text></g><!--class Iterable--><g id="elem_Iterable"><rect codeLine="46" fill="#F1F1F1" height="64.4883" id="Iterable" rx="2.5" ry="2.5" style="stroke:#181818;stroke-width:0.5;" width="84" x="15" y="77"/><ellipse cx="30" cy="93" fill="#A9DCDF" rx="11" ry="11" style="stroke:#181818;stroke-width:1.0;"/><path d="M29.8633,88.3481 L28.7095,93.4199 L31.0254,93.4199 Z M28.3691,86.1069 L31.3657,86.1069 L34.7109,98.5 L32.2622,98.5 L31.4985,95.437 L28.2197,95.437 L27.4727,98.5 L25.0239,98.5 Z " fill="#000000"/><text fill="#000000" font-family="sans-serif" font-size="14" font-style="italic" lengthAdjust="spacing" textLength="52" x="44" y="98.291">Iterable</text><line style="stroke:#181818;stroke-width:0.5;" x1="16" x2="98" y1="109" y2="109"/><line style="stroke:#181818;stroke-width:0.5;" x1="16" x2="98" y1="117" y2="117"/><text fill="#8B0000" font-family="sans-serif" font-size="14" lengthAdjust="spacing" textLength="51" x="21" y="134.5352">__iter__</text></g><!--class Container--><g id="elem_Container"><rect codeLine="50" fill="#F1F1F1" height="64.4883" id="Container" rx="2.5" ry="2.5" style="stroke:#181818;stroke-width:0.5;" width="100" x="7" y="283"/><ellipse cx="22" cy="299" fill="#A9DCDF" rx="11" ry="11" style="stroke:#181818;stroke-width:1.0;"/><path d="M21.8633,294.3481 L20.7095,299.4199 L23.0254,299.4199 Z M20.3691,292.1069 L23.3657,292.1069 L26.7109,304.5 L24.2622,304.5 L23.4985,301.437 L20.2197,301.437 L19.4727,304.5 L17.0239,304.5 Z " fill="#000000"/><text fill="#000000" font-family="sans-serif" font-size="14" font-style="italic" lengthAdjust="spacing" textLength="68" x="36" y="304.291">Container</text><line style="stroke:#181818;stroke-width:0.5;" x1="8" x2="106" y1="315" y2="315"/><line style="stroke:#181818;stroke-width:0.5;" x1="8" x2="106" y1="323" y2="323"/><text fill="#8B0000" font-family="sans-serif" font-size="14" lengthAdjust="spacing" textLength="86" x="13" y="340.5352">__contains__</text></g><!--reverse link Sequence to MutableSequence--><g id="link_Sequence_MutableSequence"><path codeLine="54" d="M449.83,163 C462.22,163 475.18,163 487.72,163 " fill="none" id="Sequence-backto-MutableSequence" style="stroke:#181818;stroke-width:1.0;"/><polygon fill="none" points="449.84,170,429.84,163,449.84,156,449.84,170" style="stroke:#181818;stroke-width:1.0;"/></g><!--reverse link Collection to Sequence--><g id="link_Collection_Sequence"><path codeLine="55" d="M288.63,195.52 C302.07,190.6 315.89,185.55 328.5,180.93 " fill="none" id="Collection-backto-Sequence" style="stroke:#181818;stroke-width:1.0;"/><polygon fill="none" points="291.32,201.99,270.14,202.29,286.51,188.84,291.32,201.99" style="stroke:#181818;stroke-width:1.0;"/></g><!--reverse link Reversible to Sequence--><g id="link_Reversible_Sequence"><path codeLine="56" d="M289.02,130.62 C302.43,135.53 316.2,140.57 328.76,145.16 " fill="none" id="Reversible-backto-Sequence" style="stroke:#181818;stroke-width:1.0;"/><polygon fill="none" points="286.95,137.32,270.57,123.87,291.76,124.17,286.95,137.32" style="stroke:#181818;stroke-width:1.0;"/></g><!--reverse link Iterable to Reversible--><g id="link_Iterable_Reversible"><path codeLine="57" d="M120.82,107.42 C136.07,107.04 152.19,106.63 166.77,106.26 " fill="none" id="Iterable-backto-Reversible" style="stroke:#181818;stroke-width:1.0;"/><polygon fill="none" points="121.04,114.42,100.87,107.92,120.69,100.42,121.04,114.42" style="stroke:#181818;stroke-width:1.0;"/></g><!--reverse link Sized to Collection--><g id="link_Sized_Collection"><path codeLine="58" d="M113.06,217.73 C130.58,218.28 149.87,218.89 167.02,219.43 " fill="none" id="Sized-backto-Collection" style="stroke:#181818;stroke-width:1.0;"/><polygon fill="none" points="113,224.73,93.23,217.11,113.44,210.74,113,224.73" style="stroke:#181818;stroke-width:1.0;"/></g><!--reverse link Iterable to Collection--><g id="link_Iterable_Collection"><path codeLine="59" d="M116.93,150.51 C133.41,162.12 151.16,174.62 167.06,185.82 " fill="none" id="Iterable-backto-Collection" style="stroke:#181818;stroke-width:1.0;"/><polygon fill="none" points="112.92,156.25,100.6,139.01,120.98,144.8,112.92,156.25" style="stroke:#181818;stroke-width:1.0;"/></g><!--reverse link Container to Collection--><g id="link_Container_Collection"><path codeLine="60" d="M125.84,274.9 C139.67,266.72 153.98,258.26 167.05,250.53 " fill="none" id="Container-backto-Collection" style="stroke:#181818;stroke-width:1.0;"/><polygon fill="none" points="129.52,280.85,108.74,285,122.39,268.8,129.52,280.85" style="stroke:#181818;stroke-width:1.0;"/></g><!--SRC=[tLNBReCm4BpxA_m3KNkk458VbnnwIJx0ClOsiM9iQYzHr3JzzbhG0YL8B9LwAKVFx30xkvXuCAwIGPPSMHdZFM8mHOsmLjvjpHlmMsRX1Jbw7inkZroR00gDTqmM4ODKs5RovnfbOM4BhpKu1VpCU7hE9U3UwmlFbBS-t3t9SDY0peNO0Hg4KeZife7o6NvSoDTW5_4jE2BNk0W1PwaFjeRyGuYK9CfKGr3_Bad6mm9wW2E429fQOfo64usgVEs8hSgg0gTft2_7D3ASa2nS-OhgeFH7ee4q4Ac7wLxOUFl_RErfQ_aFT-qwuqtpQfCkcTcK9rnUwprwQzkxR5PlGQvj0J7LgHbFB5UwYFMinpcLTR8aAU6Dl4y5rwG1uJUv9RdkOydULwlnZuCDnjBW7J2O_q-Wwwmvxcci3QuvxLL7z07GzpL6s2S0]--></g></svg>