<?xml version="1.0" encoding="us-ascii" standalone="no"?><svg xmlns="http://www.w3.org/2000/svg" xmlns:xlink="http://www.w3.org/1999/xlink" contentStyleType="text/css" height="351px" preserveAspectRatio="none" style="width:444px;height:351px;background:#FFFFFF;" version="1.1" viewBox="0 0 444 351" width="444px" zoomAndPan="magnify"><defs/><g><!--class Tombola--><g id="elem_Tombola"><rect codeLine="2" fill="#F1F1F1" height="113.9531" id="Tombola" rx="2.5" ry="2.5" style="stroke:#181818;stroke-width:0.5;" width="93" x="164.5" y="7"/><ellipse cx="179.5" cy="23" fill="#A9DCDF" rx="11" ry="11" style="stroke:#181818;stroke-width:1.0;"/><path d="M179.3633,18.3481 L178.2095,23.4199 L180.5254,23.4199 Z M177.8691,16.1069 L180.8657,16.1069 L184.2109,28.5 L181.7622,28.5 L180.9985,25.437 L177.7197,25.437 L176.9727,28.5 L174.5239,28.5 Z " fill="#000000"/><text fill="#000000" font-family="sans-serif" font-size="14" font-style="italic" lengthAdjust="spacing" textLength="61" x="193.5" y="28.291">Tombola</text><line style="stroke:#181818;stroke-width:0.5;" x1="165.5" x2="256.5" y1="39" y2="39"/><line style="stroke:#181818;stroke-width:0.5;" x1="165.5" x2="256.5" y1="47" y2="47"/><text fill="#8B0000" font-family="sans-serif" font-size="14" lengthAdjust="spacing" textLength="30" x="170.5" y="64.5352">load</text><text fill="#8B0000" font-family="sans-serif" font-size="14" lengthAdjust="spacing" textLength="28" x="170.5" y="81.0234">pick</text><text fill="#00008B" font-family="sans-serif" font-size="14" lengthAdjust="spacing" textLength="47" x="170.5" y="97.5117">loaded</text><text fill="#00008B" font-family="sans-serif" font-size="14" lengthAdjust="spacing" textLength="49" x="170.5" y="114">inspect</text></g><!--class BingoCage--><g id="elem_BingoCage"><rect codeLine="9" fill="#F1F1F1" height="146.9297" id="BingoCage" rx="2.5" ry="2.5" style="stroke:#181818;stroke-width:0.5;" width="106" x="7" y="198"/><ellipse cx="22" cy="214" fill="#ADD1B2" rx="11" ry="11" style="stroke:#181818;stroke-width:1.0;"/><path d="M24.4731,220.1431 Q23.8921,220.4419 23.2529,220.5913 Q22.6138,220.7407 21.9082,220.7407 Q19.4014,220.7407 18.0815,219.0889 Q16.7617,217.437 16.7617,214.3159 Q16.7617,211.1865 18.0815,209.5347 Q19.4014,207.8828 21.9082,207.8828 Q22.6138,207.8828 23.2612,208.0322 Q23.9087,208.1816 24.4731,208.4805 L24.4731,211.2031 Q23.8423,210.6221 23.2488,210.3523 Q22.6553,210.0825 22.0244,210.0825 Q20.6797,210.0825 19.9949,211.1492 Q19.3101,212.2158 19.3101,214.3159 Q19.3101,216.4077 19.9949,217.4744 Q20.6797,218.541 22.0244,218.541 Q22.6553,218.541 23.2488,218.2712 Q23.8423,218.0015 24.4731,217.4204 Z " fill="#000000"/><text fill="#000000" font-family="sans-serif" font-size="14" lengthAdjust="spacing" textLength="74" x="36" y="219.291">BingoCage</text><line style="stroke:#181818;stroke-width:0.5;" x1="8" x2="112" y1="230" y2="230"/><line style="stroke:#181818;stroke-width:0.5;" x1="8" x2="112" y1="238" y2="238"/><text fill="#8B0000" font-family="sans-serif" font-size="14" lengthAdjust="spacing" textLength="30" x="13" y="255.5352">load</text><text fill="#8B0000" font-family="sans-serif" font-size="14" lengthAdjust="spacing" textLength="28" x="13" y="272.0234">pick</text><text fill="#00008B" font-family="sans-serif" font-size="14" lengthAdjust="spacing" textLength="47" x="13" y="288.5117">loaded</text><text fill="#00008B" font-family="sans-serif" font-size="14" lengthAdjust="spacing" textLength="49" x="13" y="305">inspect</text><text fill="#00008B" font-family="sans-serif" font-size="14" lengthAdjust="spacing" textLength="50" x="13" y="321.4883">__init__</text><text fill="#00008B" font-family="sans-serif" font-size="14" lengthAdjust="spacing" textLength="51" x="13" y="337.9766">__call__</text></g><!--class LotteryBlower--><g id="elem_LotteryBlower"><rect codeLine="17" fill="#F1F1F1" height="130.4414" id="LotteryBlower" rx="2.5" ry="2.5" style="stroke:#181818;stroke-width:0.5;" width="125" x="148.5" y="206.5"/><ellipse cx="163.5" cy="222.5" fill="#ADD1B2" rx="11" ry="11" style="stroke:#181818;stroke-width:1.0;"/><path d="M165.9731,228.6431 Q165.3921,228.9419 164.7529,229.0913 Q164.1138,229.2407 163.4082,229.2407 Q160.9014,229.2407 159.5815,227.5889 Q158.2617,225.937 158.2617,222.8159 Q158.2617,219.6865 159.5815,218.0347 Q160.9014,216.3828 163.4082,216.3828 Q164.1138,216.3828 164.7612,216.5322 Q165.4087,216.6816 165.9731,216.9805 L165.9731,219.7031 Q165.3423,219.1221 164.7488,218.8523 Q164.1553,218.5825 163.5244,218.5825 Q162.1797,218.5825 161.4949,219.6492 Q160.8101,220.7158 160.8101,222.8159 Q160.8101,224.9077 161.4949,225.9744 Q162.1797,227.041 163.5244,227.041 Q164.1553,227.041 164.7488,226.7712 Q165.3423,226.5015 165.9731,225.9204 Z " fill="#000000"/><text fill="#000000" font-family="sans-serif" font-size="14" lengthAdjust="spacing" textLength="93" x="177.5" y="227.791">LotteryBlower</text><line style="stroke:#181818;stroke-width:0.5;" x1="149.5" x2="272.5" y1="238.5" y2="238.5"/><line style="stroke:#181818;stroke-width:0.5;" x1="149.5" x2="272.5" y1="246.5" y2="246.5"/><text fill="#8B0000" font-family="sans-serif" font-size="14" lengthAdjust="spacing" textLength="30" x="154.5" y="264.0352">load</text><text fill="#8B0000" font-family="sans-serif" font-size="14" lengthAdjust="spacing" textLength="28" x="154.5" y="280.5234">pick</text><text fill="#00008B" font-family="sans-serif" font-size="14" lengthAdjust="spacing" textLength="47" x="154.5" y="297.0117">loaded</text><text fill="#00008B" font-family="sans-serif" font-size="14" lengthAdjust="spacing" textLength="49" x="154.5" y="313.5">inspect</text><text fill="#00008B" font-family="sans-serif" font-size="14" lengthAdjust="spacing" textLength="50" x="154.5" y="329.9883">__init__</text></g><!--class TomboList--><g id="elem_TomboList"><rect codeLine="24" fill="#F1F1F1" height="122.5742" id="TomboList" rx="2.5" ry="2.5" style="stroke:#181818;stroke-width:0.5;" width="128" x="309" y="210"/><ellipse cx="324" cy="230.3105" fill="#ADD1B2" rx="11" ry="11" style="stroke:#181818;stroke-width:1.0;"/><path d="M326.4731,236.4536 Q325.8921,236.7524 325.2529,236.9019 Q324.6138,237.0513 323.9082,237.0513 Q321.4014,237.0513 320.0815,235.3994 Q318.7617,233.7476 318.7617,230.6265 Q318.7617,227.4971 320.0815,225.8452 Q321.4014,224.1934 323.9082,224.1934 Q324.6138,224.1934 325.2612,224.3428 Q325.9087,224.4922 326.4731,224.791 L326.4731,227.5137 Q325.8423,226.9326 325.2488,226.6628 Q324.6553,226.3931 324.0244,226.3931 Q322.6797,226.3931 321.9949,227.4597 Q321.3101,228.5264 321.3101,230.6265 Q321.3101,232.7183 321.9949,233.7849 Q322.6797,234.8516 324.0244,234.8516 Q324.6553,234.8516 325.2488,234.5818 Q325.8423,234.312 326.4731,233.731 Z " fill="#000000"/><text fill="#000000" font-family="sans-serif" font-size="12" font-style="italic" lengthAdjust="spacing" textLength="100" x="336" y="226.6016">&#171;virtual subclass&#187;</text><text fill="#000000" font-family="sans-serif" font-size="14" lengthAdjust="spacing" textLength="72" x="350" y="242.668">TomboList</text><line style="stroke:#181818;stroke-width:0.5;" x1="310" x2="436" y1="250.6211" y2="250.6211"/><line style="stroke:#181818;stroke-width:0.5;" x1="310" x2="436" y1="258.6211" y2="258.6211"/><text fill="#8B0000" font-family="sans-serif" font-size="14" lengthAdjust="spacing" textLength="30" x="315" y="276.1563">load</text><text fill="#8B0000" font-family="sans-serif" font-size="14" lengthAdjust="spacing" textLength="28" x="315" y="292.6445">pick</text><text fill="#00008B" font-family="sans-serif" font-size="14" lengthAdjust="spacing" textLength="47" x="315" y="309.1328">loaded</text><text fill="#00008B" font-family="sans-serif" font-size="14" lengthAdjust="spacing" textLength="49" x="315" y="325.6211">inspect</text></g><!--reverse link Tombola to BingoCage--><g id="link_Tombola_BingoCage"><path codeLine="31" d="M165.83,126.47 C149.3,148.97 130.45,174.62 113.28,197.99 " fill="none" id="Tombola-backto-BingoCage" style="stroke:#181818;stroke-width:1.0;"/><polygon fill="#181818" points="168.64,122.65,160.0899,127.5382,165.6813,126.6807,166.5389,132.2721,168.64,122.65" style="stroke:#181818;stroke-width:1.0;"/></g><!--reverse link Tombola to LotteryBlower--><g id="link_Tombola_LotteryBlower"><path codeLine="32" d="M211,127.67 C211,152.56 211,181.17 211,206.22 " fill="none" id="Tombola-backto-LotteryBlower" style="stroke:#181818;stroke-width:1.0;"/><polygon fill="#181818" points="211,122.94,207,131.94,211,127.94,215,131.94,211,122.94" style="stroke:#181818;stroke-width:1.0;"/></g><!--reverse link Tombola to TomboList--><g id="link_Tombola_TomboList"><path codeLine="33" d="M268.54,137.99 C286.99,161.4 307.22,187.06 324.93,209.52 " fill="none" id="Tombola-backto-TomboList" style="stroke:#181818;stroke-width:1.0;stroke-dasharray:7.0,7.0;"/><polygon fill="none" points="263.3,142.65,256.42,122.61,274.3,133.99,263.3,142.65" style="stroke:#181818;stroke-width:1.0;"/><text fill="#000000" font-family="sans-serif" font-size="13" lengthAdjust="spacing" textLength="77" x="293" y="164.5684">&#171;registered&#187;</text></g><!--SRC=[tPCn3u8m48LtVaN_WBWRqW4TdOmxESe56qxEj5UDGVwx14LbGLRjUEzBS-_r5N8l3emeG-2zslCnPmBLHAexpH7bm4Mh4iF4RhK1L-smqCHG9Cj-fYV1apNLLp2bWFsLMCnZRUrFQEG5jr7qs3wrTSbhAF6tzf-4iypMLh9iBcs0w8Dkdz5iMGJTDIM-eFldU0R3VPEtrejAahDr4e2K3talQlrh_NutUn4MUlYcqVXLHzBRVnpYsskkLbqU3ijEGDSvq7S0]--></g></svg>