<?xml version="1.0" encoding="us-ascii" standalone="no"?><svg xmlns="http://www.w3.org/2000/svg" xmlns:xlink="http://www.w3.org/1999/xlink" contentStyleType="text/css" height="452px" preserveAspectRatio="none" style="width:256px;height:452px;background:#FFFFFF;" version="1.1" viewBox="0 0 256 452" width="256px" zoomAndPan="magnify"><defs/><g><!--class MutableSequence--><g id="elem_MutableSequence"><rect codeLine="2" fill="#F1F1F1" height="48" id="MutableSequence" rx="2.5" ry="2.5" style="stroke:#181818;stroke-width:0.5;" width="153" x="94" y="7"/><ellipse cx="109" cy="23" fill="#A9DCDF" rx="11" ry="11" style="stroke:#181818;stroke-width:1.0;"/><path d="M108.8633,18.3481 L107.7095,23.4199 L110.0254,23.4199 Z M107.3691,16.1069 L110.3657,16.1069 L113.7109,28.5 L111.2622,28.5 L110.4985,25.437 L107.2197,25.437 L106.4727,28.5 L104.0239,28.5 Z " fill="#000000"/><text fill="#000000" font-family="sans-serif" font-size="14" font-style="italic" lengthAdjust="spacing" textLength="121" x="123" y="28.291">MutableSequence</text><line style="stroke:#181818;stroke-width:0.5;" x1="95" x2="246" y1="39" y2="39"/><line style="stroke:#181818;stroke-width:0.5;" x1="95" x2="246" y1="47" y2="47"/></g><!--class list--><g id="elem_list"><rect codeLine="6" fill="#F1F1F1" height="113.9531" id="list" rx="2.5" ry="2.5" style="stroke:#181818;stroke-width:0.5;" width="71" x="135" y="132"/><ellipse cx="158.55" cy="148" fill="#ADD1B2" rx="11" ry="11" style="stroke:#181818;stroke-width:1.0;"/><path d="M161.0231,154.1431 Q160.4421,154.4419 159.8029,154.5913 Q159.1638,154.7407 158.4582,154.7407 Q155.9514,154.7407 154.6315,153.0889 Q153.3117,151.437 153.3117,148.3159 Q153.3117,145.1865 154.6315,143.5347 Q155.9514,141.8828 158.4582,141.8828 Q159.1638,141.8828 159.8112,142.0322 Q160.4587,142.1816 161.0231,142.4805 L161.0231,145.2031 Q160.3923,144.6221 159.7988,144.3523 Q159.2053,144.0825 158.5744,144.0825 Q157.2297,144.0825 156.5449,145.1492 Q155.8601,146.2158 155.8601,148.3159 Q155.8601,150.4077 156.5449,151.4744 Q157.2297,152.541 158.5744,152.541 Q159.2053,152.541 159.7988,152.2712 Q160.3923,152.0015 161.0231,151.4204 Z " fill="#000000"/><text fill="#000000" font-family="sans-serif" font-size="14" lengthAdjust="spacing" textLength="20" x="174.45" y="153.291">list</text><line style="stroke:#181818;stroke-width:0.5;" x1="136" x2="205" y1="164" y2="164"/><line style="stroke:#181818;stroke-width:0.5;" x1="136" x2="205" y1="172" y2="172"/><text fill="#00008B" font-family="sans-serif" font-size="14" lengthAdjust="spacing" textLength="50" x="141" y="189.5352">__init__</text><text fill="#00008B" font-family="sans-serif" font-size="14" lengthAdjust="spacing" textLength="49" x="141" y="206.0234">__len__</text><text fill="#00008B" font-family="sans-serif" font-size="14" lengthAdjust="spacing" textLength="48" x="141" y="222.5117">extend</text><text fill="#00008B" font-family="sans-serif" font-size="14" lengthAdjust="spacing" textLength="59" x="141" y="239">__bool__</text></g><!--class Tombola--><g id="elem_Tombola"><rect codeLine="13" fill="#F1F1F1" height="113.9531" id="Tombola" rx="2.5" ry="2.5" style="stroke:#181818;stroke-width:0.5;" width="93" x="7" y="132"/><ellipse cx="22" cy="148" fill="#A9DCDF" rx="11" ry="11" style="stroke:#181818;stroke-width:1.0;"/><path d="M21.8633,143.3481 L20.7095,148.4199 L23.0254,148.4199 Z M20.3691,141.1069 L23.3657,141.1069 L26.7109,153.5 L24.2622,153.5 L23.4985,150.437 L20.2197,150.437 L19.4727,153.5 L17.0239,153.5 Z " fill="#000000"/><text fill="#000000" font-family="sans-serif" font-size="14" font-style="italic" lengthAdjust="spacing" textLength="61" x="36" y="153.291">Tombola</text><line style="stroke:#181818;stroke-width:0.5;" x1="8" x2="99" y1="164" y2="164"/><line style="stroke:#181818;stroke-width:0.5;" x1="8" x2="99" y1="172" y2="172"/><text fill="#8B0000" font-family="sans-serif" font-size="14" lengthAdjust="spacing" textLength="30" x="13" y="189.5352">load</text><text fill="#8B0000" font-family="sans-serif" font-size="14" lengthAdjust="spacing" textLength="28" x="13" y="206.0234">pick</text><text fill="#00008B" font-family="sans-serif" font-size="14" lengthAdjust="spacing" textLength="47" x="13" y="222.5117">loaded</text><text fill="#00008B" font-family="sans-serif" font-size="14" lengthAdjust="spacing" textLength="49" x="13" y="239">inspect</text></g><!--class TomboList--><g id="elem_TomboList"><rect codeLine="20" fill="#F1F1F1" height="122.5742" id="TomboList" rx="2.5" ry="2.5" style="stroke:#181818;stroke-width:0.5;" width="198" x="8.5" y="323"/><ellipse cx="23.5" cy="343.3105" fill="#ADD1B2" rx="11" ry="11" style="stroke:#181818;stroke-width:1.0;"/><path d="M25.9731,349.4536 Q25.3921,349.7524 24.7529,349.9019 Q24.1138,350.0513 23.4082,350.0513 Q20.9014,350.0513 19.5815,348.3994 Q18.2617,346.7476 18.2617,343.6265 Q18.2617,340.4971 19.5815,338.8452 Q20.9014,337.1934 23.4082,337.1934 Q24.1138,337.1934 24.7612,337.3428 Q25.4087,337.4922 25.9731,337.791 L25.9731,340.5137 Q25.3423,339.9326 24.7488,339.6628 Q24.1553,339.3931 23.5244,339.3931 Q22.1797,339.3931 21.4949,340.4597 Q20.8101,341.5264 20.8101,343.6265 Q20.8101,345.7183 21.4949,346.7849 Q22.1797,347.8516 23.5244,347.8516 Q24.1553,347.8516 24.7488,347.5818 Q25.3423,347.312 25.9731,346.731 Z " fill="#000000"/><text fill="#000000" font-family="sans-serif" font-size="12" font-style="italic" lengthAdjust="spacing" textLength="170" x="35.5" y="339.6016">&#171;virtual subclass of Tombola&#187;</text><text fill="#000000" font-family="sans-serif" font-size="14" lengthAdjust="spacing" textLength="72" x="84.5" y="355.668">TomboList</text><line style="stroke:#181818;stroke-width:0.5;" x1="9.5" x2="205.5" y1="363.6211" y2="363.6211"/><line style="stroke:#181818;stroke-width:0.5;" x1="9.5" x2="205.5" y1="371.6211" y2="371.6211"/><text fill="#8B0000" font-family="sans-serif" font-size="14" lengthAdjust="spacing" textLength="30" x="14.5" y="389.1563">load</text><text fill="#8B0000" font-family="sans-serif" font-size="14" lengthAdjust="spacing" textLength="28" x="14.5" y="405.6445">pick</text><text fill="#00008B" font-family="sans-serif" font-size="14" lengthAdjust="spacing" textLength="47" x="14.5" y="422.1328">loaded</text><text fill="#00008B" font-family="sans-serif" font-size="14" lengthAdjust="spacing" textLength="49" x="14.5" y="438.6211">inspect</text></g><!--reverse link list to TomboList--><g id="link_list_TomboList"><path codeLine="27" d="M153.03,252.45 C149.07,265.88 144.77,279.95 140.5,293 C137.32,302.69 133.79,312.91 130.24,322.84 " fill="none" id="list-backto-TomboList" style="stroke:#181818;stroke-width:1.0;"/><polygon fill="#181818" points="154.4,247.79,148.04,255.31,153,252.59,155.72,257.55,154.4,247.79" style="stroke:#181818;stroke-width:1.0;"/></g><!--reverse link MutableSequence to list--><g id="link_MutableSequence_list"><path codeLine="28" d="M170.5,76.7 C170.5,93.85 170.5,113.64 170.5,131.74 " fill="none" id="MutableSequence-backto-list" style="stroke:#181818;stroke-width:1.0;stroke-dasharray:7.0,7.0;"/><polygon fill="none" points="163.5,76.87,170.5,56.87,177.5,76.87,163.5,76.87" style="stroke:#181818;stroke-width:1.0;"/><text fill="#000000" font-family="sans-serif" font-size="13" lengthAdjust="spacing" textLength="77" x="171.5" y="98.5684">&#171;registered&#187;</text></g><!--reverse link Tombola to TomboList--><g id="link_Tombola_TomboList"><path codeLine="29" d="M52.63,267.64 C53.68,276.29 55.24,284.89 57.5,293 C60.27,302.94 64.32,312.98 68.93,322.58 " fill="none" id="Tombola-backto-TomboList" style="stroke:#181818;stroke-width:1.0;stroke-dasharray:7.0,7.0;"/><polygon fill="none" points="45.66,268.31,51.1,247.83,59.62,267.24,45.66,268.31" style="stroke:#181818;stroke-width:1.0;"/><text fill="#000000" font-family="sans-serif" font-size="13" lengthAdjust="spacing" textLength="77" x="58.5" y="289.5684">&#171;registered&#187;</text></g><!--SRC=[rPB1Ri8m44Jl_Wh_0E6E8XygZksbxJrQEqjhiNZ1NgDAWN_7IOH8YmIvrjUP7S_JBjWa4PneHv2IVii2bl033nc3mqwfirAZH3w9xfGkhzkXV7DxrhLZuhXQGzo-K4RJD3vuQPfwEGZccPimp3NZZs1evmPRPfea5mZu3Vh9Eyi43u3UiJN4yFpBthZtRZklMn-9CpbyI7jqCiMOj7_j5rBNHnyb0-cKxIZovafdp7_3ku4jyi8CDwU6mwjoTJ9_prEl2d_4hsB0M6gQoVmuS5tpdV42]--></g></svg>