<?xml version="1.0" encoding="us-ascii" standalone="no"?><svg xmlns="http://www.w3.org/2000/svg" xmlns:xlink="http://www.w3.org/1999/xlink" contentStyleType="text/css" height="386px" preserveAspectRatio="none" style="width:947px;height:386px;background:#FFFFFF;" version="1.1" viewBox="0 0 947 386" width="947px" zoomAndPan="magnify"><defs/><g><!--class Container--><g id="elem_Container"><rect codeLine="2" fill="#F1F1F1" height="48" id="Container" rx="2.5" ry="2.5" style="stroke:#181818;stroke-width:0.5;" width="100" x="359.5" y="7"/><ellipse cx="374.5" cy="23" fill="#A9DCDF" rx="11" ry="11" style="stroke:#181818;stroke-width:1.0;"/><path d="M374.3633,18.3481 L373.2095,23.4199 L375.5254,23.4199 Z M372.8691,16.1069 L375.8657,16.1069 L379.2109,28.5 L376.7622,28.5 L375.9985,25.437 L372.7197,25.437 L371.9727,28.5 L369.5239,28.5 Z " fill="#000000"/><text fill="#000000" font-family="sans-serif" font-size="14" font-style="italic" lengthAdjust="spacing" textLength="68" x="388.5" y="28.291">Container</text><line style="stroke:#181818;stroke-width:0.5;" x1="360.5" x2="458.5" y1="39" y2="39"/><line style="stroke:#181818;stroke-width:0.5;" x1="360.5" x2="458.5" y1="47" y2="47"/></g><!--class Iterable--><g id="elem_Iterable"><rect codeLine="5" fill="#F1F1F1" height="48" id="Iterable" rx="2.5" ry="2.5" style="stroke:#181818;stroke-width:0.5;" width="84" x="603.5" y="7"/><ellipse cx="618.5" cy="23" fill="#A9DCDF" rx="11" ry="11" style="stroke:#181818;stroke-width:1.0;"/><path d="M618.3633,18.3481 L617.2095,23.4199 L619.5254,23.4199 Z M616.8691,16.1069 L619.8657,16.1069 L623.2109,28.5 L620.7622,28.5 L619.9985,25.437 L616.7197,25.437 L615.9727,28.5 L613.5239,28.5 Z " fill="#000000"/><text fill="#000000" font-family="sans-serif" font-size="14" font-style="italic" lengthAdjust="spacing" textLength="52" x="632.5" y="28.291">Iterable</text><line style="stroke:#181818;stroke-width:0.5;" x1="604.5" x2="686.5" y1="39" y2="39"/><line style="stroke:#181818;stroke-width:0.5;" x1="604.5" x2="686.5" y1="47" y2="47"/></g><!--class Iterator--><g id="elem_Iterator"><rect codeLine="8" fill="#F1F1F1" height="48" id="Iterator" rx="2.5" ry="2.5" style="stroke:#181818;stroke-width:0.5;" width="83" x="735" y="115"/><ellipse cx="750" cy="131" fill="#A9DCDF" rx="11" ry="11" style="stroke:#181818;stroke-width:1.0;"/><path d="M749.8633,126.3481 L748.7095,131.4199 L751.0254,131.4199 Z M748.3691,124.1069 L751.3657,124.1069 L754.7109,136.5 L752.2622,136.5 L751.4985,133.437 L748.2197,133.437 L747.4727,136.5 L745.0239,136.5 Z " fill="#000000"/><text fill="#000000" font-family="sans-serif" font-size="14" font-style="italic" lengthAdjust="spacing" textLength="51" x="764" y="136.291">Iterator</text><line style="stroke:#181818;stroke-width:0.5;" x1="736" x2="817" y1="147" y2="147"/><line style="stroke:#181818;stroke-width:0.5;" x1="736" x2="817" y1="155" y2="155"/></g><!--class Reversible--><g id="elem_Reversible"><rect codeLine="11" fill="#F1F1F1" height="48" id="Reversible" rx="2.5" ry="2.5" style="stroke:#181818;stroke-width:0.5;" width="102" x="594.5" y="115"/><ellipse cx="609.5" cy="131" fill="#A9DCDF" rx="11" ry="11" style="stroke:#181818;stroke-width:1.0;"/><path d="M609.3633,126.3481 L608.2095,131.4199 L610.5254,131.4199 Z M607.8691,124.1069 L610.8657,124.1069 L614.2109,136.5 L611.7622,136.5 L610.9985,133.437 L607.7197,133.437 L606.9727,136.5 L604.5239,136.5 Z " fill="#000000"/><text fill="#000000" font-family="sans-serif" font-size="14" font-style="italic" lengthAdjust="spacing" textLength="70" x="623.5" y="136.291">Reversible</text><line style="stroke:#181818;stroke-width:0.5;" x1="595.5" x2="695.5" y1="147" y2="147"/><line style="stroke:#181818;stroke-width:0.5;" x1="595.5" x2="695.5" y1="155" y2="155"/></g><!--class Generator--><g id="elem_Generator"><rect codeLine="14" fill="#F1F1F1" height="48" id="Generator" rx="2.5" ry="2.5" style="stroke:#181818;stroke-width:0.5;" width="101" x="730" y="223"/><ellipse cx="745" cy="239" fill="#A9DCDF" rx="11" ry="11" style="stroke:#181818;stroke-width:1.0;"/><path d="M744.8633,234.3481 L743.7095,239.4199 L746.0254,239.4199 Z M743.3691,232.1069 L746.3657,232.1069 L749.7109,244.5 L747.2622,244.5 L746.4985,241.437 L743.2197,241.437 L742.4727,244.5 L740.0239,244.5 Z " fill="#000000"/><text fill="#000000" font-family="sans-serif" font-size="14" font-style="italic" lengthAdjust="spacing" textLength="69" x="759" y="244.291">Generator</text><line style="stroke:#181818;stroke-width:0.5;" x1="731" x2="830" y1="255" y2="255"/><line style="stroke:#181818;stroke-width:0.5;" x1="731" x2="830" y1="263" y2="263"/></g><!--class Sized--><g id="elem_Sized"><rect codeLine="17" fill="#F1F1F1" height="48" id="Sized" rx="2.5" ry="2.5" style="stroke:#181818;stroke-width:0.5;" width="69" x="241" y="7"/><ellipse cx="256" cy="23" fill="#A9DCDF" rx="11" ry="11" style="stroke:#181818;stroke-width:1.0;"/><path d="M255.8633,18.3481 L254.7095,23.4199 L257.0254,23.4199 Z M254.3691,16.1069 L257.3657,16.1069 L260.7109,28.5 L258.2622,28.5 L257.4985,25.437 L254.2197,25.437 L253.4727,28.5 L251.0239,28.5 Z " fill="#000000"/><text fill="#000000" font-family="sans-serif" font-size="14" font-style="italic" lengthAdjust="spacing" textLength="37" x="270" y="28.291">Sized</text><line style="stroke:#181818;stroke-width:0.5;" x1="242" x2="309" y1="39" y2="39"/><line style="stroke:#181818;stroke-width:0.5;" x1="242" x2="309" y1="47" y2="47"/></g><!--class Collection--><g id="elem_Collection"><rect codeLine="20" fill="#F1F1F1" height="48" id="Collection" rx="2.5" ry="2.5" style="stroke:#181818;stroke-width:0.5;" width="101" x="359" y="115"/><ellipse cx="374" cy="131" fill="#A9DCDF" rx="11" ry="11" style="stroke:#181818;stroke-width:1.0;"/><path d="M373.8633,126.3481 L372.7095,131.4199 L375.0254,131.4199 Z M372.3691,124.1069 L375.3657,124.1069 L378.7109,136.5 L376.2622,136.5 L375.4985,133.437 L372.2197,133.437 L371.4727,136.5 L369.0239,136.5 Z " fill="#000000"/><text fill="#000000" font-family="sans-serif" font-size="14" font-style="italic" lengthAdjust="spacing" textLength="69" x="388" y="136.291">Collection</text><line style="stroke:#181818;stroke-width:0.5;" x1="360" x2="459" y1="147" y2="147"/><line style="stroke:#181818;stroke-width:0.5;" x1="360" x2="459" y1="155" y2="155"/></g><!--class Sequence--><g id="elem_Sequence"><rect codeLine="23" fill="#F1F1F1" height="48" id="Sequence" rx="2.5" ry="2.5" style="stroke:#181818;stroke-width:0.5;" width="98" x="596.5" y="223"/><ellipse cx="611.5" cy="239" fill="#A9DCDF" rx="11" ry="11" style="stroke:#181818;stroke-width:1.0;"/><path d="M611.3633,234.3481 L610.2095,239.4199 L612.5254,239.4199 Z M609.8691,232.1069 L612.8657,232.1069 L616.2109,244.5 L613.7622,244.5 L612.9985,241.437 L609.7197,241.437 L608.9727,244.5 L606.5239,244.5 Z " fill="#000000"/><text fill="#000000" font-family="sans-serif" font-size="14" font-style="italic" lengthAdjust="spacing" textLength="66" x="625.5" y="244.291">Sequence</text><line style="stroke:#181818;stroke-width:0.5;" x1="597.5" x2="693.5" y1="255" y2="255"/><line style="stroke:#181818;stroke-width:0.5;" x1="597.5" x2="693.5" y1="263" y2="263"/></g><!--class MutableSequence--><g id="elem_MutableSequence"><rect codeLine="26" fill="#F1F1F1" height="48" id="MutableSequence" rx="2.5" ry="2.5" style="stroke:#181818;stroke-width:0.5;" width="153" x="599" y="331"/><ellipse cx="614" cy="347" fill="#A9DCDF" rx="11" ry="11" style="stroke:#181818;stroke-width:1.0;"/><path d="M613.8633,342.3481 L612.7095,347.4199 L615.0254,347.4199 Z M612.3691,340.1069 L615.3657,340.1069 L618.7109,352.5 L616.2622,352.5 L615.4985,349.437 L612.2197,349.437 L611.4727,352.5 L609.0239,352.5 Z " fill="#000000"/><text fill="#000000" font-family="sans-serif" font-size="14" font-style="italic" lengthAdjust="spacing" textLength="121" x="628" y="352.291">MutableSequence</text><line style="stroke:#181818;stroke-width:0.5;" x1="600" x2="751" y1="363" y2="363"/><line style="stroke:#181818;stroke-width:0.5;" x1="600" x2="751" y1="371" y2="371"/></g><!--class ByteString--><g id="elem_ByteString"><rect codeLine="29" fill="#F1F1F1" height="48" id="ByteString" rx="2.5" ry="2.5" style="stroke:#181818;stroke-width:0.5;" width="101" x="787" y="331"/><ellipse cx="802" cy="347" fill="#A9DCDF" rx="11" ry="11" style="stroke:#181818;stroke-width:1.0;"/><path d="M801.8633,342.3481 L800.7095,347.4199 L803.0254,347.4199 Z M800.3691,340.1069 L803.3657,340.1069 L806.7109,352.5 L804.2622,352.5 L803.4985,349.437 L800.2197,349.437 L799.4727,352.5 L797.0239,352.5 Z " fill="#000000"/><text fill="#000000" font-family="sans-serif" font-size="14" font-style="italic" lengthAdjust="spacing" textLength="69" x="816" y="352.291">ByteString</text><line style="stroke:#181818;stroke-width:0.5;" x1="788" x2="887" y1="363" y2="363"/><line style="stroke:#181818;stroke-width:0.5;" x1="788" x2="887" y1="371" y2="371"/></g><!--class Set--><g id="elem_Set"><rect codeLine="32" fill="#F1F1F1" height="48" id="Set" rx="2.5" ry="2.5" style="stroke:#181818;stroke-width:0.5;" width="53" x="348" y="223"/><ellipse cx="363" cy="239" fill="#A9DCDF" rx="11" ry="11" style="stroke:#181818;stroke-width:1.0;"/><path d="M362.8633,234.3481 L361.7095,239.4199 L364.0254,239.4199 Z M361.3691,232.1069 L364.3657,232.1069 L367.7109,244.5 L365.2622,244.5 L364.4985,241.437 L361.2197,241.437 L360.4727,244.5 L358.0239,244.5 Z " fill="#000000"/><text fill="#000000" font-family="sans-serif" font-size="14" font-style="italic" lengthAdjust="spacing" textLength="21" x="377" y="244.291">Set</text><line style="stroke:#181818;stroke-width:0.5;" x1="349" x2="400" y1="255" y2="255"/><line style="stroke:#181818;stroke-width:0.5;" x1="349" x2="400" y1="263" y2="263"/></g><!--class MutableSet--><g id="elem_MutableSet"><rect codeLine="35" fill="#F1F1F1" height="48" id="MutableSet" rx="2.5" ry="2.5" style="stroke:#181818;stroke-width:0.5;" width="108" x="273.5" y="331"/><ellipse cx="288.5" cy="347" fill="#A9DCDF" rx="11" ry="11" style="stroke:#181818;stroke-width:1.0;"/><path d="M288.3633,342.3481 L287.2095,347.4199 L289.5254,347.4199 Z M286.8691,340.1069 L289.8657,340.1069 L293.2109,352.5 L290.7622,352.5 L289.9985,349.437 L286.7197,349.437 L285.9727,352.5 L283.5239,352.5 Z " fill="#000000"/><text fill="#000000" font-family="sans-serif" font-size="14" font-style="italic" lengthAdjust="spacing" textLength="76" x="302.5" y="352.291">MutableSet</text><line style="stroke:#181818;stroke-width:0.5;" x1="274.5" x2="380.5" y1="363" y2="363"/><line style="stroke:#181818;stroke-width:0.5;" x1="274.5" x2="380.5" y1="371" y2="371"/></g><!--class Mapping--><g id="elem_Mapping"><rect codeLine="38" fill="#F1F1F1" height="48" id="Mapping" rx="2.5" ry="2.5" style="stroke:#181818;stroke-width:0.5;" width="92" x="440.5" y="223"/><ellipse cx="455.5" cy="239" fill="#A9DCDF" rx="11" ry="11" style="stroke:#181818;stroke-width:1.0;"/><path d="M455.3633,234.3481 L454.2095,239.4199 L456.5254,239.4199 Z M453.8691,232.1069 L456.8657,232.1069 L460.2109,244.5 L457.7622,244.5 L456.9985,241.437 L453.7197,241.437 L452.9727,244.5 L450.5239,244.5 Z " fill="#000000"/><text fill="#000000" font-family="sans-serif" font-size="14" font-style="italic" lengthAdjust="spacing" textLength="60" x="469.5" y="244.291">Mapping</text><line style="stroke:#181818;stroke-width:0.5;" x1="441.5" x2="531.5" y1="255" y2="255"/><line style="stroke:#181818;stroke-width:0.5;" x1="441.5" x2="531.5" y1="263" y2="263"/></g><!--class MutableMapping--><g id="elem_MutableMapping"><rect codeLine="41" fill="#F1F1F1" height="48" id="MutableMapping" rx="2.5" ry="2.5" style="stroke:#181818;stroke-width:0.5;" width="147" x="417" y="331"/><ellipse cx="432" cy="347" fill="#A9DCDF" rx="11" ry="11" style="stroke:#181818;stroke-width:1.0;"/><path d="M431.8633,342.3481 L430.7095,347.4199 L433.0254,347.4199 Z M430.3691,340.1069 L433.3657,340.1069 L436.7109,352.5 L434.2622,352.5 L433.4985,349.437 L430.2197,349.437 L429.4727,352.5 L427.0239,352.5 Z " fill="#000000"/><text fill="#000000" font-family="sans-serif" font-size="14" font-style="italic" lengthAdjust="spacing" textLength="115" x="446" y="352.291">MutableMapping</text><line style="stroke:#181818;stroke-width:0.5;" x1="418" x2="563" y1="363" y2="363"/><line style="stroke:#181818;stroke-width:0.5;" x1="418" x2="563" y1="371" y2="371"/></g><!--class MappingView--><g id="elem_MappingView"><rect codeLine="44" fill="#F1F1F1" height="48" id="MappingView" rx="2.5" ry="2.5" style="stroke:#181818;stroke-width:0.5;" width="124" x="161.5" y="115"/><ellipse cx="176.5" cy="131" fill="#A9DCDF" rx="11" ry="11" style="stroke:#181818;stroke-width:1.0;"/><path d="M176.3633,126.3481 L175.2095,131.4199 L177.5254,131.4199 Z M174.8691,124.1069 L177.8657,124.1069 L181.2109,136.5 L178.7622,136.5 L177.9985,133.437 L174.7197,133.437 L173.9727,136.5 L171.5239,136.5 Z " fill="#000000"/><text fill="#000000" font-family="sans-serif" font-size="14" font-style="italic" lengthAdjust="spacing" textLength="92" x="190.5" y="136.291">MappingView</text><line style="stroke:#181818;stroke-width:0.5;" x1="162.5" x2="284.5" y1="147" y2="147"/><line style="stroke:#181818;stroke-width:0.5;" x1="162.5" x2="284.5" y1="155" y2="155"/></g><!--class ItemsView--><g id="elem_ItemsView"><rect codeLine="47" fill="#F1F1F1" height="48" id="ItemsView" rx="2.5" ry="2.5" style="stroke:#181818;stroke-width:0.5;" width="101" x="7" y="331"/><ellipse cx="22" cy="347" fill="#A9DCDF" rx="11" ry="11" style="stroke:#181818;stroke-width:1.0;"/><path d="M21.8633,342.3481 L20.7095,347.4199 L23.0254,347.4199 Z M20.3691,340.1069 L23.3657,340.1069 L26.7109,352.5 L24.2622,352.5 L23.4985,349.437 L20.2197,349.437 L19.4727,352.5 L17.0239,352.5 Z " fill="#000000"/><text fill="#000000" font-family="sans-serif" font-size="14" font-style="italic" lengthAdjust="spacing" textLength="69" x="36" y="352.291">ItemsView</text><line style="stroke:#181818;stroke-width:0.5;" x1="8" x2="107" y1="363" y2="363"/><line style="stroke:#181818;stroke-width:0.5;" x1="8" x2="107" y1="371" y2="371"/></g><!--class KeysView--><g id="elem_KeysView"><rect codeLine="50" fill="#F1F1F1" height="48" id="KeysView" rx="2.5" ry="2.5" style="stroke:#181818;stroke-width:0.5;" width="95" x="143" y="331"/><ellipse cx="158" cy="347" fill="#A9DCDF" rx="11" ry="11" style="stroke:#181818;stroke-width:1.0;"/><path d="M157.8633,342.3481 L156.7095,347.4199 L159.0254,347.4199 Z M156.3691,340.1069 L159.3657,340.1069 L162.7109,352.5 L160.2622,352.5 L159.4985,349.437 L156.2197,349.437 L155.4727,352.5 L153.0239,352.5 Z " fill="#000000"/><text fill="#000000" font-family="sans-serif" font-size="14" font-style="italic" lengthAdjust="spacing" textLength="63" x="172" y="352.291">KeysView</text><line style="stroke:#181818;stroke-width:0.5;" x1="144" x2="237" y1="363" y2="363"/><line style="stroke:#181818;stroke-width:0.5;" x1="144" x2="237" y1="371" y2="371"/></g><!--class ValuesView--><g id="elem_ValuesView"><rect codeLine="53" fill="#F1F1F1" height="48" id="ValuesView" rx="2.5" ry="2.5" style="stroke:#181818;stroke-width:0.5;" width="109" x="204" y="223"/><ellipse cx="219" cy="239" fill="#A9DCDF" rx="11" ry="11" style="stroke:#181818;stroke-width:1.0;"/><path d="M218.8633,234.3481 L217.7095,239.4199 L220.0254,239.4199 Z M217.3691,232.1069 L220.3657,232.1069 L223.7109,244.5 L221.2622,244.5 L220.4985,241.437 L217.2197,241.437 L216.4727,244.5 L214.0239,244.5 Z " fill="#000000"/><text fill="#000000" font-family="sans-serif" font-size="14" font-style="italic" lengthAdjust="spacing" textLength="77" x="233" y="244.291">ValuesView</text><line style="stroke:#181818;stroke-width:0.5;" x1="205" x2="312" y1="255" y2="255"/><line style="stroke:#181818;stroke-width:0.5;" x1="205" x2="312" y1="263" y2="263"/></g><!--class Hashable--><g id="elem_Hashable"><rect codeLine="93" fill="#F1F1F1" height="48" id="Hashable" rx="2.5" ry="2.5" style="stroke:#181818;stroke-width:0.5;" width="95" x="723" y="7"/><ellipse cx="738" cy="23" fill="#A9DCDF" rx="11" ry="11" style="stroke:#181818;stroke-width:1.0;"/><path d="M737.8633,18.3481 L736.7095,23.4199 L739.0254,23.4199 Z M736.3691,16.1069 L739.3657,16.1069 L742.7109,28.5 L740.2622,28.5 L739.4985,25.437 L736.2197,25.437 L735.4727,28.5 L733.0239,28.5 Z " fill="#000000"/><text fill="#000000" font-family="sans-serif" font-size="14" font-style="italic" lengthAdjust="spacing" textLength="63" x="752" y="28.291">Hashable</text><line style="stroke:#181818;stroke-width:0.5;" x1="724" x2="817" y1="39" y2="39"/><line style="stroke:#181818;stroke-width:0.5;" x1="724" x2="817" y1="47" y2="47"/></g><!--class Callable--><g id="elem_Callable"><rect codeLine="97" fill="#F1F1F1" height="48" id="Callable" rx="2.5" ry="2.5" style="stroke:#181818;stroke-width:0.5;" width="87" x="853" y="7"/><ellipse cx="868" cy="23" fill="#A9DCDF" rx="11" ry="11" style="stroke:#181818;stroke-width:1.0;"/><path d="M867.8633,18.3481 L866.7095,23.4199 L869.0254,23.4199 Z M866.3691,16.1069 L869.3657,16.1069 L872.7109,28.5 L870.2622,28.5 L869.4985,25.437 L866.2197,25.437 L865.4727,28.5 L863.0239,28.5 Z " fill="#000000"/><text fill="#000000" font-family="sans-serif" font-size="14" font-style="italic" lengthAdjust="spacing" textLength="55" x="882" y="28.291">Callable</text><line style="stroke:#181818;stroke-width:0.5;" x1="854" x2="939" y1="39" y2="39"/><line style="stroke:#181818;stroke-width:0.5;" x1="854" x2="939" y1="47" y2="47"/></g><!--reverse link Iterable to Iterator--><g id="link_Iterable_Iterator"><path codeLine="56" d="M690.73,68.6 C709.66,83.92 731.11,101.27 747.82,114.79 " fill="none" id="Iterable-backto-Iterator" style="stroke:#181818;stroke-width:1.0;"/><polygon fill="none" points="686.57,74.24,675.43,56.21,695.38,63.35,686.57,74.24" style="stroke:#181818;stroke-width:1.0;"/></g><!--reverse link Iterable to Reversible--><g id="link_Iterable_Reversible"><path codeLine="58" d="M645.5,76.72 C645.5,89.82 645.5,103.62 645.5,114.79 " fill="none" id="Iterable-backto-Reversible" style="stroke:#181818;stroke-width:1.0;"/><polygon fill="none" points="638.5,76.78,645.5,56.78,652.5,76.78,638.5,76.78" style="stroke:#181818;stroke-width:1.0;"/></g><!--reverse link Iterator to Generator--><g id="link_Iterator_Generator"><path codeLine="60" d="M778.19,184.72 C778.68,197.82 779.2,211.62 779.62,222.79 " fill="none" id="Iterator-backto-Generator" style="stroke:#181818;stroke-width:1.0;"/><polygon fill="none" points="771.19,185.02,777.43,164.77,785.18,184.5,771.19,185.02" style="stroke:#181818;stroke-width:1.0;"/></g><!--reverse link Sized to Collection--><g id="link_Sized_Collection"><path codeLine="62" d="M321.76,68.6 C341.13,83.92 363.07,101.27 380.16,114.79 " fill="none" id="Sized-backto-Collection" style="stroke:#181818;stroke-width:1.0;"/><polygon fill="none" points="317.44,74.1,306.09,56.2,326.12,63.12,317.44,74.1" style="stroke:#181818;stroke-width:1.0;"/></g><!--reverse link Iterable to Collection--><g id="link_Iterable_Collection"><path codeLine="63" d="M583.46,59.87 C545.04,77.12 496.34,99 460.24,115.21 " fill="none" id="Iterable-backto-Collection" style="stroke:#181818;stroke-width:1.0;"/><polygon fill="none" points="580.54,53.5,601.65,51.69,586.28,66.27,580.54,53.5" style="stroke:#181818;stroke-width:1.0;"/></g><!--reverse link Container to Collection--><g id="link_Container_Collection"><path codeLine="64" d="M409.5,76.72 C409.5,89.82 409.5,103.62 409.5,114.79 " fill="none" id="Container-backto-Collection" style="stroke:#181818;stroke-width:1.0;"/><polygon fill="none" points="402.5,76.78,409.5,56.78,416.5,76.78,402.5,76.78" style="stroke:#181818;stroke-width:1.0;"/></g><!--reverse link Reversible to Sequence--><g id="link_Reversible_Sequence"><path codeLine="66" d="M645.5,184.72 C645.5,197.82 645.5,211.62 645.5,222.79 " fill="none" id="Reversible-backto-Sequence" style="stroke:#181818;stroke-width:1.0;"/><polygon fill="none" points="638.5,184.78,645.5,164.78,652.5,184.78,638.5,184.78" style="stroke:#181818;stroke-width:1.0;"/></g><!--reverse link Collection to Sequence--><g id="link_Collection_Sequence"><path codeLine="67" d="M479.78,171.57 C517.3,188.42 562.56,208.75 596.29,223.9 " fill="none" id="Collection-backto-Sequence" style="stroke:#181818;stroke-width:1.0;"/><polygon fill="none" points="477.17,178.07,461.8,163.49,482.91,165.3,477.17,178.07" style="stroke:#181818;stroke-width:1.0;"/></g><!--reverse link Sequence to MutableSequence--><g id="link_Sequence_MutableSequence"><path codeLine="69" d="M657.88,291.75 C661.67,305.14 665.69,319.34 668.93,330.79 " fill="none" id="Sequence-backto-MutableSequence" style="stroke:#181818;stroke-width:1.0;"/><polygon fill="none" points="651.21,293.87,652.5,272.72,664.68,290.06,651.21,293.87" style="stroke:#181818;stroke-width:1.0;"/></g><!--reverse link Sequence to ByteString--><g id="link_Sequence_ByteString"><path codeLine="71" d="M706.25,281.54 C735.17,297.5 769.04,316.2 795.13,330.61 " fill="none" id="Sequence-backto-ByteString" style="stroke:#181818;stroke-width:1.0;"/><polygon fill="none" points="703.09,287.79,688.96,271.99,709.85,275.53,703.09,287.79" style="stroke:#181818;stroke-width:1.0;"/></g><!--reverse link Collection to Set--><g id="link_Collection_Set"><path codeLine="73" d="M395.21,183.27 C390.75,196.8 385.99,211.2 382.16,222.79 " fill="none" id="Collection-backto-Set" style="stroke:#181818;stroke-width:1.0;"/><polygon fill="none" points="388.43,181.5,401.34,164.7,401.72,185.89,388.43,181.5" style="stroke:#181818;stroke-width:1.0;"/></g><!--reverse link Set to MutableSet--><g id="link_Set_MutableSet"><path codeLine="75" d="M355.53,290.79 C349.47,304.45 342.99,319.06 337.79,330.79 " fill="none" id="Set-backto-MutableSet" style="stroke:#181818;stroke-width:1.0;"/><polygon fill="none" points="349.07,288.09,363.57,272.65,361.86,293.77,349.07,288.09" style="stroke:#181818;stroke-width:1.0;"/></g><!--reverse link Collection to Mapping--><g id="link_Collection_Mapping"><path codeLine="77" d="M438.84,180.39 C449.25,194.73 460.62,210.37 469.64,222.79 " fill="none" id="Collection-backto-Mapping" style="stroke:#181818;stroke-width:1.0;"/><polygon fill="none" points="433.38,184.78,427.29,164.49,444.71,176.55,433.38,184.78" style="stroke:#181818;stroke-width:1.0;"/></g><!--reverse link Mapping to MutableMapping--><g id="link_Mapping_MutableMapping"><path codeLine="79" d="M488.19,292.72 C488.68,305.82 489.2,319.62 489.62,330.79 " fill="none" id="Mapping-backto-MutableMapping" style="stroke:#181818;stroke-width:1.0;"/><polygon fill="none" points="481.19,293.02,487.43,272.77,495.18,292.5,481.19,293.02" style="stroke:#181818;stroke-width:1.0;"/></g><!--reverse link Sized to MappingView--><g id="link_Sized_MappingView"><path codeLine="81" d="M254.75,74.31 C247.97,88.11 240.71,102.93 234.89,114.79 " fill="none" id="Sized-backto-MappingView" style="stroke:#181818;stroke-width:1.0;"/><polygon fill="none" points="248.33,71.49,263.42,56.62,260.9,77.66,248.33,71.49" style="stroke:#181818;stroke-width:1.0;"/></g><!--reverse link MappingView to ItemsView--><g id="link_MappingView_ItemsView"><path codeLine="83" d="M192.44,180.04 C158,224.44 103.61,294.56 75.56,330.72 " fill="none" id="MappingView-backto-ItemsView" style="stroke:#181818;stroke-width:1.0;"/><polygon fill="none" points="186.7,176.02,204.49,164.51,197.76,184.6,186.7,176.02" style="stroke:#181818;stroke-width:1.0;"/></g><!--reverse link Set to ItemsView--><g id="link_Set_ItemsView"><path codeLine="84" d="M328.18,270.92 C238.72,306.1 210.12,304.32 125.5,331 C119.91,332.76 114.09,334.65 108.3,336.56 " fill="none" id="Set-backto-ItemsView" style="stroke:#181818;stroke-width:1.0;"/><polygon fill="none" points="325.33,264.52,346.5,263.54,330.57,277.51,325.33,264.52" style="stroke:#181818;stroke-width:1.0;"/></g><!--reverse link MappingView to KeysView--><g id="link_MappingView_KeysView"><path codeLine="86" d="M200.51,182.42 C194.77,195.1 189.42,209.29 186.5,223 C178.64,259.94 182.65,304.06 186.45,330.51 " fill="none" id="MappingView-backto-KeysView" style="stroke:#181818;stroke-width:1.0;"/><polygon fill="none" points="194.08,179.63,209.2,164.78,206.63,185.82,194.08,179.63" style="stroke:#181818;stroke-width:1.0;"/></g><!--reverse link Set to KeysView--><g id="link_Set_KeysView"><path codeLine="87" d="M329.53,273.91 C299.5,291.21 260.33,313.77 231.22,330.54 " fill="none" id="Set-backto-KeysView" style="stroke:#181818;stroke-width:1.0;"/><polygon fill="none" points="325.61,268.09,346.43,264.17,332.6,280.22,325.61,268.09" style="stroke:#181818;stroke-width:1.0;"/></g><!--reverse link MappingView to ValuesView--><g id="link_MappingView_ValuesView"><path codeLine="89" d="M237.79,183.27 C242.25,196.8 247.01,211.2 250.84,222.79 " fill="none" id="MappingView-backto-ValuesView" style="stroke:#181818;stroke-width:1.0;"/><polygon fill="none" points="231.28,185.89,231.66,164.7,244.57,181.5,231.28,185.89" style="stroke:#181818;stroke-width:1.0;"/></g><!--reverse link Collection to ValuesView--><g id="link_Collection_ValuesView"><path codeLine="90" d="M358.77,175.62 C336.7,191.11 311.46,208.82 291.82,222.61 " fill="none" id="Collection-backto-ValuesView" style="stroke:#181818;stroke-width:1.0;"/><polygon fill="none" points="354.73,169.89,375.12,164.13,362.78,181.35,354.73,169.89" style="stroke:#181818;stroke-width:1.0;"/></g><!--SRC=[VPH1RiCW44NtSmfV85Ve8bcqLPLD8sK_SKSj4iKfZ5kbJUxUs4Q0WM49R_uOU60yERROSzThTAxR3OPH6RBT7zm0S4sVcIoUDCcGXthobRx9EYLb7yaqmWVrIszLiXkqffxLOEf1-Xh9zFLlxaUUzjAisLwO3coLUHVwSxkrWF5ybbhwQBDaOKT5FvA8JoVI5xh8y8Xwf0G7fvjnStq8_W4IdpcABXDo7m8ajXOqYosdGw-2XEi94Bmj92ue9x49GExSByCF0HBVEPfaDXfo2F1zrjiJwzS5VXHoy_cd9mHHwIenpHHiNa6mNDPdQ2vFl9U10gORoc_G4xeF_ukelLVKEj9_]--></g></svg>