<?xml version="1.0" encoding="us-ascii" standalone="no"?><svg xmlns="http://www.w3.org/2000/svg" xmlns:xlink="http://www.w3.org/1999/xlink" contentStyleType="text/css" height="288px" preserveAspectRatio="none" style="width:435px;height:288px;background:#FFFFFF;" version="1.1" viewBox="0 0 435 288" width="435px" zoomAndPan="magnify"><defs/><g><!--class Sequence--><g id="elem_Sequence"><rect codeLine="3" fill="#F1F1F1" height="163.418" id="Sequence" rx="2.5" ry="2.5" style="stroke:#181818;stroke-width:0.5;" width="99" x="329" y="15.5"/><ellipse cx="344.45" cy="31.5" fill="#A9DCDF" rx="11" ry="11" style="stroke:#181818;stroke-width:1.0;"/><path d="M344.3133,26.8481 L343.1595,31.9199 L345.4754,31.9199 Z M342.8191,24.6069 L345.8157,24.6069 L349.1609,37 L346.7122,37 L345.9485,33.937 L342.6697,33.937 L341.9227,37 L339.4739,37 Z " fill="#000000"/><text fill="#000000" font-family="sans-serif" font-size="14" font-style="italic" lengthAdjust="spacing" textLength="66" x="358.55" y="36.791">Sequence</text><line style="stroke:#181818;stroke-width:0.5;" x1="330" x2="427" y1="47.5" y2="47.5"/><line style="stroke:#181818;stroke-width:0.5;" x1="330" x2="427" y1="55.5" y2="55.5"/><text fill="#8B0000" font-family="sans-serif" font-size="14" lengthAdjust="spacing" textLength="80" x="335" y="73.0352">__getitem__</text><text fill="#8B0000" font-family="sans-serif" font-size="14" lengthAdjust="spacing" textLength="49" x="335" y="89.5234">__len__</text><text fill="#00008B" font-family="sans-serif" font-size="14" lengthAdjust="spacing" textLength="86" x="335" y="106.0117">__contains__</text><text fill="#00008B" font-family="sans-serif" font-size="14" lengthAdjust="spacing" textLength="51" x="335" y="122.5">__iter__</text><text fill="#00008B" font-family="sans-serif" font-size="14" lengthAdjust="spacing" textLength="87" x="335" y="138.9883">__reversed__</text><text fill="#00008B" font-family="sans-serif" font-size="14" lengthAdjust="spacing" textLength="39" x="335" y="155.4766">index</text><text fill="#00008B" font-family="sans-serif" font-size="14" lengthAdjust="spacing" textLength="39" x="335" y="171.9648">count</text></g><!--class Reversible--><g id="elem_Reversible"><rect codeLine="13" fill="#F1F1F1" height="64.4883" id="Reversible" rx="2.5" ry="2.5" style="stroke:#181818;stroke-width:0.5;" width="102" x="167" y="7"/><ellipse cx="182" cy="23" fill="#A9DCDF" rx="11" ry="11" style="stroke:#181818;stroke-width:1.0;"/><path d="M181.8633,18.3481 L180.7095,23.4199 L183.0254,23.4199 Z M180.3691,16.1069 L183.3657,16.1069 L186.7109,28.5 L184.2622,28.5 L183.4985,25.437 L180.2197,25.437 L179.4727,28.5 L177.0239,28.5 Z " fill="#000000"/><text fill="#000000" font-family="sans-serif" font-size="14" font-style="italic" lengthAdjust="spacing" textLength="70" x="196" y="28.291">Reversible</text><line style="stroke:#181818;stroke-width:0.5;" x1="168" x2="268" y1="39" y2="39"/><line style="stroke:#181818;stroke-width:0.5;" x1="168" x2="268" y1="47" y2="47"/><text fill="#8B0000" font-family="sans-serif" font-size="14" lengthAdjust="spacing" textLength="87" x="173" y="64.5352">__reversed__</text></g><!--class Collection--><g id="elem_Collection"><rect codeLine="17" fill="#F1F1F1" height="97.4648" id="Collection" rx="2.5" ry="2.5" style="stroke:#181818;stroke-width:0.5;" width="101" x="167.5" y="106.5"/><ellipse cx="182.5" cy="122.5" fill="#A9DCDF" rx="11" ry="11" style="stroke:#181818;stroke-width:1.0;"/><path d="M182.3633,117.8481 L181.2095,122.9199 L183.5254,122.9199 Z M180.8691,115.6069 L183.8657,115.6069 L187.2109,128 L184.7622,128 L183.9985,124.937 L180.7197,124.937 L179.9727,128 L177.5239,128 Z " fill="#000000"/><text fill="#000000" font-family="sans-serif" font-size="14" font-style="italic" lengthAdjust="spacing" textLength="69" x="196.5" y="127.791">Collection</text><line style="stroke:#181818;stroke-width:0.5;" x1="168.5" x2="267.5" y1="138.5" y2="138.5"/><line style="stroke:#181818;stroke-width:0.5;" x1="168.5" x2="267.5" y1="146.5" y2="146.5"/><text fill="#8B0000" font-family="sans-serif" font-size="14" lengthAdjust="spacing" textLength="86" x="173.5" y="164.0352">__contains__</text><text fill="#8B0000" font-family="sans-serif" font-size="14" lengthAdjust="spacing" textLength="51" x="173.5" y="180.5234">__iter__</text><text fill="#8B0000" font-family="sans-serif" font-size="14" lengthAdjust="spacing" textLength="49" x="173.5" y="197.0117">__len__</text></g><!--class Sized--><g id="elem_Sized"><rect codeLine="23" fill="#F1F1F1" height="64.4883" id="Sized" rx="2.5" ry="2.5" style="stroke:#181818;stroke-width:0.5;" width="69" x="22.5" y="118"/><ellipse cx="37.5" cy="134" fill="#A9DCDF" rx="11" ry="11" style="stroke:#181818;stroke-width:1.0;"/><path d="M37.3633,129.3481 L36.2095,134.4199 L38.5254,134.4199 Z M35.8691,127.1069 L38.8657,127.1069 L42.2109,139.5 L39.7622,139.5 L38.9985,136.437 L35.7197,136.437 L34.9727,139.5 L32.5239,139.5 Z " fill="#000000"/><text fill="#000000" font-family="sans-serif" font-size="14" font-style="italic" lengthAdjust="spacing" textLength="37" x="51.5" y="139.291">Sized</text><line style="stroke:#181818;stroke-width:0.5;" x1="23.5" x2="90.5" y1="150" y2="150"/><line style="stroke:#181818;stroke-width:0.5;" x1="23.5" x2="90.5" y1="158" y2="158"/><text fill="#8B0000" font-family="sans-serif" font-size="14" lengthAdjust="spacing" textLength="49" x="28.5" y="175.5352">__len__</text></g><!--class Iterable--><g id="elem_Iterable"><rect codeLine="27" fill="#F1F1F1" height="64.4883" id="Iterable" rx="2.5" ry="2.5" style="stroke:#181818;stroke-width:0.5;" width="84" x="15" y="11"/><ellipse cx="30" cy="27" fill="#A9DCDF" rx="11" ry="11" style="stroke:#181818;stroke-width:1.0;"/><path d="M29.8633,22.3481 L28.7095,27.4199 L31.0254,27.4199 Z M28.3691,20.1069 L31.3657,20.1069 L34.7109,32.5 L32.2622,32.5 L31.4985,29.437 L28.2197,29.437 L27.4727,32.5 L25.0239,32.5 Z " fill="#000000"/><text fill="#000000" font-family="sans-serif" font-size="14" font-style="italic" lengthAdjust="spacing" textLength="52" x="44" y="32.291">Iterable</text><line style="stroke:#181818;stroke-width:0.5;" x1="16" x2="98" y1="43" y2="43"/><line style="stroke:#181818;stroke-width:0.5;" x1="16" x2="98" y1="51" y2="51"/><text fill="#8B0000" font-family="sans-serif" font-size="14" lengthAdjust="spacing" textLength="51" x="21" y="68.5352">__iter__</text></g><!--class Container--><g id="elem_Container"><rect codeLine="31" fill="#F1F1F1" height="64.4883" id="Container" rx="2.5" ry="2.5" style="stroke:#181818;stroke-width:0.5;" width="100" x="7" y="217"/><ellipse cx="22" cy="233" fill="#A9DCDF" rx="11" ry="11" style="stroke:#181818;stroke-width:1.0;"/><path d="M21.8633,228.3481 L20.7095,233.4199 L23.0254,233.4199 Z M20.3691,226.1069 L23.3657,226.1069 L26.7109,238.5 L24.2622,238.5 L23.4985,235.437 L20.2197,235.437 L19.4727,238.5 L17.0239,238.5 Z " fill="#000000"/><text fill="#000000" font-family="sans-serif" font-size="14" font-style="italic" lengthAdjust="spacing" textLength="68" x="36" y="238.291">Container</text><line style="stroke:#181818;stroke-width:0.5;" x1="8" x2="106" y1="249" y2="249"/><line style="stroke:#181818;stroke-width:0.5;" x1="8" x2="106" y1="257" y2="257"/><text fill="#8B0000" font-family="sans-serif" font-size="14" lengthAdjust="spacing" textLength="86" x="13" y="274.5352">__contains__</text></g><!--reverse link Collection to Sequence--><g id="link_Collection_Sequence"><path codeLine="35" d="M288.63,129.52 C302.07,124.6 315.89,119.55 328.5,114.93 " fill="none" id="Collection-backto-Sequence" style="stroke:#181818;stroke-width:1.0;"/><polygon fill="none" points="291.32,135.99,270.14,136.29,286.51,122.84,291.32,135.99" style="stroke:#181818;stroke-width:1.0;"/></g><!--reverse link Reversible to Sequence--><g id="link_Reversible_Sequence"><path codeLine="36" d="M289.02,64.62 C302.43,69.53 316.2,74.57 328.76,79.16 " fill="none" id="Reversible-backto-Sequence" style="stroke:#181818;stroke-width:1.0;"/><polygon fill="none" points="286.95,71.32,270.57,57.87,291.76,58.17,286.95,71.32" style="stroke:#181818;stroke-width:1.0;"/></g><!--reverse link Iterable to Reversible--><g id="link_Iterable_Reversible"><path codeLine="37" d="M120.82,41.42 C136.07,41.04 152.19,40.63 166.77,40.26 " fill="none" id="Iterable-backto-Reversible" style="stroke:#181818;stroke-width:1.0;"/><polygon fill="none" points="121.04,48.42,100.87,41.92,120.69,34.42,121.04,48.42" style="stroke:#181818;stroke-width:1.0;"/></g><!--reverse link Sized to Collection--><g id="link_Sized_Collection"><path codeLine="38" d="M113.06,151.73 C130.58,152.28 149.87,152.89 167.02,153.43 " fill="none" id="Sized-backto-Collection" style="stroke:#181818;stroke-width:1.0;"/><polygon fill="none" points="113,158.73,93.23,151.11,113.44,144.74,113,158.73" style="stroke:#181818;stroke-width:1.0;"/></g><!--reverse link Iterable to Collection--><g id="link_Iterable_Collection"><path codeLine="39" d="M116.93,84.51 C133.41,96.12 151.16,108.62 167.06,119.82 " fill="none" id="Iterable-backto-Collection" style="stroke:#181818;stroke-width:1.0;"/><polygon fill="none" points="112.92,90.25,100.6,73.01,120.98,78.8,112.92,90.25" style="stroke:#181818;stroke-width:1.0;"/></g><!--reverse link Container to Collection--><g id="link_Container_Collection"><path codeLine="40" d="M125.84,208.9 C139.67,200.72 153.98,192.26 167.05,184.53 " fill="none" id="Container-backto-Collection" style="stroke:#181818;stroke-width:1.0;"/><polygon fill="none" points="129.52,214.85,108.74,219,122.39,202.8,129.52,214.85" style="stroke:#181818;stroke-width:1.0;"/></g><!--SRC=[dPDDRiCW48Ntd88BHEswiYprPvDjSW24OPgWO6Y6SLKrJSzUYYNRTIo1otBcpUFf6mWduzuaofOhAqDu94BJT0HRvTtUV0A_PnPUYPFdQ0v7ujeWA3BUCTa4Ggced-HxE7VW5F0Bu_5SMg2ZrrTUAMyzFhn8FEr0rq8SW0n1AqHrbrfrHc_15MYVR0Vrjn0nDqdZmegHc0PNo17U0GFeqX7ZD7oKIPNl70tIAviptgMhJMFpb1TItlezUslxRMRzLd3j1mgfBktuDkZlKzJPZ3cNROmaI-3DiY-1IpG0_yCjsat0Lr-RpV1vs6J3Vnj3zbGUPQn7awgZwqm-QOp9vvqV]--></g></svg>