<?xml version="1.0" encoding="us-ascii" standalone="no"?><svg xmlns="http://www.w3.org/2000/svg" xmlns:xlink="http://www.w3.org/1999/xlink" contentStyleType="text/css" height="834px" preserveAspectRatio="none" style="width:259px;height:834px;background:#FFFFFF;" version="1.1" viewBox="0 0 259 834" width="259px" zoomAndPan="magnify"><defs/><g><ellipse cx="117" cy="20" fill="#222222" rx="10" ry="10" style="stroke:#222222;stroke-width:1.0;"/><rect fill="#F1F1F1" height="34.1328" rx="12.5" ry="12.5" style="stroke:#181818;stroke-width:0.5;" width="91" x="71.5" y="50"/><text fill="#000000" font-family="sans-serif" font-size="12" lengthAdjust="spacing" textLength="32" x="81.5" y="71.6016">Given</text><text fill="#000000" font-family="monospace" font-size="12" lengthAdjust="spacing" textLength="35" x="117.5" y="71.3027">a&#160;+&#160;b</text><rect fill="#F1F1F1" height="34.1328" rx="12.5" ry="12.5" style="stroke:#181818;stroke-width:0.5;" width="205" x="14.5" y="152.6104"/><text fill="#000000" font-family="sans-serif" font-size="12" lengthAdjust="spacing" textLength="20" x="24.5" y="174.2119">Get</text><text fill="#000000" font-family="monospace" font-size="12" lengthAdjust="spacing" textLength="42" x="48.5" y="173.9131">result</text><text fill="#000000" font-family="sans-serif" font-size="12" lengthAdjust="spacing" textLength="27" x="94.5" y="174.2119">from</text><text fill="#000000" font-family="monospace" font-size="12" lengthAdjust="spacing" textLength="84" x="125.5" y="173.9131">a.__add__(b)</text><rect fill="#98FB98" height="34.1328" rx="12.5" ry="12.5" style="stroke:#181818;stroke-width:0.5;" width="101" x="66.5" y="255.2207"/><text fill="#000000" font-family="sans-serif" font-size="12" lengthAdjust="spacing" textLength="35" x="76.5" y="276.8223">return</text><text fill="#000000" font-family="monospace" font-size="12" lengthAdjust="spacing" textLength="42" x="115.5" y="276.5234">result</text><ellipse cx="117" cy="328.7871" fill="none" rx="11" ry="11" style="stroke:#222222;stroke-width:1.0;"/><ellipse cx="117" cy="328.7871" fill="#222222" rx="6" ry="6" style="stroke:#111111;stroke-width:1.0;"/><polygon fill="#F1F1F1" points="37,206.7432,197,206.7432,209,218.7432,197,230.7432,37,230.7432,25,218.7432,37,206.7432" style="stroke:#181818;stroke-width:0.5;"/><text fill="#000000" font-family="sans-serif" font-size="11" lengthAdjust="spacing" textLength="15" x="121" y="241.3779">No</text><text fill="#000000" font-family="monospace" font-size="11" lengthAdjust="spacing" textLength="42" x="37" y="222.6265">result</text><text fill="#000000" font-family="sans-serif" font-size="11" lengthAdjust="spacing" textLength="9" x="82" y="222.9004">is</text><text fill="#000000" font-family="monospace" font-size="11" lengthAdjust="spacing" textLength="98" x="94" y="222.6265">NotImplemented</text><text fill="#000000" font-family="sans-serif" font-size="11" lengthAdjust="spacing" textLength="5" x="192" y="222.9004">?</text><text fill="#000000" font-family="sans-serif" font-size="11" lengthAdjust="spacing" textLength="19" x="209" y="216.4229">Yes</text><polygon fill="#F1F1F1" points="74,104.1328,160,104.1328,172,116.1328,160,128.1328,74,128.1328,62,116.1328,74,104.1328" style="stroke:#181818;stroke-width:0.5;"/><text fill="#000000" font-family="sans-serif" font-size="11" lengthAdjust="spacing" textLength="19" x="121" y="138.7676">Yes</text><text fill="#000000" font-family="monospace" font-size="11" lengthAdjust="spacing" textLength="7" x="74" y="120.0161">a</text><text fill="#000000" font-family="sans-serif" font-size="11" lengthAdjust="spacing" textLength="19" x="84" y="120.29">has</text><text fill="#000000" font-family="monospace" font-size="11" lengthAdjust="spacing" textLength="49" x="106" y="120.0161">__add__</text><text fill="#000000" font-family="sans-serif" font-size="11" lengthAdjust="spacing" textLength="5" x="155" y="120.29">?</text><text fill="#000000" font-family="sans-serif" font-size="11" lengthAdjust="spacing" textLength="15" x="172" y="113.8125">No</text><polygon fill="#F1F1F1" points="117,381.7871,129,393.7871,117,405.7871,105,393.7871,117,381.7871" style="stroke:#181818;stroke-width:0.5;"/><rect fill="#F1F1F1" height="34.1328" rx="12.5" ry="12.5" style="stroke:#181818;stroke-width:0.5;" width="212" x="11" y="474.2646"/><text fill="#000000" font-family="sans-serif" font-size="12" lengthAdjust="spacing" textLength="20" x="21" y="495.8662">Get</text><text fill="#000000" font-family="monospace" font-size="12" lengthAdjust="spacing" textLength="42" x="45" y="495.5674">result</text><text fill="#000000" font-family="sans-serif" font-size="12" lengthAdjust="spacing" textLength="27" x="91" y="495.8662">from</text><text fill="#000000" font-family="monospace" font-size="12" lengthAdjust="spacing" textLength="91" x="122" y="495.5674">b.__radd__(a)</text><rect fill="#98FB98" height="34.1328" rx="12.5" ry="12.5" style="stroke:#181818;stroke-width:0.5;" width="101" x="66.5" y="576.875"/><text fill="#000000" font-family="sans-serif" font-size="12" lengthAdjust="spacing" textLength="35" x="76.5" y="598.4766">return</text><text fill="#000000" font-family="monospace" font-size="12" lengthAdjust="spacing" textLength="42" x="115.5" y="598.1777">result</text><ellipse cx="117" cy="650.4414" fill="none" rx="11" ry="11" style="stroke:#222222;stroke-width:1.0;"/><ellipse cx="117" cy="650.4414" fill="#222222" rx="6" ry="6" style="stroke:#111111;stroke-width:1.0;"/><polygon fill="#F1F1F1" points="37,528.3975,197,528.3975,209,540.3975,197,552.3975,37,552.3975,25,540.3975,37,528.3975" style="stroke:#181818;stroke-width:0.5;"/><text fill="#000000" font-family="sans-serif" font-size="11" lengthAdjust="spacing" textLength="15" x="121" y="563.0322">No</text><text fill="#000000" font-family="monospace" font-size="11" lengthAdjust="spacing" textLength="42" x="37" y="544.2808">result</text><text fill="#000000" font-family="sans-serif" font-size="11" lengthAdjust="spacing" textLength="9" x="82" y="544.5547">is</text><text fill="#000000" font-family="monospace" font-size="11" lengthAdjust="spacing" textLength="98" x="94" y="544.2808">NotImplemented</text><text fill="#000000" font-family="sans-serif" font-size="11" lengthAdjust="spacing" textLength="5" x="192" y="544.5547">?</text><text fill="#000000" font-family="sans-serif" font-size="11" lengthAdjust="spacing" textLength="19" x="209" y="538.0771">Yes</text><polygon fill="#F1F1F1" points="70.5,425.7871,163.5,425.7871,175.5,437.7871,163.5,449.7871,70.5,449.7871,58.5,437.7871,70.5,425.7871" style="stroke:#181818;stroke-width:0.5;"/><text fill="#000000" font-family="sans-serif" font-size="11" lengthAdjust="spacing" textLength="19" x="121" y="460.4219">Yes</text><text fill="#000000" font-family="monospace" font-size="11" lengthAdjust="spacing" textLength="7" x="70.5" y="441.6704">b</text><text fill="#000000" font-family="sans-serif" font-size="11" lengthAdjust="spacing" textLength="19" x="80.5" y="441.9443">has</text><text fill="#000000" font-family="monospace" font-size="11" lengthAdjust="spacing" textLength="56" x="102.5" y="441.6704">__radd__</text><text fill="#000000" font-family="sans-serif" font-size="11" lengthAdjust="spacing" textLength="5" x="158.5" y="441.9443">?</text><text fill="#000000" font-family="sans-serif" font-size="11" lengthAdjust="spacing" textLength="15" x="175.5" y="435.4668">No</text><polygon fill="#F1F1F1" points="117,703.4414,129,715.4414,117,727.4414,105,715.4414,117,703.4414" style="stroke:#181818;stroke-width:0.5;"/><rect fill="#FFC0CB" height="34.1328" rx="12.5" ry="12.5" style="stroke:#181818;stroke-width:0.5;" width="115" x="59.5" y="747.4414"/><text fill="#000000" font-family="sans-serif" font-size="12" lengthAdjust="spacing" textLength="28" x="69.5" y="769.043">raise</text><text fill="#000000" font-family="monospace" font-size="12" lengthAdjust="spacing" textLength="63" x="101.5" y="768.7441">TypeError</text><ellipse cx="117" cy="812.5742" fill="none" rx="11" ry="11" style="stroke:#222222;stroke-width:1.0;"/><ellipse cx="117" cy="812.5742" fill="#222222" rx="6" ry="6" style="stroke:#111111;stroke-width:1.0;"/><line style="stroke:#181818;stroke-width:1.0;" x1="117" x2="117" y1="30" y2="50"/><polygon fill="#181818" points="113,40,117,50,121,40,117,44" style="stroke:#181818;stroke-width:1.0;"/><line style="stroke:#181818;stroke-width:1.0;" x1="117" x2="117" y1="289.3535" y2="317.7871"/><polygon fill="#181818" points="113,307.7871,117,317.7871,121,307.7871,117,311.7871" style="stroke:#181818;stroke-width:1.0;"/><line style="stroke:#181818;stroke-width:1.0;" x1="117" x2="117" y1="230.7432" y2="255.2207"/><polygon fill="#181818" points="113,245.2207,117,255.2207,121,245.2207,117,249.2207" style="stroke:#181818;stroke-width:1.0;"/><line style="stroke:#181818;stroke-width:1.0;" x1="209" x2="221" y1="218.7432" y2="218.7432"/><polygon fill="#181818" points="217,287.7871,221,297.7871,225,287.7871,221,291.7871" style="stroke:#181818;stroke-width:1.0;"/><line style="stroke:#181818;stroke-width:1.0;" x1="221" x2="221" y1="218.7432" y2="361.7871"/><line style="stroke:#181818;stroke-width:1.0;" x1="221" x2="117" y1="361.7871" y2="361.7871"/><line style="stroke:#181818;stroke-width:1.0;" x1="117" x2="117" y1="361.7871" y2="381.7871"/><polygon fill="#181818" points="113,371.7871,117,381.7871,121,371.7871,117,375.7871" style="stroke:#181818;stroke-width:1.0;"/><line style="stroke:#181818;stroke-width:1.0;" x1="117" x2="117" y1="186.7432" y2="206.7432"/><polygon fill="#181818" points="113,196.7432,117,206.7432,121,196.7432,117,200.7432" style="stroke:#181818;stroke-width:1.0;"/><line style="stroke:#181818;stroke-width:1.0;" x1="117" x2="117" y1="128.1328" y2="152.6104"/><polygon fill="#181818" points="113,142.6104,117,152.6104,121,142.6104,117,146.6104" style="stroke:#181818;stroke-width:1.0;"/><line style="stroke:#181818;stroke-width:1.0;" x1="172" x2="231" y1="116.1328" y2="116.1328"/><polygon fill="#181818" points="227,247.2207,231,257.2207,235,247.2207,231,251.2207" style="stroke:#181818;stroke-width:1.0;"/><line style="stroke:#181818;stroke-width:1.0;" x1="231" x2="231" y1="116.1328" y2="393.7871"/><line style="stroke:#181818;stroke-width:1.0;" x1="231" x2="129" y1="393.7871" y2="393.7871"/><polygon fill="#181818" points="139,389.7871,129,393.7871,139,397.7871,135,393.7871" style="stroke:#181818;stroke-width:1.0;"/><line style="stroke:#181818;stroke-width:1.0;" x1="117" x2="117" y1="84.1328" y2="104.1328"/><polygon fill="#181818" points="113,94.1328,117,104.1328,121,94.1328,117,98.1328" style="stroke:#181818;stroke-width:1.0;"/><line style="stroke:#181818;stroke-width:1.0;" x1="117" x2="117" y1="611.0078" y2="639.4414"/><polygon fill="#181818" points="113,629.4414,117,639.4414,121,629.4414,117,633.4414" style="stroke:#181818;stroke-width:1.0;"/><line style="stroke:#181818;stroke-width:1.0;" x1="117" x2="117" y1="552.3975" y2="576.875"/><polygon fill="#181818" points="113,566.875,117,576.875,121,566.875,117,570.875" style="stroke:#181818;stroke-width:1.0;"/><line style="stroke:#181818;stroke-width:1.0;" x1="209" x2="221" y1="540.3975" y2="540.3975"/><polygon fill="#181818" points="217,609.4414,221,619.4414,225,609.4414,221,613.4414" style="stroke:#181818;stroke-width:1.0;"/><line style="stroke:#181818;stroke-width:1.0;" x1="221" x2="221" y1="540.3975" y2="683.4414"/><line style="stroke:#181818;stroke-width:1.0;" x1="221" x2="117" y1="683.4414" y2="683.4414"/><line style="stroke:#181818;stroke-width:1.0;" x1="117" x2="117" y1="683.4414" y2="703.4414"/><polygon fill="#181818" points="113,693.4414,117,703.4414,121,693.4414,117,697.4414" style="stroke:#181818;stroke-width:1.0;"/><line style="stroke:#181818;stroke-width:1.0;" x1="117" x2="117" y1="508.3975" y2="528.3975"/><polygon fill="#181818" points="113,518.3975,117,528.3975,121,518.3975,117,522.3975" style="stroke:#181818;stroke-width:1.0;"/><line style="stroke:#181818;stroke-width:1.0;" x1="117" x2="117" y1="449.7871" y2="474.2646"/><polygon fill="#181818" points="113,464.2646,117,474.2646,121,464.2646,117,468.2646" style="stroke:#181818;stroke-width:1.0;"/><line style="stroke:#181818;stroke-width:1.0;" x1="175.5" x2="233" y1="437.7871" y2="437.7871"/><polygon fill="#181818" points="229,568.875,233,578.875,237,568.875,233,572.875" style="stroke:#181818;stroke-width:1.0;"/><line style="stroke:#181818;stroke-width:1.0;" x1="233" x2="233" y1="437.7871" y2="715.4414"/><line style="stroke:#181818;stroke-width:1.0;" x1="233" x2="129" y1="715.4414" y2="715.4414"/><polygon fill="#181818" points="139,711.4414,129,715.4414,139,719.4414,135,715.4414" style="stroke:#181818;stroke-width:1.0;"/><line style="stroke:#181818;stroke-width:1.0;" x1="117" x2="117" y1="405.7871" y2="425.7871"/><polygon fill="#181818" points="113,415.7871,117,425.7871,121,415.7871,117,419.7871" style="stroke:#181818;stroke-width:1.0;"/><line style="stroke:#181818;stroke-width:1.0;" x1="117" x2="117" y1="727.4414" y2="747.4414"/><polygon fill="#181818" points="113,737.4414,117,747.4414,121,737.4414,117,741.4414" style="stroke:#181818;stroke-width:1.0;"/><line style="stroke:#181818;stroke-width:1.0;" x1="117" x2="117" y1="781.5742" y2="801.5742"/><polygon fill="#181818" points="113,791.5742,117,801.5742,121,791.5742,117,795.5742" style="stroke:#181818;stroke-width:1.0;"/><!--SRC=[pOyn3u8m48LtVaLpB2Kc_00Od0nnCGmkJaq9HsY4bbmF4nT_koqeONNpjdTzzxq-pveuAIhpG2i0j3Y81g1CJ2Taa02Yrpuyl9JIRQiKm34Jt0UplA7F4X6cg923XT3F0uUBZjmOMVdtI3PPP4Rlojsi9h8lZi_ZDE28bh7T9LpS6X0dhVM05I7QWf1dihl4SdDvTjCYSF2u-oBQrdJ9kepKLNzQDlkMz6lD9j-kfFxFdcbjxBqWRS8QuFgSy4JaA08Nq1i0]--></g></svg>