<?xml version="1.0" encoding="us-ascii" standalone="no"?><svg xmlns="http://www.w3.org/2000/svg" xmlns:xlink="http://www.w3.org/1999/xlink" contentStyleType="text/css" height="1251px" preserveAspectRatio="none" style="width:840px;height:1251px;background:#FFFFFF;" version="1.1" viewBox="0 0 840 1251" width="840px" zoomAndPan="magnify"><defs/><g><!--cluster django--><g id="cluster_django"><path d="M8.5,6 L58.5,6 A3.75,3.75 0 0 1 61,8.5 L68,28.4883 L830.5,28.4883 A2.5,2.5 0 0 1 833,30.9883 L833,1241.5 A2.5,2.5 0 0 1 830.5,1244 L8.5,1244 A2.5,2.5 0 0 1 6,1241.5 L6,8.5 A2.5,2.5 0 0 1 8.5,6 " fill="none" style="stroke:#000000;stroke-width:1.5;"/><line style="stroke:#000000;stroke-width:1.5;" x1="6" x2="68" y1="28.4883" y2="28.4883"/><text fill="#000000" font-family="sans-serif" font-size="14" font-weight="bold" lengthAdjust="spacing" textLength="49" x="10" y="21.5352">django</text></g><!--cluster views--><g id="cluster_views"><path d="M32.5,49 L74.5,49 A3.75,3.75 0 0 1 77,51.5 L84,71.4883 L806.5,71.4883 A2.5,2.5 0 0 1 809,73.9883 L809,1217.5 A2.5,2.5 0 0 1 806.5,1220 L32.5,1220 A2.5,2.5 0 0 1 30,1217.5 L30,51.5 A2.5,2.5 0 0 1 32.5,49 " fill="none" style="stroke:#000000;stroke-width:1.5;"/><line style="stroke:#000000;stroke-width:1.5;" x1="30" x2="84" y1="71.4883" y2="71.4883"/><text fill="#000000" font-family="sans-serif" font-size="14" font-weight="bold" lengthAdjust="spacing" textLength="41" x="34" y="64.5352">views</text></g><!--cluster generic--><g id="cluster_generic"><path d="M56.5,92 L109.5,92 A3.75,3.75 0 0 1 112,94.5 L119,114.4883 L782.5,114.4883 A2.5,2.5 0 0 1 785,116.9883 L785,1193.5 A2.5,2.5 0 0 1 782.5,1196 L56.5,1196 A2.5,2.5 0 0 1 54,1193.5 L54,94.5 A2.5,2.5 0 0 1 56.5,92 " fill="none" style="stroke:#000000;stroke-width:1.5;"/><line style="stroke:#000000;stroke-width:1.5;" x1="54" x2="119" y1="114.4883" y2="114.4883"/><text fill="#000000" font-family="sans-serif" font-size="14" font-weight="bold" lengthAdjust="spacing" textLength="52" x="58" y="107.5352">generic</text></g><!--cluster base--><g id="cluster_base"><path d="M80.5,636 L114.5,636 A3.75,3.75 0 0 1 117,638.5 L124,658.4883 L697.5,658.4883 A2.5,2.5 0 0 1 700,660.9883 L700,1169.5 A2.5,2.5 0 0 1 697.5,1172 L80.5,1172 A2.5,2.5 0 0 1 78,1169.5 L78,638.5 A2.5,2.5 0 0 1 80.5,636 " fill="none" style="stroke:#000000;stroke-width:1.5;"/><line style="stroke:#000000;stroke-width:1.5;" x1="78" x2="124" y1="658.4883" y2="658.4883"/><text fill="#000000" font-family="sans-serif" font-size="14" font-weight="bold" lengthAdjust="spacing" textLength="33" x="82" y="651.5352">base</text></g><!--cluster list--><g id="cluster_list"><path d="M80.5,200 L105.5,200 A3.75,3.75 0 0 1 108,202.5 L115,222.4883 L448.5,222.4883 A2.5,2.5 0 0 1 451,224.9883 L451,609.5 A2.5,2.5 0 0 1 448.5,612 L80.5,612 A2.5,2.5 0 0 1 78,609.5 L78,202.5 A2.5,2.5 0 0 1 80.5,200 " fill="none" style="stroke:#000000;stroke-width:1.5;"/><line style="stroke:#000000;stroke-width:1.5;" x1="78" x2="115" y1="222.4883" y2="222.4883"/><text fill="#000000" font-family="sans-serif" font-size="14" font-weight="bold" lengthAdjust="spacing" textLength="24" x="82" y="215.5352">list</text></g><!--class ListView--><g id="elem_ListView"><rect codeLine="83" fill="#F1F1F1" height="48" id="ListView" rx="2.5" ry="2.5" style="stroke:#181818;stroke-width:0.5;" width="87" x="342.5" y="127"/><ellipse cx="357.5" cy="143" fill="#ADD1B2" rx="11" ry="11" style="stroke:#181818;stroke-width:1.0;"/><path d="M359.9731,149.1431 Q359.3921,149.4419 358.7529,149.5913 Q358.1138,149.7407 357.4082,149.7407 Q354.9014,149.7407 353.5815,148.0889 Q352.2617,146.437 352.2617,143.3159 Q352.2617,140.1865 353.5815,138.5347 Q354.9014,136.8828 357.4082,136.8828 Q358.1138,136.8828 358.7612,137.0322 Q359.4087,137.1816 359.9731,137.4805 L359.9731,140.2031 Q359.3423,139.6221 358.7488,139.3523 Q358.1553,139.0825 357.5244,139.0825 Q356.1797,139.0825 355.4949,140.1492 Q354.8101,141.2158 354.8101,143.3159 Q354.8101,145.4077 355.4949,146.4744 Q356.1797,147.541 357.5244,147.541 Q358.1553,147.541 358.7488,147.2712 Q359.3423,147.0015 359.9731,146.4204 Z " fill="#000000"/><text fill="#000000" font-family="sans-serif" font-size="14" lengthAdjust="spacing" textLength="55" x="371.5" y="148.291">ListView</text><line style="stroke:#181818;stroke-width:0.5;" x1="343.5" x2="428.5" y1="159" y2="159"/><line style="stroke:#181818;stroke-width:0.5;" x1="343.5" x2="428.5" y1="167" y2="167"/></g><!--class MultipleObjectTemplateResponseMixin--><g id="elem_MultipleObjectTemplateResponseMixin"><rect codeLine="87" fill="#F1F1F1" height="64.4883" id="MultipleObjectTemplateResponseMixin" rx="2.5" ry="2.5" style="stroke:#181818;stroke-width:0.5;" width="299" x="469.5" y="383.5"/><ellipse cx="484.5" cy="399.5" fill="#ADD1B2" rx="11" ry="11" style="stroke:#181818;stroke-width:1.0;"/><path d="M486.9731,405.6431 Q486.3921,405.9419 485.7529,406.0913 Q485.1138,406.2407 484.4082,406.2407 Q481.9014,406.2407 480.5815,404.5889 Q479.2617,402.937 479.2617,399.8159 Q479.2617,396.6865 480.5815,395.0347 Q481.9014,393.3828 484.4082,393.3828 Q485.1138,393.3828 485.7612,393.5322 Q486.4087,393.6816 486.9731,393.9805 L486.9731,396.7031 Q486.3423,396.1221 485.7488,395.8523 Q485.1553,395.5825 484.5244,395.5825 Q483.1797,395.5825 482.4949,396.6492 Q481.8101,397.7158 481.8101,399.8159 Q481.8101,401.9077 482.4949,402.9744 Q483.1797,404.041 484.5244,404.041 Q485.1553,404.041 485.7488,403.7712 Q486.3423,403.5015 486.9731,402.9204 Z " fill="#000000"/><text fill="#000000" font-family="sans-serif" font-size="14" lengthAdjust="spacing" textLength="267" x="498.5" y="404.791">MultipleObjectTemplateResponseMixin</text><line style="stroke:#181818;stroke-width:0.5;" x1="470.5" x2="767.5" y1="415.5" y2="415.5"/><text fill="#000000" font-family="sans-serif" font-size="14" lengthAdjust="spacing" textLength="151" x="475.5" y="433.0352">template_name_suffix</text><line style="stroke:#181818;stroke-width:0.5;" x1="470.5" x2="767.5" y1="439.9883" y2="439.9883"/></g><!--class View--><g id="elem_View"><rect codeLine="4" fill="#F1F1F1" height="196.3945" id="View" rx="2.5" ry="2.5" style="stroke:#181818;stroke-width:0.5;" width="190" x="94" y="671"/><ellipse cx="168.75" cy="687" fill="#ADD1B2" rx="11" ry="11" style="stroke:#181818;stroke-width:1.0;"/><path d="M171.2231,693.1431 Q170.6421,693.4419 170.0029,693.5913 Q169.3638,693.7407 168.6582,693.7407 Q166.1514,693.7407 164.8315,692.0889 Q163.5117,690.437 163.5117,687.3159 Q163.5117,684.1865 164.8315,682.5347 Q166.1514,680.8828 168.6582,680.8828 Q169.3638,680.8828 170.0112,681.0322 Q170.6587,681.1816 171.2231,681.4805 L171.2231,684.2031 Q170.5923,683.6221 169.9988,683.3523 Q169.4053,683.0825 168.7744,683.0825 Q167.4297,683.0825 166.7449,684.1492 Q166.0601,685.2158 166.0601,687.3159 Q166.0601,689.4077 166.7449,690.4744 Q167.4297,691.541 168.7744,691.541 Q169.4053,691.541 169.9988,691.2712 Q170.5923,691.0015 171.2231,690.4204 Z " fill="#000000"/><text fill="#000000" font-family="sans-serif" font-size="14" lengthAdjust="spacing" textLength="32" x="189.25" y="692.291">View</text><line style="stroke:#181818;stroke-width:0.5;" x1="95" x2="283" y1="703" y2="703"/><text fill="#000000" font-family="sans-serif" font-size="14" lengthAdjust="spacing" textLength="140" x="100" y="720.5352">http_method_names</text><text fill="#000000" font-family="sans-serif" font-size="14" lengthAdjust="spacing" textLength="93" x="100" y="737.0234">view_is_async</text><line style="stroke:#181818;stroke-width:0.5;" x1="95" x2="283" y1="743.9766" y2="743.9766"/><text fill="#000000" font-family="sans-serif" font-size="14" lengthAdjust="spacing" textLength="50" x="100" y="761.5117">__init__</text><text fill="#000000" font-family="sans-serif" font-size="14" lengthAdjust="spacing" textLength="127" x="100" y="778">_allowed_methods</text><text fill="#000000" font-family="sans-serif" font-size="14" lengthAdjust="spacing" textLength="52" x="100" y="794.4883">as_view</text><text fill="#000000" font-family="sans-serif" font-size="14" lengthAdjust="spacing" textLength="58" x="100" y="810.9766">dispatch</text><text fill="#000000" font-family="sans-serif" font-size="14" lengthAdjust="spacing" textLength="178" x="100" y="827.4648">http_method_not_allowed</text><text fill="#000000" font-family="sans-serif" font-size="14" lengthAdjust="spacing" textLength="52" x="100" y="843.9531">options</text><text fill="#000000" font-family="sans-serif" font-size="14" lengthAdjust="spacing" textLength="38" x="100" y="860.4414">setup</text></g><!--class RedirectView--><g id="elem_RedirectView"><rect codeLine="16" fill="#F1F1F1" height="229.3711" id="RedirectView" rx="2.5" ry="2.5" style="stroke:#181818;stroke-width:0.5;" width="120" x="129" y="927"/><ellipse cx="144" cy="943" fill="#ADD1B2" rx="11" ry="11" style="stroke:#181818;stroke-width:1.0;"/><path d="M146.4731,949.1431 Q145.8921,949.4419 145.2529,949.5913 Q144.6138,949.7407 143.9082,949.7407 Q141.4014,949.7407 140.0815,948.0889 Q138.7617,946.437 138.7617,943.3159 Q138.7617,940.1865 140.0815,938.5347 Q141.4014,936.8828 143.9082,936.8828 Q144.6138,936.8828 145.2612,937.0322 Q145.9087,937.1816 146.4731,937.4805 L146.4731,940.2031 Q145.8423,939.6221 145.2488,939.3523 Q144.6553,939.0825 144.0244,939.0825 Q142.6797,939.0825 141.9949,940.1492 Q141.3101,941.2158 141.3101,943.3159 Q141.3101,945.4077 141.9949,946.4744 Q142.6797,947.541 144.0244,947.541 Q144.6553,947.541 145.2488,947.2712 Q145.8423,947.0015 146.4731,946.4204 Z " fill="#000000"/><text fill="#000000" font-family="sans-serif" font-size="14" lengthAdjust="spacing" textLength="88" x="158" y="948.291">RedirectView</text><line style="stroke:#181818;stroke-width:0.5;" x1="130" x2="248" y1="959" y2="959"/><text fill="#000000" font-family="sans-serif" font-size="14" lengthAdjust="spacing" textLength="95" x="135" y="976.5352">pattern_name</text><text fill="#000000" font-family="sans-serif" font-size="14" lengthAdjust="spacing" textLength="75" x="135" y="993.0234">permanent</text><text fill="#000000" font-family="sans-serif" font-size="14" lengthAdjust="spacing" textLength="86" x="135" y="1009.5117">query_string</text><text fill="#000000" font-family="sans-serif" font-size="14" lengthAdjust="spacing" textLength="19" x="135" y="1026">url</text><line style="stroke:#181818;stroke-width:0.5;" x1="130" x2="248" y1="1032.9531" y2="1032.9531"/><text fill="#000000" font-family="sans-serif" font-size="14" lengthAdjust="spacing" textLength="42" x="135" y="1050.4883">delete</text><text fill="#000000" font-family="sans-serif" font-size="14" lengthAdjust="spacing" textLength="22" x="135" y="1066.9766">get</text><text fill="#000000" font-family="sans-serif" font-size="14" lengthAdjust="spacing" textLength="108" x="135" y="1083.4648">get_redirect_url</text><text fill="#000000" font-family="sans-serif" font-size="14" lengthAdjust="spacing" textLength="34" x="135" y="1099.9531">head</text><text fill="#000000" font-family="sans-serif" font-size="14" lengthAdjust="spacing" textLength="38" x="135" y="1116.4414">patch</text><text fill="#000000" font-family="sans-serif" font-size="14" lengthAdjust="spacing" textLength="30" x="135" y="1132.9297">post</text><text fill="#000000" font-family="sans-serif" font-size="14" lengthAdjust="spacing" textLength="23" x="135" y="1149.418">put</text></g><!--class TemplateResponseMixin--><g id="elem_TemplateResponseMixin"><rect codeLine="30" fill="#F1F1F1" height="146.9297" id="TemplateResponseMixin" rx="2.5" ry="2.5" style="stroke:#181818;stroke-width:0.5;" width="200" x="484" y="695.5"/><ellipse cx="499" cy="711.5" fill="#ADD1B2" rx="11" ry="11" style="stroke:#181818;stroke-width:1.0;"/><path d="M501.4731,717.6431 Q500.8921,717.9419 500.2529,718.0913 Q499.6138,718.2407 498.9082,718.2407 Q496.4014,718.2407 495.0815,716.5889 Q493.7617,714.937 493.7617,711.8159 Q493.7617,708.6865 495.0815,707.0347 Q496.4014,705.3828 498.9082,705.3828 Q499.6138,705.3828 500.2612,705.5322 Q500.9087,705.6816 501.4731,705.9805 L501.4731,708.7031 Q500.8423,708.1221 500.2488,707.8523 Q499.6553,707.5825 499.0244,707.5825 Q497.6797,707.5825 496.9949,708.6492 Q496.3101,709.7158 496.3101,711.8159 Q496.3101,713.9077 496.9949,714.9744 Q497.6797,716.041 499.0244,716.041 Q499.6553,716.041 500.2488,715.7712 Q500.8423,715.5015 501.4731,714.9204 Z " fill="#000000"/><text fill="#000000" font-family="sans-serif" font-size="14" lengthAdjust="spacing" textLength="168" x="513" y="716.791">TemplateResponseMixin</text><line style="stroke:#181818;stroke-width:0.5;" x1="485" x2="683" y1="727.5" y2="727.5"/><text fill="#000000" font-family="sans-serif" font-size="14" lengthAdjust="spacing" textLength="88" x="490" y="745.0352">content_type</text><text fill="#000000" font-family="sans-serif" font-size="14" lengthAdjust="spacing" textLength="103" x="490" y="761.5234">response_class</text><text fill="#000000" font-family="sans-serif" font-size="14" lengthAdjust="spacing" textLength="114" x="490" y="778.0117">template_engine</text><text fill="#000000" font-family="sans-serif" font-size="14" lengthAdjust="spacing" textLength="105" x="490" y="794.5">template_name</text><line style="stroke:#181818;stroke-width:0.5;" x1="485" x2="683" y1="801.4531" y2="801.4531"/><text fill="#000000" font-family="sans-serif" font-size="14" lengthAdjust="spacing" textLength="141" x="490" y="818.9883">get_template_names</text><text fill="#000000" font-family="sans-serif" font-size="14" lengthAdjust="spacing" textLength="137" x="490" y="835.4766">render_to_response</text></g><!--class ContextMixin--><g id="elem_ContextMixin"><rect codeLine="39" fill="#F1F1F1" height="80.9766" id="ContextMixin" rx="2.5" ry="2.5" style="stroke:#181818;stroke-width:0.5;" width="130" x="319" y="728.5"/><ellipse cx="336.25" cy="744.5" fill="#ADD1B2" rx="11" ry="11" style="stroke:#181818;stroke-width:1.0;"/><path d="M338.7231,750.6431 Q338.1421,750.9419 337.5029,751.0913 Q336.8638,751.2407 336.1582,751.2407 Q333.6514,751.2407 332.3315,749.5889 Q331.0117,747.937 331.0117,744.8159 Q331.0117,741.6865 332.3315,740.0347 Q333.6514,738.3828 336.1582,738.3828 Q336.8638,738.3828 337.5112,738.5322 Q338.1587,738.6816 338.7231,738.9805 L338.7231,741.7031 Q338.0923,741.1221 337.4988,740.8523 Q336.9053,740.5825 336.2744,740.5825 Q334.9297,740.5825 334.2449,741.6492 Q333.5601,742.7158 333.5601,744.8159 Q333.5601,746.9077 334.2449,747.9744 Q334.9297,749.041 336.2744,749.041 Q336.9053,749.041 337.4988,748.7712 Q338.0923,748.5015 338.7231,747.9204 Z " fill="#000000"/><text fill="#000000" font-family="sans-serif" font-size="14" lengthAdjust="spacing" textLength="93" x="350.75" y="749.791">ContextMixin</text><line style="stroke:#181818;stroke-width:0.5;" x1="320" x2="448" y1="760.5" y2="760.5"/><text fill="#000000" font-family="sans-serif" font-size="14" lengthAdjust="spacing" textLength="95" x="325" y="778.0352">extra_context</text><line style="stroke:#181818;stroke-width:0.5;" x1="320" x2="448" y1="784.9883" y2="784.9883"/><text fill="#000000" font-family="sans-serif" font-size="14" lengthAdjust="spacing" textLength="118" x="325" y="802.5234">get_context_data</text></g><!--class TemplateView--><g id="elem_TemplateView"><rect codeLine="44" fill="#F1F1F1" height="64.4883" id="TemplateView" rx="2.5" ry="2.5" style="stroke:#181818;stroke-width:0.5;" width="128" x="320" y="1009.5"/><ellipse cx="335" cy="1025.5" fill="#ADD1B2" rx="11" ry="11" style="stroke:#181818;stroke-width:1.0;"/><path d="M337.4731,1031.6431 Q336.8921,1031.9419 336.2529,1032.0913 Q335.6138,1032.2407 334.9082,1032.2407 Q332.4014,1032.2407 331.0815,1030.5889 Q329.7617,1028.937 329.7617,1025.8159 Q329.7617,1022.6865 331.0815,1021.0347 Q332.4014,1019.3828 334.9082,1019.3828 Q335.6138,1019.3828 336.2612,1019.5322 Q336.9087,1019.6816 337.4731,1019.9805 L337.4731,1022.7031 Q336.8423,1022.1221 336.2488,1021.8523 Q335.6553,1021.5825 335.0244,1021.5825 Q333.6797,1021.5825 332.9949,1022.6492 Q332.3101,1023.7158 332.3101,1025.8159 Q332.3101,1027.9077 332.9949,1028.9744 Q333.6797,1030.041 335.0244,1030.041 Q335.6553,1030.041 336.2488,1029.7712 Q336.8423,1029.5015 337.4731,1028.9204 Z " fill="#000000"/><text fill="#000000" font-family="sans-serif" font-size="14" lengthAdjust="spacing" textLength="96" x="349" y="1030.791">TemplateView</text><line style="stroke:#181818;stroke-width:0.5;" x1="321" x2="447" y1="1041.5" y2="1041.5"/><line style="stroke:#181818;stroke-width:0.5;" x1="321" x2="447" y1="1049.5" y2="1049.5"/><text fill="#000000" font-family="sans-serif" font-size="14" lengthAdjust="spacing" textLength="22" x="326" y="1067.0352">get</text></g><!--class MultipleObjectMixin--><g id="elem_MultipleObjectMixin"><rect codeLine="55" fill="#F1F1F1" height="361.2773" id="MultipleObjectMixin" rx="2.5" ry="2.5" style="stroke:#181818;stroke-width:0.5;" width="187" x="247.5" y="235"/><ellipse cx="270.6" cy="251" fill="#ADD1B2" rx="11" ry="11" style="stroke:#181818;stroke-width:1.0;"/><path d="M273.0731,257.1431 Q272.4921,257.4419 271.8529,257.5913 Q271.2138,257.7407 270.5082,257.7407 Q268.0014,257.7407 266.6815,256.0889 Q265.3617,254.437 265.3617,251.3159 Q265.3617,248.1865 266.6815,246.5347 Q268.0014,244.8828 270.5082,244.8828 Q271.2138,244.8828 271.8612,245.0322 Q272.5087,245.1816 273.0731,245.4805 L273.0731,248.2031 Q272.4423,247.6221 271.8488,247.3523 Q271.2553,247.0825 270.6244,247.0825 Q269.2797,247.0825 268.5949,248.1492 Q267.9101,249.2158 267.9101,251.3159 Q267.9101,253.4077 268.5949,254.4744 Q269.2797,255.541 270.6244,255.541 Q271.2553,255.541 271.8488,255.2712 Q272.4423,255.0015 273.0731,254.4204 Z " fill="#000000"/><text fill="#000000" font-family="sans-serif" font-size="14" lengthAdjust="spacing" textLength="137" x="286.4" y="256.291">MultipleObjectMixin</text><line style="stroke:#181818;stroke-width:0.5;" x1="248.5" x2="433.5" y1="267" y2="267"/><text fill="#000000" font-family="sans-serif" font-size="14" lengthAdjust="spacing" textLength="85" x="253.5" y="284.5352">allow_empty</text><text fill="#000000" font-family="sans-serif" font-size="14" lengthAdjust="spacing" textLength="146" x="253.5" y="301.0234">context_object_name</text><text fill="#000000" font-family="sans-serif" font-size="14" lengthAdjust="spacing" textLength="95" x="253.5" y="317.5117">extra_context</text><text fill="#000000" font-family="sans-serif" font-size="14" lengthAdjust="spacing" textLength="43" x="253.5" y="334">model</text><text fill="#000000" font-family="sans-serif" font-size="14" lengthAdjust="spacing" textLength="60" x="253.5" y="350.4883">ordering</text><text fill="#000000" font-family="sans-serif" font-size="14" lengthAdjust="spacing" textLength="83" x="253.5" y="366.9766">page_kwarg</text><text fill="#000000" font-family="sans-serif" font-size="14" lengthAdjust="spacing" textLength="83" x="253.5" y="383.4648">paginate_by</text><text fill="#000000" font-family="sans-serif" font-size="14" lengthAdjust="spacing" textLength="124" x="253.5" y="399.9531">paginate_orphans</text><text fill="#000000" font-family="sans-serif" font-size="14" lengthAdjust="spacing" textLength="107" x="253.5" y="416.4414">paginator_class</text><text fill="#000000" font-family="sans-serif" font-size="14" lengthAdjust="spacing" textLength="59" x="253.5" y="432.9297">queryset</text><line style="stroke:#181818;stroke-width:0.5;" x1="248.5" x2="433.5" y1="439.8828" y2="439.8828"/><text fill="#000000" font-family="sans-serif" font-size="14" lengthAdjust="spacing" textLength="114" x="253.5" y="457.418">get_allow_empty</text><text fill="#000000" font-family="sans-serif" font-size="14" lengthAdjust="spacing" textLength="118" x="253.5" y="473.9063">get_context_data</text><text fill="#000000" font-family="sans-serif" font-size="14" lengthAdjust="spacing" textLength="175" x="253.5" y="490.3945">get_context_object_name</text><text fill="#000000" font-family="sans-serif" font-size="14" lengthAdjust="spacing" textLength="89" x="253.5" y="506.8828">get_ordering</text><text fill="#000000" font-family="sans-serif" font-size="14" lengthAdjust="spacing" textLength="112" x="253.5" y="523.3711">get_paginate_by</text><text fill="#000000" font-family="sans-serif" font-size="14" lengthAdjust="spacing" textLength="153" x="253.5" y="539.8594">get_paginate_orphans</text><text fill="#000000" font-family="sans-serif" font-size="14" lengthAdjust="spacing" textLength="96" x="253.5" y="556.3477">get_paginator</text><text fill="#000000" font-family="sans-serif" font-size="14" lengthAdjust="spacing" textLength="88" x="253.5" y="572.8359">get_queryset</text><text fill="#000000" font-family="sans-serif" font-size="14" lengthAdjust="spacing" textLength="126" x="253.5" y="589.3242">paginate_queryset</text></g><!--class BaseListView--><g id="elem_BaseListView"><rect codeLine="77" fill="#F1F1F1" height="64.4883" id="BaseListView" rx="2.5" ry="2.5" style="stroke:#181818;stroke-width:0.5;" width="118" x="94" y="383.5"/><ellipse cx="109" cy="399.5" fill="#ADD1B2" rx="11" ry="11" style="stroke:#181818;stroke-width:1.0;"/><path d="M111.4731,405.6431 Q110.8921,405.9419 110.2529,406.0913 Q109.6138,406.2407 108.9082,406.2407 Q106.4014,406.2407 105.0815,404.5889 Q103.7617,402.937 103.7617,399.8159 Q103.7617,396.6865 105.0815,395.0347 Q106.4014,393.3828 108.9082,393.3828 Q109.6138,393.3828 110.2612,393.5322 Q110.9087,393.6816 111.4731,393.9805 L111.4731,396.7031 Q110.8423,396.1221 110.2488,395.8523 Q109.6553,395.5825 109.0244,395.5825 Q107.6797,395.5825 106.9949,396.6492 Q106.3101,397.7158 106.3101,399.8159 Q106.3101,401.9077 106.9949,402.9744 Q107.6797,404.041 109.0244,404.041 Q109.6553,404.041 110.2488,403.7712 Q110.8423,403.5015 111.4731,402.9204 Z " fill="#000000"/><text fill="#000000" font-family="sans-serif" font-size="14" lengthAdjust="spacing" textLength="86" x="123" y="404.791">BaseListView</text><line style="stroke:#181818;stroke-width:0.5;" x1="95" x2="211" y1="415.5" y2="415.5"/><line style="stroke:#181818;stroke-width:0.5;" x1="95" x2="211" y1="423.5" y2="423.5"/><text fill="#000000" font-family="sans-serif" font-size="14" lengthAdjust="spacing" textLength="22" x="100" y="441.0352">get</text></g><!--reverse link View to RedirectView--><g id="link_View_RedirectView"><path codeLine="48" d="M189,888.36 C189,901.06 189,913.95 189,926.59 " fill="none" id="View-backto-RedirectView" style="stroke:#181818;stroke-width:1.0;"/><polygon fill="none" points="182,888.79,189,868.79,196,888.79,182,888.79" style="stroke:#181818;stroke-width:1.0;"/></g><!--reverse link View to TemplateView--><g id="link_View_TemplateView"><path codeLine="49" d="M271.51,884.45 C304.2,929.8 339.19,978.34 361.31,1009.03 " fill="none" id="View-backto-TemplateView" style="stroke:#181818;stroke-width:1.0;"/><polygon fill="none" points="266.03,888.82,260.01,868.5,277.38,880.63,266.03,888.82" style="stroke:#181818;stroke-width:1.0;"/></g><!--reverse link TemplateResponseMixin to TemplateView--><g id="link_TemplateResponseMixin_TemplateView"><path codeLine="50" d="M517.55,859.87 C479.49,911.34 434.1,972.74 407.24,1009.07 " fill="none" id="TemplateResponseMixin-backto-TemplateView" style="stroke:#181818;stroke-width:1.0;"/><polygon fill="none" points="511.72,855.98,529.24,844.06,522.98,864.31,511.72,855.98" style="stroke:#181818;stroke-width:1.0;"/></g><!--reverse link ContextMixin to TemplateView--><g id="link_ContextMixin_TemplateView"><path codeLine="51" d="M384,831.29 C384,886.67 384,965.94 384,1009.28 " fill="none" id="ContextMixin-backto-TemplateView" style="stroke:#181818;stroke-width:1.0;"/><polygon fill="none" points="377,831.43,384,811.43,391,831.43,377,831.43" style="stroke:#181818;stroke-width:1.0;"/></g><!--link MultipleObjectMixin to ContextMixin--><g id="link_MultipleObjectMixin_ContextMixin"><path codeLine="91" d="M363,596.37 C367.89,636.33 372.75,676 376.55,707.13 " fill="none" id="MultipleObjectMixin-to-ContextMixin" style="stroke:#181818;stroke-width:1.0;"/><polygon fill="none" points="383.46,705.96,378.94,726.66,369.57,707.66,383.46,705.96" style="stroke:#181818;stroke-width:1.0;"/></g><!--link BaseListView to MultipleObjectMixin--><g id="link_BaseListView_MultipleObjectMixin"><path codeLine="92" d="M212.48,415.5 C216.9,415.5 221.32,415.5 225.74,415.5 " fill="none" id="BaseListView-to-MultipleObjectMixin" style="stroke:#181818;stroke-width:1.0;"/><polygon fill="none" points="225.61,408.5,245.61,415.5,225.61,422.5,225.61,408.5" style="stroke:#181818;stroke-width:1.0;"/></g><!--link BaseListView to View--><g id="link_BaseListView_View"><path codeLine="93" d="M156.19,447.69 C160.81,492.71 169.57,578.32 176.89,649.71 " fill="none" id="BaseListView-to-View" style="stroke:#181818;stroke-width:1.0;"/><polygon fill="none" points="183.82,648.76,178.9,669.37,169.9,650.18,183.82,648.76" style="stroke:#181818;stroke-width:1.0;"/></g><!--link ListView to BaseListView--><g id="link_ListView_BaseListView"><path codeLine="94" d="M342.03,152.41 C307.5,155.04 260.33,164.06 230,192 C182.16,236.07 164.04,311.32 157.18,361.96 " fill="none" id="ListView-to-BaseListView" style="stroke:#181818;stroke-width:1.0;"/><polygon fill="none" points="164.14,362.71,154.93,381.79,150.23,361.13,164.14,362.71" style="stroke:#181818;stroke-width:1.0;"/></g><!--link ListView to MultipleObjectTemplateResponseMixin--><g id="link_ListView_MultipleObjectTemplateResponseMixin"><path codeLine="95" d="M429.23,175.45 C436.85,180.44 444.43,186.03 451,192 C507.94,243.77 558.96,317.06 589.44,365.17 " fill="none" id="ListView-to-MultipleObjectTemplateResponseMixin" style="stroke:#181818;stroke-width:1.0;"/><polygon fill="none" points="595.23,361.23,599.85,381.91,583.34,368.62,595.23,361.23" style="stroke:#181818;stroke-width:1.0;"/></g><!--link MultipleObjectTemplateResponseMixin to TemplateResponseMixin--><g id="link_MultipleObjectTemplateResponseMixin_TemplateResponseMixin"><path codeLine="96" d="M615.89,447.69 C610.88,498.04 600.81,599.15 593.32,674.38 " fill="none" id="MultipleObjectTemplateResponseMixin-to-TemplateResponseMixin" style="stroke:#181818;stroke-width:1.0;"/><polygon fill="none" points="600.33,674.62,591.39,693.82,586.4,673.23,600.33,674.62" style="stroke:#181818;stroke-width:1.0;"/></g><!--SRC=[bPLDZjim38NtEOKla3b25-ssWmA3ebj2iHbRCxAaIdGJOvgxL_v9ean8PUfD0BrFfFH4CbxLRwh5gdbLjdLFVpGUubEB5eEktpTL-lnAx5J4PMNwQgDYh7ub_BesVUzxZQOvLHsHXnwfSmrOrMDagIaTw0WgZhQ-9PQzfmf0Mqq0WggCSGTirbIHfrI4AHClDZfwHNN7gpVtS7JEnyFEatPME4H46ln5Ecq-MFc2ZGvOasnfEYLXiBETF82XLnOjiUhl0SC8aOAsBGiCmGWEeK52NckHH072UYSGGtUe12yBR-9T59BwWMI7VsBlZI9ymUZJA-6pFchBMrqxIyb7eD7pLeSr1ioXMOJMT82srHRBpFsRvZxUO49v1RGD1Y07vxF9JdoRhdUaWW593GhgXPCFjWBGA5AFZMTAcokZR7_U5DLssFxzCe-SYvv7_gJELa5fGsxM9ZlVUIuQ7UdZN7mU36blyCVkDPs-uFCyJY0bfL4kn6ImcmF9hLzuhvNeNMfZLd4X5Ouq57ow8hmTL11bRQVAt8rbtGNVAHjBa0k5RfgdLomD6z7AXmKhKgBhESpRbnEYIIp4EiMGBiX8sQrBgZlihdM_fZ_zxwd0_wzrrvybn7NxlNRR9my6D3iq8GxxlJxcePdcgxPi9-UtgoQ2sSg3bobpNPsMSuwHFt5TvWOijmJaGvms_m00]--></g></svg>