<?xml version="1.0" encoding="us-ascii" standalone="no"?><svg xmlns="http://www.w3.org/2000/svg" xmlns:xlink="http://www.w3.org/1999/xlink" contentStyleType="text/css" height="210px" preserveAspectRatio="none" style="width:219px;height:210px;background:#FFFFFF;" version="1.1" viewBox="0 0 219 210" width="219px" zoomAndPan="magnify"><defs/><g><!--class Root--><g id="elem_Root"><rect codeLine="2" fill="#F1F1F1" height="64.4883" id="Root" rx="2.5" ry="2.5" style="stroke:#181818;stroke-width:0.5;" width="64" x="19.89" y="7"/><ellipse cx="34.89" cy="23" fill="#ADD1B2" rx="11" ry="11" style="stroke:#181818;stroke-width:1.0;"/><path d="M37.3631,29.1431 Q36.7821,29.4419 36.1429,29.5913 Q35.5038,29.7407 34.7982,29.7407 Q32.2914,29.7407 30.9715,28.0889 Q29.6517,26.437 29.6517,23.3159 Q29.6517,20.1865 30.9715,18.5347 Q32.2914,16.8828 34.7982,16.8828 Q35.5038,16.8828 36.1512,17.0322 Q36.7987,17.1816 37.3631,17.4805 L37.3631,20.2031 Q36.7323,19.6221 36.1388,19.3523 Q35.5453,19.0825 34.9144,19.0825 Q33.5697,19.0825 32.8849,20.1492 Q32.2001,21.2158 32.2001,23.3159 Q32.2001,25.4077 32.8849,26.4744 Q33.5697,27.541 34.9144,27.541 Q35.5453,27.541 36.1388,27.2712 Q36.7323,27.0015 37.3631,26.4204 Z " fill="#000000"/><text fill="#000000" font-family="sans-serif" font-size="14" lengthAdjust="spacing" textLength="32" x="48.89" y="28.291">Root</text><line style="stroke:#181818;stroke-width:0.5;" x1="20.89" x2="82.89" y1="39" y2="39"/><line style="stroke:#181818;stroke-width:0.5;" x1="20.89" x2="82.89" y1="47" y2="47"/><text fill="#000000" font-family="sans-serif" font-size="14" lengthAdjust="spacing" textLength="31" x="25.89" y="64.5352">ping</text></g><!--class A--><g id="elem_A"><rect codeLine="6" fill="#F1F1F1" height="64.4883" id="A" rx="2.5" ry="2.5" style="stroke:#181818;stroke-width:0.5;" width="43" x="135.39" y="7"/><ellipse cx="150.84" cy="23" fill="#ADD1B2" rx="11" ry="11" style="stroke:#181818;stroke-width:1.0;"/><path d="M153.3131,29.1431 Q152.7321,29.4419 152.0929,29.5913 Q151.4538,29.7407 150.7482,29.7407 Q148.2414,29.7407 146.9215,28.0889 Q145.6017,26.437 145.6017,23.3159 Q145.6017,20.1865 146.9215,18.5347 Q148.2414,16.8828 150.7482,16.8828 Q151.4538,16.8828 152.1012,17.0322 Q152.7487,17.1816 153.3131,17.4805 L153.3131,20.2031 Q152.6823,19.6221 152.0888,19.3523 Q151.4953,19.0825 150.8644,19.0825 Q149.5197,19.0825 148.8349,20.1492 Q148.1501,21.2158 148.1501,23.3159 Q148.1501,25.4077 148.8349,26.4744 Q149.5197,27.541 150.8644,27.541 Q151.4953,27.541 152.0888,27.2712 Q152.6823,27.0015 153.3131,26.4204 Z " fill="#000000"/><text fill="#000000" font-family="sans-serif" font-size="14" lengthAdjust="spacing" textLength="10" x="164.94" y="28.291">A</text><line style="stroke:#181818;stroke-width:0.5;" x1="136.39" x2="177.39" y1="39" y2="39"/><line style="stroke:#181818;stroke-width:0.5;" x1="136.39" x2="177.39" y1="47" y2="47"/><text fill="#000000" font-family="sans-serif" font-size="14" lengthAdjust="spacing" textLength="31" x="141.39" y="64.5352">ping</text></g><!--class B--><g id="elem_B"><rect codeLine="10" fill="#F1F1F1" height="64.4883" id="B" rx="2.5" ry="2.5" style="stroke:#181818;stroke-width:0.5;" width="43" x="31.39" y="139"/><ellipse cx="47.74" cy="155" fill="#ADD1B2" rx="11" ry="11" style="stroke:#181818;stroke-width:1.0;"/><path d="M50.2131,161.1431 Q49.6321,161.4419 48.9929,161.5913 Q48.3538,161.7407 47.6482,161.7407 Q45.1414,161.7407 43.8215,160.0889 Q42.5017,158.437 42.5017,155.3159 Q42.5017,152.1865 43.8215,150.5347 Q45.1414,148.8828 47.6482,148.8828 Q48.3538,148.8828 49.0012,149.0322 Q49.6487,149.1816 50.2131,149.4805 L50.2131,152.2031 Q49.5823,151.6221 48.9888,151.3523 Q48.3953,151.0825 47.7644,151.0825 Q46.4197,151.0825 45.7349,152.1492 Q45.0501,153.2158 45.0501,155.3159 Q45.0501,157.4077 45.7349,158.4744 Q46.4197,159.541 47.7644,159.541 Q48.3953,159.541 48.9888,159.2712 Q49.5823,159.0015 50.2131,158.4204 Z " fill="#000000"/><text fill="#000000" font-family="sans-serif" font-size="14" lengthAdjust="spacing" textLength="8" x="62.04" y="160.291">B</text><line style="stroke:#181818;stroke-width:0.5;" x1="32.39" x2="73.39" y1="171" y2="171"/><line style="stroke:#181818;stroke-width:0.5;" x1="32.39" x2="73.39" y1="179" y2="179"/><text fill="#000000" font-family="sans-serif" font-size="14" lengthAdjust="spacing" textLength="31" x="37.39" y="196.5352">ping</text></g><!--class Leaf--><g id="elem_Leaf"><rect codeLine="14" fill="#F1F1F1" height="64.4883" id="Leaf" rx="2.5" ry="2.5" style="stroke:#181818;stroke-width:0.5;" width="60" x="126.89" y="139"/><ellipse cx="141.89" cy="155" fill="#ADD1B2" rx="11" ry="11" style="stroke:#181818;stroke-width:1.0;"/><path d="M144.3631,161.1431 Q143.7821,161.4419 143.1429,161.5913 Q142.5038,161.7407 141.7982,161.7407 Q139.2914,161.7407 137.9715,160.0889 Q136.6517,158.437 136.6517,155.3159 Q136.6517,152.1865 137.9715,150.5347 Q139.2914,148.8828 141.7982,148.8828 Q142.5038,148.8828 143.1512,149.0322 Q143.7987,149.1816 144.3631,149.4805 L144.3631,152.2031 Q143.7323,151.6221 143.1388,151.3523 Q142.5453,151.0825 141.9144,151.0825 Q140.5697,151.0825 139.8849,152.1492 Q139.2001,153.2158 139.2001,155.3159 Q139.2001,157.4077 139.8849,158.4744 Q140.5697,159.541 141.9144,159.541 Q142.5453,159.541 143.1388,159.2712 Q143.7323,159.0015 144.3631,158.4204 Z " fill="#000000"/><text fill="#000000" font-family="sans-serif" font-size="14" lengthAdjust="spacing" textLength="28" x="155.89" y="160.291">Leaf</text><line style="stroke:#181818;stroke-width:0.5;" x1="127.89" x2="185.89" y1="171" y2="171"/><line style="stroke:#181818;stroke-width:0.5;" x1="127.89" x2="185.89" y1="179" y2="179"/><text fill="#000000" font-family="sans-serif" font-size="14" lengthAdjust="spacing" textLength="31" x="132.89" y="196.5352">ping</text></g><!--reverse link Root to A--><g id="link_Root_A"><path codeLine="18" d="M113,39 C117.87,39 122.73,39 127.59,39 " fill="none" id="Root-backto-A" style="stroke:#181818;stroke-width:1.0;"/><polygon fill="none" points="113.19,46,93.19,39,113.19,32,113.19,46" style="stroke:#181818;stroke-width:1.0;"/></g><!--reverse link Root to B--><g id="link_Root_B"><path codeLine="19" d="M52.32,96.2 C52.42,109.41 52.53,123.11 52.62,135.07 " fill="none" id="Root-backto-B" style="stroke:#181818;stroke-width:1.0;"/><polygon fill="none" points="45.32,96.4,52.17,76.35,59.32,96.3,45.32,96.4" style="stroke:#181818;stroke-width:1.0;"/></g><!--link B to Root--><g id="link_B_Root"><path codeLine="24" d="M30.89,191 C6,191 22.98,158.24 31.89,135 C44.52,102.05 70.53,107.66 83.89,75 C85.24,71.7 87.27,67.7 88.07,64.53 " fill="none" id="B-to-Root" style="stroke:#FF0000;stroke-width:1.0;stroke-dasharray:7.0,7.0;"/><polygon fill="#FF0000" points="85.65,60.31,86.6735,70.1055,88.1445,64.6433,93.6067,66.1143,85.65,60.31" style="stroke:#FF0000;stroke-width:1.0;"/></g><!--reverse link A to Leaf--><g id="link_A_Leaf"><path codeLine="21" d="M156.89,96.2 C156.89,109.41 156.89,123.11 156.89,135.07 " fill="none" id="A-backto-Leaf" style="stroke:#181818;stroke-width:1.0;"/><polygon fill="none" points="149.89,96.35,156.89,76.35,163.89,96.35,149.89,96.35" style="stroke:#181818;stroke-width:1.0;"/></g><!--link Leaf to A--><g id="link_Leaf_A"><path codeLine="26" d="M187.89,191 C212.78,191 195.69,158.29 186.89,135 C174.52,102.26 148.98,107.46 135.89,75 C134.56,71.7 132.53,67.7 131.72,64.52 " fill="none" id="Leaf-to-A" style="stroke:#FF0000;stroke-width:1.0;stroke-dasharray:7.0,7.0;"/><polygon fill="#FF0000" points="134.14,60.31,126.1894,66.1227,131.6501,64.6459,133.1269,70.1066,134.14,60.31" style="stroke:#FF0000;stroke-width:1.0;"/></g><!--reverse link B to Leaf--><g id="link_B_Leaf"><path codeLine="22" d="M103.41,171 C108.58,171 113.76,171 118.93,171 " fill="none" id="B-backto-Leaf" style="stroke:#181818;stroke-width:1.0;"/><polygon fill="none" points="103.65,178,83.65,171,103.65,164,103.65,178" style="stroke:#181818;stroke-width:1.0;"/></g><!--link A to B--><g id="link_A_B"><path codeLine="25" d="M134.89,59 C97.89,59 115.99,101.22 100.89,135 C90.72,157.75 101.03,185.7 82.06,190.33 " fill="none" id="A-to-B" style="stroke:#FF0000;stroke-width:1.0;stroke-dasharray:7.0,7.0;"/><polygon fill="#FF0000" points="77.39,190.84,86.7625,193.866,82.362,190.3114,85.9167,185.9109,77.39,190.84" style="stroke:#FF0000;stroke-width:1.0;"/></g><!--SRC=[Iyv9B2vM2ChFBwdcKW22wjpKaepyb5g5WioyTAvQBgvai097lB9EU6LzKXFJS2W0sQjWKwEhu8XWEd5nEO8P87rSJWWcbvEL5KYZWbwqSb5gIgoU7TZT444kHmn9g78ka6OCIQXoBW00]--></g></svg>