<?xml version="1.0" encoding="us-ascii" standalone="no"?><svg xmlns="http://www.w3.org/2000/svg" xmlns:xlink="http://www.w3.org/1999/xlink" contentStyleType="text/css" height="386px" preserveAspectRatio="none" style="width:360px;height:386px;background:#FFFFFF;" version="1.1" viewBox="0 0 360 386" width="360px" zoomAndPan="magnify"><defs/><g><!--class O--><g id="elem_O"><rect codeLine="1" fill="#F1F1F1" height="48" id="O" rx="2.5" ry="2.5" style="stroke:#181818;stroke-width:0.5;" width="43" x="157.5" y="7"/><ellipse cx="172.5" cy="23" fill="#ADD1B2" rx="11" ry="11" style="stroke:#181818;stroke-width:1.0;"/><path d="M174.9731,29.1431 Q174.3921,29.4419 173.7529,29.5913 Q173.1138,29.7407 172.4082,29.7407 Q169.9014,29.7407 168.5815,28.0889 Q167.2617,26.437 167.2617,23.3159 Q167.2617,20.1865 168.5815,18.5347 Q169.9014,16.8828 172.4082,16.8828 Q173.1138,16.8828 173.7612,17.0322 Q174.4087,17.1816 174.9731,17.4805 L174.9731,20.2031 Q174.3423,19.6221 173.7488,19.3523 Q173.1553,19.0825 172.5244,19.0825 Q171.1797,19.0825 170.4949,20.1492 Q169.8101,21.2158 169.8101,23.3159 Q169.8101,25.4077 170.4949,26.4744 Q171.1797,27.541 172.5244,27.541 Q173.1553,27.541 173.7488,27.2712 Q174.3423,27.0015 174.9731,26.4204 Z " fill="#000000"/><text fill="#000000" font-family="sans-serif" font-size="14" lengthAdjust="spacing" textLength="11" x="186.5" y="28.291">O</text><line style="stroke:#181818;stroke-width:0.5;" x1="158.5" x2="199.5" y1="39" y2="39"/><line style="stroke:#181818;stroke-width:0.5;" x1="158.5" x2="199.5" y1="47" y2="47"/></g><!--class A--><g id="elem_A"><rect codeLine="3" fill="#F1F1F1" height="48" id="A" rx="2.5" ry="2.5" style="stroke:#181818;stroke-width:0.5;" width="42" x="234" y="115"/><ellipse cx="249" cy="131" fill="#ADD1B2" rx="11" ry="11" style="stroke:#181818;stroke-width:1.0;"/><path d="M251.4731,137.1431 Q250.8921,137.4419 250.2529,137.5913 Q249.6138,137.7407 248.9082,137.7407 Q246.4014,137.7407 245.0815,136.0889 Q243.7617,134.437 243.7617,131.3159 Q243.7617,128.1865 245.0815,126.5347 Q246.4014,124.8828 248.9082,124.8828 Q249.6138,124.8828 250.2612,125.0322 Q250.9087,125.1816 251.4731,125.4805 L251.4731,128.2031 Q250.8423,127.6221 250.2488,127.3523 Q249.6553,127.0825 249.0244,127.0825 Q247.6797,127.0825 246.9949,128.1492 Q246.3101,129.2158 246.3101,131.3159 Q246.3101,133.4077 246.9949,134.4744 Q247.6797,135.541 249.0244,135.541 Q249.6553,135.541 250.2488,135.2712 Q250.8423,135.0015 251.4731,134.4204 Z " fill="#000000"/><text fill="#000000" font-family="sans-serif" font-size="14" lengthAdjust="spacing" textLength="10" x="263" y="136.291">A</text><line style="stroke:#181818;stroke-width:0.5;" x1="235" x2="275" y1="147" y2="147"/><line style="stroke:#181818;stroke-width:0.5;" x1="235" x2="275" y1="155" y2="155"/></g><!--class B--><g id="elem_B"><rect codeLine="4" fill="#F1F1F1" height="48" id="B" rx="2.5" ry="2.5" style="stroke:#181818;stroke-width:0.5;" width="40" x="159" y="115"/><ellipse cx="174" cy="131" fill="#ADD1B2" rx="11" ry="11" style="stroke:#181818;stroke-width:1.0;"/><path d="M176.4731,137.1431 Q175.8921,137.4419 175.2529,137.5913 Q174.6138,137.7407 173.9082,137.7407 Q171.4014,137.7407 170.0815,136.0889 Q168.7617,134.437 168.7617,131.3159 Q168.7617,128.1865 170.0815,126.5347 Q171.4014,124.8828 173.9082,124.8828 Q174.6138,124.8828 175.2612,125.0322 Q175.9087,125.1816 176.4731,125.4805 L176.4731,128.2031 Q175.8423,127.6221 175.2488,127.3523 Q174.6553,127.0825 174.0244,127.0825 Q172.6797,127.0825 171.9949,128.1492 Q171.3101,129.2158 171.3101,131.3159 Q171.3101,133.4077 171.9949,134.4744 Q172.6797,135.541 174.0244,135.541 Q174.6553,135.541 175.2488,135.2712 Q175.8423,135.0015 176.4731,134.4204 Z " fill="#000000"/><text fill="#000000" font-family="sans-serif" font-size="14" lengthAdjust="spacing" textLength="8" x="188" y="136.291">B</text><line style="stroke:#181818;stroke-width:0.5;" x1="160" x2="198" y1="147" y2="147"/><line style="stroke:#181818;stroke-width:0.5;" x1="160" x2="198" y1="155" y2="155"/></g><!--class C--><g id="elem_C"><rect codeLine="5" fill="#F1F1F1" height="48" id="C" rx="2.5" ry="2.5" style="stroke:#181818;stroke-width:0.5;" width="42" x="311" y="115"/><ellipse cx="326" cy="131" fill="#ADD1B2" rx="11" ry="11" style="stroke:#181818;stroke-width:1.0;"/><path d="M328.4731,137.1431 Q327.8921,137.4419 327.2529,137.5913 Q326.6138,137.7407 325.9082,137.7407 Q323.4014,137.7407 322.0815,136.0889 Q320.7617,134.437 320.7617,131.3159 Q320.7617,128.1865 322.0815,126.5347 Q323.4014,124.8828 325.9082,124.8828 Q326.6138,124.8828 327.2612,125.0322 Q327.9087,125.1816 328.4731,125.4805 L328.4731,128.2031 Q327.8423,127.6221 327.2488,127.3523 Q326.6553,127.0825 326.0244,127.0825 Q324.6797,127.0825 323.9949,128.1492 Q323.3101,129.2158 323.3101,131.3159 Q323.3101,133.4077 323.9949,134.4744 Q324.6797,135.541 326.0244,135.541 Q326.6553,135.541 327.2488,135.2712 Q327.8423,135.0015 328.4731,134.4204 Z " fill="#000000"/><text fill="#000000" font-family="sans-serif" font-size="14" lengthAdjust="spacing" textLength="10" x="340" y="136.291">C</text><line style="stroke:#181818;stroke-width:0.5;" x1="312" x2="352" y1="147" y2="147"/><line style="stroke:#181818;stroke-width:0.5;" x1="312" x2="352" y1="155" y2="155"/></g><!--class D--><g id="elem_D"><rect codeLine="6" fill="#F1F1F1" height="48" id="D" rx="2.5" ry="2.5" style="stroke:#181818;stroke-width:0.5;" width="42" x="82" y="115"/><ellipse cx="97" cy="131" fill="#ADD1B2" rx="11" ry="11" style="stroke:#181818;stroke-width:1.0;"/><path d="M99.4731,137.1431 Q98.8921,137.4419 98.2529,137.5913 Q97.6138,137.7407 96.9082,137.7407 Q94.4014,137.7407 93.0815,136.0889 Q91.7617,134.437 91.7617,131.3159 Q91.7617,128.1865 93.0815,126.5347 Q94.4014,124.8828 96.9082,124.8828 Q97.6138,124.8828 98.2612,125.0322 Q98.9087,125.1816 99.4731,125.4805 L99.4731,128.2031 Q98.8423,127.6221 98.2488,127.3523 Q97.6553,127.0825 97.0244,127.0825 Q95.6797,127.0825 94.9949,128.1492 Q94.3101,129.2158 94.3101,131.3159 Q94.3101,133.4077 94.9949,134.4744 Q95.6797,135.541 97.0244,135.541 Q97.6553,135.541 98.2488,135.2712 Q98.8423,135.0015 99.4731,134.4204 Z " fill="#000000"/><text fill="#000000" font-family="sans-serif" font-size="14" lengthAdjust="spacing" textLength="10" x="111" y="136.291">D</text><line style="stroke:#181818;stroke-width:0.5;" x1="83" x2="123" y1="147" y2="147"/><line style="stroke:#181818;stroke-width:0.5;" x1="83" x2="123" y1="155" y2="155"/></g><!--class E--><g id="elem_E"><rect codeLine="7" fill="#F1F1F1" height="48" id="E" rx="2.5" ry="2.5" style="stroke:#181818;stroke-width:0.5;" width="40" x="7" y="115"/><ellipse cx="22" cy="131" fill="#ADD1B2" rx="11" ry="11" style="stroke:#181818;stroke-width:1.0;"/><path d="M24.4731,137.1431 Q23.8921,137.4419 23.2529,137.5913 Q22.6138,137.7407 21.9082,137.7407 Q19.4014,137.7407 18.0815,136.0889 Q16.7617,134.437 16.7617,131.3159 Q16.7617,128.1865 18.0815,126.5347 Q19.4014,124.8828 21.9082,124.8828 Q22.6138,124.8828 23.2612,125.0322 Q23.9087,125.1816 24.4731,125.4805 L24.4731,128.2031 Q23.8423,127.6221 23.2488,127.3523 Q22.6553,127.0825 22.0244,127.0825 Q20.6797,127.0825 19.9949,128.1492 Q19.3101,129.2158 19.3101,131.3159 Q19.3101,133.4077 19.9949,134.4744 Q20.6797,135.541 22.0244,135.541 Q22.6553,135.541 23.2488,135.2712 Q23.8423,135.0015 24.4731,134.4204 Z " fill="#000000"/><text fill="#000000" font-family="sans-serif" font-size="14" lengthAdjust="spacing" textLength="8" x="36" y="136.291">E</text><line style="stroke:#181818;stroke-width:0.5;" x1="8" x2="46" y1="147" y2="147"/><line style="stroke:#181818;stroke-width:0.5;" x1="8" x2="46" y1="155" y2="155"/></g><!--class K1--><g id="elem_K1"><rect codeLine="9" fill="#F1F1F1" height="48" id="K1" rx="2.5" ry="2.5" style="stroke:#181818;stroke-width:0.5;" width="50" x="239" y="223"/><ellipse cx="254" cy="239" fill="#ADD1B2" rx="11" ry="11" style="stroke:#181818;stroke-width:1.0;"/><path d="M256.4731,245.1431 Q255.8921,245.4419 255.2529,245.5913 Q254.6138,245.7407 253.9082,245.7407 Q251.4014,245.7407 250.0815,244.0889 Q248.7617,242.437 248.7617,239.3159 Q248.7617,236.1865 250.0815,234.5347 Q251.4014,232.8828 253.9082,232.8828 Q254.6138,232.8828 255.2612,233.0322 Q255.9087,233.1816 256.4731,233.4805 L256.4731,236.2031 Q255.8423,235.6221 255.2488,235.3523 Q254.6553,235.0825 254.0244,235.0825 Q252.6797,235.0825 251.9949,236.1492 Q251.3101,237.2158 251.3101,239.3159 Q251.3101,241.4077 251.9949,242.4744 Q252.6797,243.541 254.0244,243.541 Q254.6553,243.541 255.2488,243.2712 Q255.8423,243.0015 256.4731,242.4204 Z " fill="#000000"/><text fill="#000000" font-family="sans-serif" font-size="14" lengthAdjust="spacing" textLength="18" x="268" y="244.291">K1</text><line style="stroke:#181818;stroke-width:0.5;" x1="240" x2="288" y1="255" y2="255"/><line style="stroke:#181818;stroke-width:0.5;" x1="240" x2="288" y1="263" y2="263"/></g><!--class K2--><g id="elem_K2"><rect codeLine="10" fill="#F1F1F1" height="48" id="K2" rx="2.5" ry="2.5" style="stroke:#181818;stroke-width:0.5;" width="50" x="69" y="223"/><ellipse cx="84" cy="239" fill="#ADD1B2" rx="11" ry="11" style="stroke:#181818;stroke-width:1.0;"/><path d="M86.4731,245.1431 Q85.8921,245.4419 85.2529,245.5913 Q84.6138,245.7407 83.9082,245.7407 Q81.4014,245.7407 80.0815,244.0889 Q78.7617,242.437 78.7617,239.3159 Q78.7617,236.1865 80.0815,234.5347 Q81.4014,232.8828 83.9082,232.8828 Q84.6138,232.8828 85.2612,233.0322 Q85.9087,233.1816 86.4731,233.4805 L86.4731,236.2031 Q85.8423,235.6221 85.2488,235.3523 Q84.6553,235.0825 84.0244,235.0825 Q82.6797,235.0825 81.9949,236.1492 Q81.3101,237.2158 81.3101,239.3159 Q81.3101,241.4077 81.9949,242.4744 Q82.6797,243.541 84.0244,243.541 Q84.6553,243.541 85.2488,243.2712 Q85.8423,243.0015 86.4731,242.4204 Z " fill="#000000"/><text fill="#000000" font-family="sans-serif" font-size="14" lengthAdjust="spacing" textLength="18" x="98" y="244.291">K2</text><line style="stroke:#181818;stroke-width:0.5;" x1="70" x2="118" y1="255" y2="255"/><line style="stroke:#181818;stroke-width:0.5;" x1="70" x2="118" y1="263" y2="263"/></g><!--class K3--><g id="elem_K3"><rect codeLine="11" fill="#F1F1F1" height="48" id="K3" rx="2.5" ry="2.5" style="stroke:#181818;stroke-width:0.5;" width="50" x="154" y="223"/><ellipse cx="169" cy="239" fill="#ADD1B2" rx="11" ry="11" style="stroke:#181818;stroke-width:1.0;"/><path d="M171.4731,245.1431 Q170.8921,245.4419 170.2529,245.5913 Q169.6138,245.7407 168.9082,245.7407 Q166.4014,245.7407 165.0815,244.0889 Q163.7617,242.437 163.7617,239.3159 Q163.7617,236.1865 165.0815,234.5347 Q166.4014,232.8828 168.9082,232.8828 Q169.6138,232.8828 170.2612,233.0322 Q170.9087,233.1816 171.4731,233.4805 L171.4731,236.2031 Q170.8423,235.6221 170.2488,235.3523 Q169.6553,235.0825 169.0244,235.0825 Q167.6797,235.0825 166.9949,236.1492 Q166.3101,237.2158 166.3101,239.3159 Q166.3101,241.4077 166.9949,242.4744 Q167.6797,243.541 169.0244,243.541 Q169.6553,243.541 170.2488,243.2712 Q170.8423,243.0015 171.4731,242.4204 Z " fill="#000000"/><text fill="#000000" font-family="sans-serif" font-size="14" lengthAdjust="spacing" textLength="18" x="183" y="244.291">K3</text><line style="stroke:#181818;stroke-width:0.5;" x1="155" x2="203" y1="255" y2="255"/><line style="stroke:#181818;stroke-width:0.5;" x1="155" x2="203" y1="263" y2="263"/></g><!--class Z--><g id="elem_Z"><rect codeLine="13" fill="#F1F1F1" height="48" id="Z" rx="2.5" ry="2.5" style="stroke:#181818;stroke-width:0.5;" width="40" x="159" y="331"/><ellipse cx="174" cy="347" fill="#ADD1B2" rx="11" ry="11" style="stroke:#181818;stroke-width:1.0;"/><path d="M176.4731,353.1431 Q175.8921,353.4419 175.2529,353.5913 Q174.6138,353.7407 173.9082,353.7407 Q171.4014,353.7407 170.0815,352.0889 Q168.7617,350.437 168.7617,347.3159 Q168.7617,344.1865 170.0815,342.5347 Q171.4014,340.8828 173.9082,340.8828 Q174.6138,340.8828 175.2612,341.0322 Q175.9087,341.1816 176.4731,341.4805 L176.4731,344.2031 Q175.8423,343.6221 175.2488,343.3523 Q174.6553,343.0825 174.0244,343.0825 Q172.6797,343.0825 171.9949,344.1492 Q171.3101,345.2158 171.3101,347.3159 Q171.3101,349.4077 171.9949,350.4744 Q172.6797,351.541 174.0244,351.541 Q174.6553,351.541 175.2488,351.2712 Q175.8423,351.0015 176.4731,350.4204 Z " fill="#000000"/><text fill="#000000" font-family="sans-serif" font-size="14" lengthAdjust="spacing" textLength="8" x="188" y="352.291">Z</text><line style="stroke:#181818;stroke-width:0.5;" x1="160" x2="198" y1="363" y2="363"/><line style="stroke:#181818;stroke-width:0.5;" x1="160" x2="198" y1="371" y2="371"/></g><!--reverse link O to A--><g id="link_O_A"><path codeLine="15" d="M207.96,72.39 C218.24,86.73 229.46,102.37 238.36,114.79 " fill="none" id="O-backto-A" style="stroke:#181818;stroke-width:1.0;"/><polygon fill="none" points="202.53,76.82,196.56,56.49,213.9,68.67,202.53,76.82" style="stroke:#181818;stroke-width:1.0;"/></g><!--reverse link O to B--><g id="link_O_B"><path codeLine="16" d="M179,76.72 C179,89.82 179,103.62 179,114.79 " fill="none" id="O-backto-B" style="stroke:#181818;stroke-width:1.0;"/><polygon fill="none" points="172,76.78,179,56.78,186,76.78,172,76.78" style="stroke:#181818;stroke-width:1.0;"/></g><!--reverse link O to C--><g id="link_O_C"><path codeLine="17" d="M218.58,59.42 C247.94,79.76 286.84,106.71 310.61,123.18 " fill="none" id="O-backto-C" style="stroke:#181818;stroke-width:1.0;"/><polygon fill="none" points="214.62,65.19,202.17,48.05,222.59,53.68,214.62,65.19" style="stroke:#181818;stroke-width:1.0;"/></g><!--reverse link O to D--><g id="link_O_D"><path codeLine="18" d="M150.04,72.39 C139.76,86.73 128.54,102.37 119.64,114.79 " fill="none" id="O-backto-D" style="stroke:#181818;stroke-width:1.0;"/><polygon fill="none" points="144.1,68.67,161.44,56.49,155.47,76.82,144.1,68.67" style="stroke:#181818;stroke-width:1.0;"/></g><!--reverse link O to E--><g id="link_O_E"><path codeLine="19" d="M139.88,59.28 C110.29,79.92 70.85,107.42 47.28,123.86 " fill="none" id="O-backto-E" style="stroke:#181818;stroke-width:1.0;"/><polygon fill="none" points="135.57,53.75,155.98,48.05,143.58,65.23,135.57,53.75" style="stroke:#181818;stroke-width:1.0;"/></g><!--reverse link A to K1--><g id="link_A_K1"><path codeLine="21" d="M258.76,184.24 C259.88,197.48 261.07,211.48 262.03,222.79 " fill="none" id="A-backto-K1" style="stroke:#181818;stroke-width:1.0;"/><polygon fill="none" points="251.82,185.29,257.1,164.77,265.77,184.11,251.82,185.29" style="stroke:#181818;stroke-width:1.0;"/></g><!--reverse link B to K1--><g id="link_B_K1"><path codeLine="22" d="M211,179.91 C222.61,194.38 235.32,210.24 245.39,222.79 " fill="none" id="B-backto-K1" style="stroke:#181818;stroke-width:1.0;"/><polygon fill="none" points="205.65,184.43,198.6,164.44,216.57,175.67,205.65,184.43" style="stroke:#181818;stroke-width:1.0;"/></g><!--reverse link C to K1--><g id="link_C_K1"><path codeLine="23" d="M305.48,181.34 C296.45,195.42 286.68,210.65 278.89,222.79 " fill="none" id="C-backto-K1" style="stroke:#181818;stroke-width:1.0;"/><polygon fill="none" points="299.57,177.59,316.26,164.54,311.35,185.15,299.57,177.59" style="stroke:#181818;stroke-width:1.0;"/></g><!--reverse link D to K2--><g id="link_D_K2"><path codeLine="25" d="M99.24,184.24 C98.12,197.48 96.93,211.48 95.97,222.79 " fill="none" id="D-backto-K2" style="stroke:#181818;stroke-width:1.0;"/><polygon fill="none" points="92.23,184.11,100.9,164.77,106.18,185.29,92.23,184.11" style="stroke:#181818;stroke-width:1.0;"/></g><!--reverse link B to K2--><g id="link_B_K2"><path codeLine="26" d="M147,179.91 C135.39,194.38 122.68,210.24 112.61,222.79 " fill="none" id="B-backto-K2" style="stroke:#181818;stroke-width:1.0;"/><polygon fill="none" points="141.43,175.67,159.4,164.44,152.35,184.43,141.43,175.67" style="stroke:#181818;stroke-width:1.0;"/></g><!--reverse link E to K2--><g id="link_E_K2"><path codeLine="27" d="M53.13,181.34 C62.03,195.42 71.66,210.65 79.33,222.79 " fill="none" id="E-backto-K2" style="stroke:#181818;stroke-width:1.0;"/><polygon fill="none" points="47.28,185.19,42.51,164.54,59.12,177.71,47.28,185.19" style="stroke:#181818;stroke-width:1.0;"/></g><!--reverse link D to K3--><g id="link_D_K3"><path codeLine="29" d="M131.96,180.39 C142.24,194.73 153.46,210.37 162.36,222.79 " fill="none" id="D-backto-K3" style="stroke:#181818;stroke-width:1.0;"/><polygon fill="none" points="126.53,184.82,120.56,164.49,137.9,176.67,126.53,184.82" style="stroke:#181818;stroke-width:1.0;"/></g><!--reverse link A to K3--><g id="link_A_K3"><path codeLine="30" d="M226.04,180.39 C215.76,194.73 204.54,210.37 195.64,222.79 " fill="none" id="A-backto-K3" style="stroke:#181818;stroke-width:1.0;"/><polygon fill="none" points="220.1,176.67,237.44,164.49,231.47,184.82,220.1,176.67" style="stroke:#181818;stroke-width:1.0;"/></g><!--reverse link K1 to Z--><g id="link_K1_Z"><path codeLine="32" d="M232,287.91 C220.39,302.38 207.68,318.24 197.61,330.79 " fill="none" id="K1-backto-Z" style="stroke:#181818;stroke-width:1.0;"/><polygon fill="none" points="226.43,283.67,244.4,272.44,237.35,292.43,226.43,283.67" style="stroke:#181818;stroke-width:1.0;"/></g><!--reverse link K2 to Z--><g id="link_K2_Z"><path codeLine="33" d="M126,287.91 C137.61,302.38 150.32,318.24 160.39,330.79 " fill="none" id="K2-backto-Z" style="stroke:#181818;stroke-width:1.0;"/><polygon fill="none" points="120.65,292.43,113.6,272.44,131.57,283.67,120.65,292.43" style="stroke:#181818;stroke-width:1.0;"/></g><!--reverse link K3 to Z--><g id="link_K3_Z"><path codeLine="34" d="M179,292.72 C179,305.82 179,319.62 179,330.79 " fill="none" id="K3-backto-Z" style="stroke:#181818;stroke-width:1.0;"/><polygon fill="none" points="172,292.78,179,272.78,186,292.78,172,292.78" style="stroke:#181818;stroke-width:1.0;"/></g><!--SRC=[HSmx3e0W48JXVa_11IY0teHNHK5lPsZjY9LwTr79JFTbyy-sVUjTrVCMQH_zuAy0HIX1cPDYS2sMT2pMbrxfGr-BgXAW22KeGrBCj2S36KTXfnCPo3mAnyBXdQoJnP2MTF80]--></g></svg>