<?xml version="1.0" encoding="us-ascii" standalone="no"?><svg xmlns="http://www.w3.org/2000/svg" xmlns:xlink="http://www.w3.org/1999/xlink" contentStyleType="text/css" height="235px" preserveAspectRatio="none" style="width:381px;height:235px;background:#FFFFFF;" version="1.1" viewBox="0 0 381 235" width="381px" zoomAndPan="magnify"><defs/><g><!--class Order--><g id="elem_Order"><rect codeLine="2" fill="#F1F1F1" height="80.9766" id="Order" rx="2.5" ry="2.5" style="stroke:#181818;stroke-width:0.5;" width="145" x="7" y="148"/><ellipse cx="55.25" cy="164" fill="#ADD1B2" rx="11" ry="11" style="stroke:#181818;stroke-width:1.0;"/><path d="M57.7231,170.1431 Q57.1421,170.4419 56.5029,170.5913 Q55.8638,170.7407 55.1582,170.7407 Q52.6514,170.7407 51.3315,169.0889 Q50.0117,167.437 50.0117,164.3159 Q50.0117,161.1865 51.3315,159.5347 Q52.6514,157.8828 55.1582,157.8828 Q55.8638,157.8828 56.5112,158.0322 Q57.1587,158.1816 57.7231,158.4805 L57.7231,161.2031 Q57.0923,160.6221 56.4988,160.3523 Q55.9053,160.0825 55.2744,160.0825 Q53.9297,160.0825 53.2449,161.1492 Q52.5601,162.2158 52.5601,164.3159 Q52.5601,166.4077 53.2449,167.4744 Q53.9297,168.541 55.2744,168.541 Q55.9053,168.541 56.4988,168.2712 Q57.0923,168.0015 57.7231,167.4204 Z " fill="#000000"/><text fill="#000000" font-family="sans-serif" font-size="14" lengthAdjust="spacing" textLength="40" x="75.75" y="169.291">Order</text><line style="stroke:#181818;stroke-width:0.5;" x1="8" x2="151" y1="180" y2="180"/><rect fill="none" height="6" style="stroke:#C82930;stroke-width:1.0;" width="6" x="15" y="190.7441"/><text fill="#000000" font-family="sans-serif" font-size="14" lengthAdjust="spacing" textLength="119" x="27" y="197.5352">orderNumber: int</text><rect fill="none" height="6" style="stroke:#C82930;stroke-width:1.0;" width="6" x="15" y="207.2324"/><text fill="#000000" font-family="sans-serif" font-size="14" lengthAdjust="spacing" textLength="107" x="27" y="214.0234">orderDate: date</text><line style="stroke:#181818;stroke-width:0.5;" x1="8" x2="151" y1="220.9766" y2="220.9766"/></g><!--class Customer--><g id="elem_Customer"><rect codeLine="7" fill="#F1F1F1" height="80.9766" id="Customer" rx="2.5" ry="2.5" style="stroke:#181818;stroke-width:0.5;" width="155" x="102" y="7"/><ellipse cx="142.2" cy="23" fill="#ADD1B2" rx="11" ry="11" style="stroke:#181818;stroke-width:1.0;"/><path d="M144.6731,29.1431 Q144.0921,29.4419 143.4529,29.5913 Q142.8138,29.7407 142.1082,29.7407 Q139.6014,29.7407 138.2815,28.0889 Q136.9617,26.437 136.9617,23.3159 Q136.9617,20.1865 138.2815,18.5347 Q139.6014,16.8828 142.1082,16.8828 Q142.8138,16.8828 143.4612,17.0322 Q144.1087,17.1816 144.6731,17.4805 L144.6731,20.2031 Q144.0423,19.6221 143.4488,19.3523 Q142.8553,19.0825 142.2244,19.0825 Q140.8797,19.0825 140.1949,20.1492 Q139.5101,21.2158 139.5101,23.3159 Q139.5101,25.4077 140.1949,26.4744 Q140.8797,27.541 142.2244,27.541 Q142.8553,27.541 143.4488,27.2712 Q144.0423,27.0015 144.6731,26.4204 Z " fill="#000000"/><text fill="#000000" font-family="sans-serif" font-size="14" lengthAdjust="spacing" textLength="67" x="161.8" y="28.291">Customer</text><line style="stroke:#181818;stroke-width:0.5;" x1="103" x2="256" y1="39" y2="39"/><rect fill="none" height="6" style="stroke:#C82930;stroke-width:1.0;" width="6" x="110" y="49.7441"/><text fill="#000000" font-family="sans-serif" font-size="14" lengthAdjust="spacing" textLength="103" x="122" y="56.5352">customerId: int</text><rect fill="none" height="6" style="stroke:#C82930;stroke-width:1.0;" width="6" x="110" y="66.2324"/><text fill="#000000" font-family="sans-serif" font-size="14" lengthAdjust="spacing" textLength="129" x="122" y="73.0234">customerName: str</text><line style="stroke:#181818;stroke-width:0.5;" x1="103" x2="256" y1="79.9766" y2="79.9766"/></g><!--class CustomerOrderHistory--><g id="elem_CustomerOrderHistory"><rect codeLine="12" fill="#F1F1F1" height="80.9766" id="CustomerOrderHistory" rx="2.5" ry="2.5" style="stroke:#181818;stroke-width:0.5;" width="187" x="187" y="148"/><ellipse cx="202" cy="164" fill="#ADD1B2" rx="11" ry="11" style="stroke:#181818;stroke-width:1.0;"/><path d="M204.4731,170.1431 Q203.8921,170.4419 203.2529,170.5913 Q202.6138,170.7407 201.9082,170.7407 Q199.4014,170.7407 198.0815,169.0889 Q196.7617,167.437 196.7617,164.3159 Q196.7617,161.1865 198.0815,159.5347 Q199.4014,157.8828 201.9082,157.8828 Q202.6138,157.8828 203.2612,158.0322 Q203.9087,158.1816 204.4731,158.4805 L204.4731,161.2031 Q203.8423,160.6221 203.2488,160.3523 Q202.6553,160.0825 202.0244,160.0825 Q200.6797,160.0825 199.9949,161.1492 Q199.3101,162.2158 199.3101,164.3159 Q199.3101,166.4077 199.9949,167.4744 Q200.6797,168.541 202.0244,168.541 Q202.6553,168.541 203.2488,168.2712 Q203.8423,168.0015 204.4731,167.4204 Z " fill="#000000"/><text fill="#000000" font-family="sans-serif" font-size="14" lengthAdjust="spacing" textLength="155" x="216" y="169.291">CustomerOrderHistory</text><line style="stroke:#181818;stroke-width:0.5;" x1="188" x2="373" y1="180" y2="180"/><rect fill="none" height="6" style="stroke:#C82930;stroke-width:1.0;" width="6" x="195" y="190.7441"/><text fill="#000000" font-family="sans-serif" font-size="14" lengthAdjust="spacing" textLength="103" x="207" y="197.5352">customerId: int</text><rect fill="none" height="6" style="stroke:#C82930;stroke-width:1.0;" width="6" x="195" y="207.2324"/><text fill="#000000" font-family="sans-serif" font-size="14" lengthAdjust="spacing" textLength="123" x="207" y="214.0234">orders: list[Order]</text><line style="stroke:#181818;stroke-width:0.5;" x1="188" x2="373" y1="220.9766" y2="220.9766"/></g><!--reverse link Customer to Order--><g id="link_Customer_Order"><path codeLine="17" d="M142.42,100.05 C131.1,115.78 118.83,132.83 108.16,147.66 " fill="none" id="Customer-backto-Order" style="stroke:#181818;stroke-width:1.0;"/><polygon fill="none" points="149.96,89.56,143.2105,92.0985,142.9577,99.3052,149.7073,96.7667,149.96,89.56" style="stroke:#181818;stroke-width:1.0;"/><text fill="#000000" font-family="sans-serif" font-size="13" lengthAdjust="spacing" textLength="8" x="137.6348" y="108.6276">1</text><text fill="#000000" font-family="sans-serif" font-size="13" lengthAdjust="spacing" textLength="22" x="89.0849" y="137.2497">0..*</text></g><!--reverse link Customer to CustomerOrderHistory--><g id="link_Customer_CustomerOrderHistory"><path codeLine="18" d="M216.96,100.05 C228.39,115.78 240.78,132.83 251.55,147.66 " fill="none" id="Customer-backto-CustomerOrderHistory" style="stroke:#181818;stroke-width:1.0;"/><polygon fill="none" points="209.33,89.56,209.6223,96.7652,216.3857,99.2665,216.0934,92.0614,209.33,89.56" style="stroke:#181818;stroke-width:1.0;"/><text fill="#000000" font-family="sans-serif" font-size="13" lengthAdjust="spacing" textLength="8" x="204.4148" y="108.6276">1</text><text fill="#000000" font-family="sans-serif" font-size="13" lengthAdjust="spacing" textLength="8" x="238.0927" y="137.2497">1</text></g><!--SRC=[Iyv9B2vMy2zAIIrIgEPIKD1Lo0Un_KfparABh1GoyqeGWYw99QbM2Yb0agkMYoiPhDEvjBWaFnUkEHdAzKn1w8M9-INc0hKNbnHXwWRRxv49v1HLuZ49x8fYAuKSeCfei9vOa5bmDoWPAYdaw-egA1dewMafGNo5HHP8OxCO0000]--></g></svg>