<?xml version="1.0" encoding="us-ascii" standalone="no"?><svg xmlns="http://www.w3.org/2000/svg" xmlns:xlink="http://www.w3.org/1999/xlink" contentStyleType="text/css" height="111px" preserveAspectRatio="none" style="width:540px;height:111px;background:#FFFFFF;" version="1.1" viewBox="0 0 540 111" width="540px" zoomAndPan="magnify"><defs/><g><!--class Order--><g id="elem_Order"><rect codeLine="3" fill="#F1F1F1" height="80.9766" id="Order" rx="2.5" ry="2.5" style="stroke:#181818;stroke-width:0.5;" width="94" x="215" y="15"/><ellipse cx="239.9" cy="31" fill="#ADD1B2" rx="11" ry="11" style="stroke:#181818;stroke-width:1.0;"/><path d="M242.3731,37.1431 Q241.7921,37.4419 241.1529,37.5913 Q240.5138,37.7407 239.8082,37.7407 Q237.3014,37.7407 235.9815,36.0889 Q234.6617,34.437 234.6617,31.3159 Q234.6617,28.1865 235.9815,26.5347 Q237.3014,24.8828 239.8082,24.8828 Q240.5138,24.8828 241.1612,25.0322 Q241.8087,25.1816 242.3731,25.4805 L242.3731,28.2031 Q241.7423,27.6221 241.1488,27.3523 Q240.5553,27.0825 239.9244,27.0825 Q238.5797,27.0825 237.8949,28.1492 Q237.2101,29.2158 237.2101,31.3159 Q237.2101,33.4077 237.8949,34.4744 Q238.5797,35.541 239.9244,35.541 Q240.5553,35.541 241.1488,35.2712 Q241.7423,35.0015 242.3731,34.4204 Z " fill="#000000"/><text fill="#000000" font-family="sans-serif" font-size="14" lengthAdjust="spacing" textLength="40" x="256.1" y="36.291">Order</text><line style="stroke:#181818;stroke-width:0.5;" x1="216" x2="308" y1="47" y2="47"/><ellipse cx="226" cy="60.7441" fill="none" rx="3" ry="3" style="stroke:#038048;stroke-width:1.0;"/><text fill="#000000" font-family="sans-serif" font-size="14" lengthAdjust="spacing" textLength="39" x="235" y="64.5352">id: int</text><ellipse cx="226" cy="77.2324" fill="none" rx="3" ry="3" style="stroke:#038048;stroke-width:1.0;"/><text fill="#000000" font-family="sans-serif" font-size="14" lengthAdjust="spacing" textLength="68" x="235" y="81.0234">date: date</text><line style="stroke:#181818;stroke-width:0.5;" x1="216" x2="308" y1="87.9766" y2="87.9766"/></g><!--class Customer--><g id="elem_Customer"><rect codeLine="8" fill="#F1F1F1" height="97.4648" id="Customer" rx="2.5" ry="2.5" style="stroke:#181818;stroke-width:0.5;" width="106" x="7" y="7"/><ellipse cx="25.15" cy="23" fill="#ADD1B2" rx="11" ry="11" style="stroke:#181818;stroke-width:1.0;"/><path d="M27.6231,29.1431 Q27.0421,29.4419 26.4029,29.5913 Q25.7638,29.7407 25.0582,29.7407 Q22.5514,29.7407 21.2315,28.0889 Q19.9117,26.437 19.9117,23.3159 Q19.9117,20.1865 21.2315,18.5347 Q22.5514,16.8828 25.0582,16.8828 Q25.7638,16.8828 26.4112,17.0322 Q27.0587,17.1816 27.6231,17.4805 L27.6231,20.2031 Q26.9923,19.6221 26.3988,19.3523 Q25.8053,19.0825 25.1744,19.0825 Q23.8297,19.0825 23.1449,20.1492 Q22.4601,21.2158 22.4601,23.3159 Q22.4601,25.4077 23.1449,26.4744 Q23.8297,27.541 25.1744,27.541 Q25.8053,27.541 26.3988,27.2712 Q26.9923,27.0015 27.6231,26.4204 Z " fill="#000000"/><text fill="#000000" font-family="sans-serif" font-size="14" lengthAdjust="spacing" textLength="67" x="39.85" y="28.291">Customer</text><line style="stroke:#181818;stroke-width:0.5;" x1="8" x2="112" y1="39" y2="39"/><ellipse cx="18" cy="52.7441" fill="none" rx="3" ry="3" style="stroke:#038048;stroke-width:1.0;"/><text fill="#000000" font-family="sans-serif" font-size="14" lengthAdjust="spacing" textLength="39" x="27" y="56.5352">id: int</text><ellipse cx="18" cy="69.2324" fill="none" rx="3" ry="3" style="stroke:#038048;stroke-width:1.0;"/><text fill="#000000" font-family="sans-serif" font-size="14" lengthAdjust="spacing" textLength="64" x="27" y="73.0234">name: str</text><ellipse cx="18" cy="85.7207" fill="none" rx="3" ry="3" style="stroke:#038048;stroke-width:1.0;"/><text fill="#000000" font-family="sans-serif" font-size="14" lengthAdjust="spacing" textLength="80" x="27" y="89.5117">address: str</text><line style="stroke:#181818;stroke-width:0.5;" x1="8" x2="112" y1="96.4648" y2="96.4648"/></g><!--class OrderItem--><g id="elem_OrderItem"><rect codeLine="14" fill="#F1F1F1" height="80.9766" id="OrderItem" rx="2.5" ry="2.5" style="stroke:#181818;stroke-width:0.5;" width="108" x="425" y="15"/><ellipse cx="442.7" cy="31" fill="#ADD1B2" rx="11" ry="11" style="stroke:#181818;stroke-width:1.0;"/><path d="M445.1731,37.1431 Q444.5921,37.4419 443.9529,37.5913 Q443.3138,37.7407 442.6082,37.7407 Q440.1014,37.7407 438.7815,36.0889 Q437.4617,34.437 437.4617,31.3159 Q437.4617,28.1865 438.7815,26.5347 Q440.1014,24.8828 442.6082,24.8828 Q443.3138,24.8828 443.9612,25.0322 Q444.6087,25.1816 445.1731,25.4805 L445.1731,28.2031 Q444.5423,27.6221 443.9488,27.3523 Q443.3553,27.0825 442.7244,27.0825 Q441.3797,27.0825 440.6949,28.1492 Q440.0101,29.2158 440.0101,31.3159 Q440.0101,33.4077 440.6949,34.4744 Q441.3797,35.541 442.7244,35.541 Q443.3553,35.541 443.9488,35.2712 Q444.5423,35.0015 445.1731,34.4204 Z " fill="#000000"/><text fill="#000000" font-family="sans-serif" font-size="14" lengthAdjust="spacing" textLength="70" x="457.3" y="36.291">OrderItem</text><line style="stroke:#181818;stroke-width:0.5;" x1="426" x2="532" y1="47" y2="47"/><ellipse cx="436" cy="60.7441" fill="none" rx="3" ry="3" style="stroke:#038048;stroke-width:1.0;"/><text fill="#000000" font-family="sans-serif" font-size="14" lengthAdjust="spacing" textLength="39" x="445" y="64.5352">id: int</text><ellipse cx="436" cy="77.2324" fill="none" rx="3" ry="3" style="stroke:#038048;stroke-width:1.0;"/><text fill="#000000" font-family="sans-serif" font-size="14" lengthAdjust="spacing" textLength="82" x="445" y="81.0234">quantity: int</text><line style="stroke:#181818;stroke-width:0.5;" x1="426" x2="532" y1="87.9766" y2="87.9766"/></g><!--link Customer to Order--><g id="link_Customer_Order"><path codeLine="19" d="M113.29,55.5 C142.68,55.5 179.25,55.5 208.65,55.5 " fill="none" id="Customer-to-Order" style="stroke:#181818;stroke-width:1.0;"/><polygon fill="#181818" points="213.3,55.5,204.3,51.5,208.3,55.5,204.3,59.5,213.3,55.5" style="stroke:#181818;stroke-width:1.0;"/><text fill="#000000" font-family="sans-serif" font-size="13" lengthAdjust="spacing" textLength="40" x="144" y="52.0684">places</text><text fill="#000000" font-family="sans-serif" font-size="13" lengthAdjust="spacing" textLength="8" x="120.9883" y="69.0658">1</text><text fill="#000000" font-family="sans-serif" font-size="13" lengthAdjust="spacing" textLength="22" x="184.9907" y="69.0986">0..*</text></g><!--link Order to OrderItem--><g id="link_Order_OrderItem"><path codeLine="20" d="M309.39,55.5 C341.35,55.5 384.09,55.5 418.55,55.5 " fill="none" id="Order-to-OrderItem" style="stroke:#181818;stroke-width:1.0;"/><polygon fill="#181818" points="423.37,55.5,414.37,51.5,418.37,55.5,414.37,59.5,423.37,55.5" style="stroke:#181818;stroke-width:1.0;"/><text fill="#000000" font-family="sans-serif" font-size="13" lengthAdjust="spacing" textLength="54" x="340" y="52.0684">contains</text><text fill="#000000" font-family="sans-serif" font-size="13" lengthAdjust="spacing" textLength="8" x="316.9379" y="69.1944">1</text><text fill="#000000" font-family="sans-serif" font-size="13" lengthAdjust="spacing" textLength="22" x="394.9435" y="69.0028">0..*</text></g><!--SRC=[ROun2m8n38Nt_ehGKRb3rmukJax-Xj163VHQRNA3oFrtpnO5eKj87j_BUv4k2fgXyFMc4BYGLyx961zH1CubK86N0TW21mUSjEu1bLoTPlconraqJrqyuRJYegLU648XaIOiVr4dfQdZVyoObFNPbDNoox9x2yDm0BiRnurjJnpS8teIqzhta4-E0v-J8YTv0m00]--></g></svg>