<?xml version="1.0" encoding="us-ascii" standalone="no"?><svg xmlns="http://www.w3.org/2000/svg" xmlns:xlink="http://www.w3.org/1999/xlink" contentStyleType="text/css" height="509px" preserveAspectRatio="none" style="width:439px;height:509px;background:#FFFFFF;" version="1.1" viewBox="0 0 439 509" width="439px" zoomAndPan="magnify"><defs/><g><!--class Order--><g id="elem_Order"><rect codeLine="2" fill="#F1F1F1" height="130.4414" id="Order" rx="2.5" ry="2.5" style="stroke:#181818;stroke-width:0.5;" width="234" x="198.5" y="7"/><ellipse cx="291.25" cy="23" fill="#ADD1B2" rx="11" ry="11" style="stroke:#181818;stroke-width:1.0;"/><path d="M293.7231,29.1431 Q293.1421,29.4419 292.5029,29.5913 Q291.8638,29.7407 291.1582,29.7407 Q288.6514,29.7407 287.3315,28.0889 Q286.0117,26.437 286.0117,23.3159 Q286.0117,20.1865 287.3315,18.5347 Q288.6514,16.8828 291.1582,16.8828 Q291.8638,16.8828 292.5112,17.0322 Q293.1587,17.1816 293.7231,17.4805 L293.7231,20.2031 Q293.0923,19.6221 292.4988,19.3523 Q291.9053,19.0825 291.2744,19.0825 Q289.9297,19.0825 289.2449,20.1492 Q288.5601,21.2158 288.5601,23.3159 Q288.5601,25.4077 289.2449,26.4744 Q289.9297,27.541 291.2744,27.541 Q291.9053,27.541 292.4988,27.2712 Q293.0923,27.0015 293.7231,26.4204 Z " fill="#000000"/><text fill="#000000" font-family="sans-serif" font-size="14" lengthAdjust="spacing" textLength="40" x="311.75" y="28.291">Order</text><line style="stroke:#181818;stroke-width:0.5;" x1="199.5" x2="431.5" y1="39" y2="39"/><rect fill="none" height="6" style="stroke:#C82930;stroke-width:1.0;" width="6" x="206.5" y="49.7441"/><text fill="#000000" font-family="sans-serif" font-size="14" lengthAdjust="spacing" textLength="77" x="218.5" y="56.5352">orderId: int</text><rect fill="none" height="6" style="stroke:#C82930;stroke-width:1.0;" width="6" x="206.5" y="66.2324"/><text fill="#000000" font-family="sans-serif" font-size="14" lengthAdjust="spacing" textLength="139" x="218.5" y="73.0234">customer: Customer</text><rect fill="none" height="6" style="stroke:#C82930;stroke-width:1.0;" width="6" x="206.5" y="82.7207"/><text fill="#000000" font-family="sans-serif" font-size="14" lengthAdjust="spacing" textLength="105" x="218.5" y="89.5117">items: list[Item]</text><line style="stroke:#181818;stroke-width:0.5;" x1="199.5" x2="431.5" y1="96.4648" y2="96.4648"/><ellipse cx="209.5" cy="110.209" fill="#84BE84" rx="3" ry="3" style="stroke:#038048;stroke-width:1.0;"/><text fill="#000000" font-family="sans-serif" font-size="14" lengthAdjust="spacing" textLength="208" x="218.5" y="114">addItems(item: Item) -&gt; None:</text><ellipse cx="209.5" cy="126.6973" fill="#84BE84" rx="3" ry="3" style="stroke:#038048;stroke-width:1.0;"/><text fill="#000000" font-family="sans-serif" font-size="14" lengthAdjust="spacing" textLength="139" x="218.5" y="130.4883">getTotalPrice(): float</text></g><!--class Customer--><g id="elem_Customer"><rect codeLine="10" fill="#F1F1F1" height="113.9531" id="Customer" rx="2.5" ry="2.5" style="stroke:#181818;stroke-width:0.5;" width="281" x="7" y="214"/><ellipse cx="109.75" cy="230" fill="#ADD1B2" rx="11" ry="11" style="stroke:#181818;stroke-width:1.0;"/><path d="M112.2231,236.1431 Q111.6421,236.4419 111.0029,236.5913 Q110.3638,236.7407 109.6582,236.7407 Q107.1514,236.7407 105.8315,235.0889 Q104.5117,233.437 104.5117,230.3159 Q104.5117,227.1865 105.8315,225.5347 Q107.1514,223.8828 109.6582,223.8828 Q110.3638,223.8828 111.0112,224.0322 Q111.6587,224.1816 112.2231,224.4805 L112.2231,227.2031 Q111.5923,226.6221 110.9988,226.3523 Q110.4053,226.0825 109.7744,226.0825 Q108.4297,226.0825 107.7449,227.1492 Q107.0601,228.2158 107.0601,230.3159 Q107.0601,232.4077 107.7449,233.4744 Q108.4297,234.541 109.7744,234.541 Q110.4053,234.541 110.9988,234.2712 Q111.5923,234.0015 112.2231,233.4204 Z " fill="#000000"/><text fill="#000000" font-family="sans-serif" font-size="14" lengthAdjust="spacing" textLength="67" x="130.25" y="235.291">Customer</text><line style="stroke:#181818;stroke-width:0.5;" x1="8" x2="287" y1="246" y2="246"/><rect fill="none" height="6" style="stroke:#C82930;stroke-width:1.0;" width="6" x="15" y="256.7441"/><text fill="#000000" font-family="sans-serif" font-size="14" lengthAdjust="spacing" textLength="103" x="27" y="263.5352">customerId: int</text><rect fill="none" height="6" style="stroke:#C82930;stroke-width:1.0;" width="6" x="15" y="273.2324"/><text fill="#000000" font-family="sans-serif" font-size="14" lengthAdjust="spacing" textLength="64" x="27" y="280.0234">name: str</text><rect fill="none" height="6" style="stroke:#C82930;stroke-width:1.0;" width="6" x="15" y="289.7207"/><text fill="#000000" font-family="sans-serif" font-size="14" lengthAdjust="spacing" textLength="118" x="27" y="296.5117">address: Address</text><line style="stroke:#181818;stroke-width:0.5;" x1="8" x2="287" y1="303.4648" y2="303.4648"/><ellipse cx="18" cy="317.209" fill="#84BE84" rx="3" ry="3" style="stroke:#038048;stroke-width:1.0;"/><text fill="#000000" font-family="sans-serif" font-size="14" lengthAdjust="spacing" textLength="255" x="27" y="321">placeOrder(item: list[Item]) -&gt; Order:</text></g><!--class Item--><g id="elem_Item"><rect codeLine="17" fill="#F1F1F1" height="97.4648" id="Item" rx="2.5" ry="2.5" style="stroke:#181818;stroke-width:0.5;" width="99" x="323" y="222.5"/><ellipse cx="354.65" cy="238.5" fill="#ADD1B2" rx="11" ry="11" style="stroke:#181818;stroke-width:1.0;"/><path d="M357.1231,244.6431 Q356.5421,244.9419 355.9029,245.0913 Q355.2638,245.2407 354.5582,245.2407 Q352.0514,245.2407 350.7315,243.5889 Q349.4117,241.937 349.4117,238.8159 Q349.4117,235.6865 350.7315,234.0347 Q352.0514,232.3828 354.5582,232.3828 Q355.2638,232.3828 355.9112,232.5322 Q356.5587,232.6816 357.1231,232.9805 L357.1231,235.7031 Q356.4923,235.1221 355.8988,234.8523 Q355.3053,234.5825 354.6744,234.5825 Q353.3297,234.5825 352.6449,235.6492 Q351.9601,236.7158 351.9601,238.8159 Q351.9601,240.9077 352.6449,241.9744 Q353.3297,243.041 354.6744,243.041 Q355.3053,243.041 355.8988,242.7712 Q356.4923,242.5015 357.1231,241.9204 Z " fill="#000000"/><text fill="#000000" font-family="sans-serif" font-size="14" lengthAdjust="spacing" textLength="30" x="372.35" y="243.791">Item</text><line style="stroke:#181818;stroke-width:0.5;" x1="324" x2="421" y1="254.5" y2="254.5"/><rect fill="none" height="6" style="stroke:#C82930;stroke-width:1.0;" width="6" x="331" y="265.2441"/><text fill="#000000" font-family="sans-serif" font-size="14" lengthAdjust="spacing" textLength="69" x="343" y="272.0352">itemId: int</text><rect fill="none" height="6" style="stroke:#C82930;stroke-width:1.0;" width="6" x="331" y="281.7324"/><text fill="#000000" font-family="sans-serif" font-size="14" lengthAdjust="spacing" textLength="64" x="343" y="288.5234">name: str</text><rect fill="none" height="6" style="stroke:#C82930;stroke-width:1.0;" width="6" x="331" y="298.2207"/><text fill="#000000" font-family="sans-serif" font-size="14" lengthAdjust="spacing" textLength="73" x="343" y="305.0117">price: float</text><line style="stroke:#181818;stroke-width:0.5;" x1="324" x2="421" y1="311.9648" y2="311.9648"/></g><!--class Address--><g id="elem_Address"><rect codeLine="23" fill="#F1F1F1" height="97.4648" id="Address" rx="2.5" ry="2.5" style="stroke:#181818;stroke-width:0.5;" width="91" x="102" y="405"/><ellipse cx="118.35" cy="421" fill="#ADD1B2" rx="11" ry="11" style="stroke:#181818;stroke-width:1.0;"/><path d="M120.8231,427.1431 Q120.2421,427.4419 119.6029,427.5913 Q118.9638,427.7407 118.2582,427.7407 Q115.7514,427.7407 114.4315,426.0889 Q113.1117,424.437 113.1117,421.3159 Q113.1117,418.1865 114.4315,416.5347 Q115.7514,414.8828 118.2582,414.8828 Q118.9638,414.8828 119.6112,415.0322 Q120.2587,415.1816 120.8231,415.4805 L120.8231,418.2031 Q120.1923,417.6221 119.5988,417.3523 Q119.0053,417.0825 118.3744,417.0825 Q117.0297,417.0825 116.3449,418.1492 Q115.6601,419.2158 115.6601,421.3159 Q115.6601,423.4077 116.3449,424.4744 Q117.0297,425.541 118.3744,425.541 Q119.0053,425.541 119.5988,425.2712 Q120.1923,425.0015 120.8231,424.4204 Z " fill="#000000"/><text fill="#000000" font-family="sans-serif" font-size="14" lengthAdjust="spacing" textLength="56" x="132.65" y="426.291">Address</text><line style="stroke:#181818;stroke-width:0.5;" x1="103" x2="192" y1="437" y2="437"/><rect fill="none" height="6" style="stroke:#C82930;stroke-width:1.0;" width="6" x="110" y="447.7441"/><text fill="#000000" font-family="sans-serif" font-size="14" lengthAdjust="spacing" textLength="65" x="122" y="454.5352">street: str</text><rect fill="none" height="6" style="stroke:#C82930;stroke-width:1.0;" width="6" x="110" y="464.2324"/><text fill="#000000" font-family="sans-serif" font-size="14" lengthAdjust="spacing" textLength="49" x="122" y="471.0234">city: str</text><rect fill="none" height="6" style="stroke:#C82930;stroke-width:1.0;" width="6" x="110" y="480.7207"/><text fill="#000000" font-family="sans-serif" font-size="14" lengthAdjust="spacing" textLength="59" x="122" y="487.5117">state: str</text><line style="stroke:#181818;stroke-width:0.5;" x1="103" x2="192" y1="494.4648" y2="494.4648"/></g><!--reverse link Order to Customer--><g id="link_Order_Customer"><path codeLine="29" d="M251.43,148.13 C232.83,169.94 212.85,193.37 195.42,213.81 " fill="none" id="Order-backto-Customer" style="stroke:#181818;stroke-width:1.0;"/><polygon fill="#181818" points="259.74,138.38,252.8031,140.3497,251.9533,147.5106,258.8902,145.5409,259.74,138.38" style="stroke:#181818;stroke-width:1.0;"/><text fill="#000000" font-family="sans-serif" font-size="13" lengthAdjust="spacing" textLength="33" x="232.5" y="180.5684">has a</text><text fill="#000000" font-family="sans-serif" font-size="13" lengthAdjust="spacing" textLength="8" x="245.9236" y="158.2002">1</text><text fill="#000000" font-family="sans-serif" font-size="13" lengthAdjust="spacing" textLength="8" x="193.0473" y="203.1129">1</text></g><!--reverse link Customer to Address--><g id="link_Customer_Address"><path codeLine="30" d="M147.5,342.58 C147.5,363.37 147.5,385.62 147.5,404.63 " fill="none" id="Customer-backto-Address" style="stroke:#181818;stroke-width:1.0;"/><polygon fill="#181818" points="147.5,329.64,143.5,335.64,147.5,341.64,151.5,335.64,147.5,329.64" style="stroke:#181818;stroke-width:1.0;"/><text fill="#000000" font-family="sans-serif" font-size="13" lengthAdjust="spacing" textLength="33" x="148.5" y="371.5684">has a</text><text fill="#000000" font-family="sans-serif" font-size="13" lengthAdjust="spacing" textLength="8" x="139.0125" y="348.5857">1</text><text fill="#000000" font-family="sans-serif" font-size="13" lengthAdjust="spacing" textLength="8" x="138.9375" y="394.2605">1</text></g><!--reverse link Order to Item--><g id="link_Order_Item"><path codeLine="31" d="M338.1,151.11 C345.04,175.1 352.47,200.77 358.64,222.09 " fill="none" id="Order-backto-Item" style="stroke:#181818;stroke-width:1.0;"/><polygon fill="#181818" points="334.51,138.69,332.3361,145.5656,337.8467,150.2168,340.0206,143.3412,334.51,138.69" style="stroke:#181818;stroke-width:1.0;"/><text fill="#000000" font-family="sans-serif" font-size="13" lengthAdjust="spacing" textLength="60" x="347.5" y="180.5684">has many</text><text fill="#000000" font-family="sans-serif" font-size="13" lengthAdjust="spacing" textLength="22" x="312.9676" y="158.2002">0..*</text><text fill="#000000" font-family="sans-serif" font-size="13" lengthAdjust="spacing" textLength="22" x="333.1441" y="211.7149">1..*</text></g><!--SRC=[TP0nJmCn38Nt_0ghKrjq5QmPa11JbyB0XXYin42akwIAZL25-E_4IUvQWTYUxUUypt4ZCiD3zfJXom0CIUNUMmXHj7OVB6cYRE6-A-q6eOajZ87bUL_qIsbUeVUgUQrJ2wetCDp28KMoQdWZUKg2usCEZjOR2wzZGZ7VnhYACISqaZdv0YRYH1POAaE9oyI5ugu9JJYEwAXUqo7EX1MbZkmvKISjJUt_9HsLzmzjZsthnKaaouOBSbeA5fJ-M5bkVxswMS5syEap3bKlfrjuHmOqI-EtSuwTZVszwzrkUsciPJsl6IUCfny0]--></g></svg>