<?xml version="1.0" encoding="us-ascii" standalone="no"?><svg xmlns="http://www.w3.org/2000/svg" xmlns:xlink="http://www.w3.org/1999/xlink" contentStyleType="text/css" height="460px" preserveAspectRatio="none" style="width:651px;height:460px;background:#FFFFFF;" version="1.1" viewBox="0 0 651 460" width="651px" zoomAndPan="magnify"><defs/><g><!--class PaymentGateway--><g id="elem_PaymentGateway"><rect codeLine="1" fill="#F1F1F1" height="64.4883" id="PaymentGateway" rx="2.5" ry="2.5" style="stroke:#181818;stroke-width:0.5;" width="301" x="175" y="264"/><ellipse cx="263.75" cy="280" fill="#B4A7E5" rx="11" ry="11" style="stroke:#181818;stroke-width:1.0;"/><path d="M260.1777,276.2651 L260.1777,274.1069 L267.5571,274.1069 L267.5571,276.2651 L265.0918,276.2651 L265.0918,284.3418 L267.5571,284.3418 L267.5571,286.5 L260.1777,286.5 L260.1777,284.3418 L262.6431,284.3418 L262.6431,276.2651 Z " fill="#000000"/><text fill="#000000" font-family="sans-serif" font-size="14" font-style="italic" lengthAdjust="spacing" textLength="115" x="284.25" y="285.291">PaymentGateway</text><line style="stroke:#181818;stroke-width:0.5;" x1="176" x2="475" y1="296" y2="296"/><line style="stroke:#181818;stroke-width:0.5;" x1="176" x2="475" y1="304" y2="304"/><ellipse cx="186" cy="317.7441" fill="#84BE84" rx="3" ry="3" style="stroke:#038048;stroke-width:1.0;"/><text fill="#000000" font-family="sans-serif" font-size="14" lengthAdjust="spacing" textLength="275" x="195" y="321.5352">processPayment(amount: float) -&gt; bool:</text></g><!--class PayPal--><g id="elem_PayPal"><rect codeLine="5" fill="#F1F1F1" height="64.4883" id="PayPal" rx="2.5" ry="2.5" style="stroke:#181818;stroke-width:0.5;" width="301" x="7" y="389"/><ellipse cx="131.75" cy="405" fill="#ADD1B2" rx="11" ry="11" style="stroke:#181818;stroke-width:1.0;"/><path d="M134.2231,411.1431 Q133.6421,411.4419 133.0029,411.5913 Q132.3638,411.7407 131.6582,411.7407 Q129.1514,411.7407 127.8315,410.0889 Q126.5117,408.437 126.5117,405.3159 Q126.5117,402.1865 127.8315,400.5347 Q129.1514,398.8828 131.6582,398.8828 Q132.3638,398.8828 133.0112,399.0322 Q133.6587,399.1816 134.2231,399.4805 L134.2231,402.2031 Q133.5923,401.6221 132.9988,401.3523 Q132.4053,401.0825 131.7744,401.0825 Q130.4297,401.0825 129.7449,402.1492 Q129.0601,403.2158 129.0601,405.3159 Q129.0601,407.4077 129.7449,408.4744 Q130.4297,409.541 131.7744,409.541 Q132.4053,409.541 132.9988,409.2712 Q133.5923,409.0015 134.2231,408.4204 Z " fill="#000000"/><text fill="#000000" font-family="sans-serif" font-size="14" lengthAdjust="spacing" textLength="43" x="152.25" y="410.291">PayPal</text><line style="stroke:#181818;stroke-width:0.5;" x1="8" x2="307" y1="421" y2="421"/><line style="stroke:#181818;stroke-width:0.5;" x1="8" x2="307" y1="429" y2="429"/><ellipse cx="18" cy="442.7441" fill="#84BE84" rx="3" ry="3" style="stroke:#038048;stroke-width:1.0;"/><text fill="#000000" font-family="sans-serif" font-size="14" lengthAdjust="spacing" textLength="275" x="27" y="446.5352">processPayment(amount: float) -&gt; bool:</text></g><!--class CreditCardGateway--><g id="elem_CreditCardGateway"><rect codeLine="9" fill="#F1F1F1" height="64.4883" id="CreditCardGateway" rx="2.5" ry="2.5" style="stroke:#181818;stroke-width:0.5;" width="301" x="343" y="389"/><ellipse cx="423.25" cy="405" fill="#ADD1B2" rx="11" ry="11" style="stroke:#181818;stroke-width:1.0;"/><path d="M425.7231,411.1431 Q425.1421,411.4419 424.5029,411.5913 Q423.8638,411.7407 423.1582,411.7407 Q420.6514,411.7407 419.3315,410.0889 Q418.0117,408.437 418.0117,405.3159 Q418.0117,402.1865 419.3315,400.5347 Q420.6514,398.8828 423.1582,398.8828 Q423.8638,398.8828 424.5112,399.0322 Q425.1587,399.1816 425.7231,399.4805 L425.7231,402.2031 Q425.0923,401.6221 424.4988,401.3523 Q423.9053,401.0825 423.2744,401.0825 Q421.9297,401.0825 421.2449,402.1492 Q420.5601,403.2158 420.5601,405.3159 Q420.5601,407.4077 421.2449,408.4744 Q421.9297,409.541 423.2744,409.541 Q423.9053,409.541 424.4988,409.2712 Q425.0923,409.0015 425.7231,408.4204 Z " fill="#000000"/><text fill="#000000" font-family="sans-serif" font-size="14" lengthAdjust="spacing" textLength="132" x="443.75" y="410.291">CreditCardGateway</text><line style="stroke:#181818;stroke-width:0.5;" x1="344" x2="643" y1="421" y2="421"/><line style="stroke:#181818;stroke-width:0.5;" x1="344" x2="643" y1="429" y2="429"/><ellipse cx="354" cy="442.7441" fill="#84BE84" rx="3" ry="3" style="stroke:#038048;stroke-width:1.0;"/><text fill="#000000" font-family="sans-serif" font-size="14" lengthAdjust="spacing" textLength="275" x="363" y="446.5352">processPayment(amount: float) -&gt; bool:</text></g><!--class Payment--><g id="elem_Payment"><rect codeLine="13" fill="#F1F1F1" height="179.9063" id="Payment" rx="2.5" ry="2.5" style="stroke:#181818;stroke-width:0.5;" width="373" x="139" y="7"/><ellipse cx="292.25" cy="23" fill="#ADD1B2" rx="11" ry="11" style="stroke:#181818;stroke-width:1.0;"/><path d="M294.7231,29.1431 Q294.1421,29.4419 293.5029,29.5913 Q292.8638,29.7407 292.1582,29.7407 Q289.6514,29.7407 288.3315,28.0889 Q287.0117,26.437 287.0117,23.3159 Q287.0117,20.1865 288.3315,18.5347 Q289.6514,16.8828 292.1582,16.8828 Q292.8638,16.8828 293.5112,17.0322 Q294.1587,17.1816 294.7231,17.4805 L294.7231,20.2031 Q294.0923,19.6221 293.4988,19.3523 Q292.9053,19.0825 292.2744,19.0825 Q290.9297,19.0825 290.2449,20.1492 Q289.5601,21.2158 289.5601,23.3159 Q289.5601,25.4077 290.2449,26.4744 Q290.9297,27.541 292.2744,27.541 Q292.9053,27.541 293.4988,27.2712 Q294.0923,27.0015 294.7231,26.4204 Z " fill="#000000"/><text fill="#000000" font-family="sans-serif" font-size="14" lengthAdjust="spacing" textLength="58" x="312.75" y="28.291">Payment</text><line style="stroke:#181818;stroke-width:0.5;" x1="140" x2="511" y1="39" y2="39"/><rect fill="none" height="6" style="stroke:#C82930;stroke-width:1.0;" width="6" x="147" y="49.7441"/><text fill="#000000" font-family="sans-serif" font-size="14" lengthAdjust="spacing" textLength="92" x="159" y="56.5352">amount: float</text><rect fill="none" height="6" style="stroke:#C82930;stroke-width:1.0;" width="6" x="147" y="66.2324"/><text fill="#000000" font-family="sans-serif" font-size="14" lengthAdjust="spacing" textLength="179" x="159" y="73.0234">gateway: PaymentGateway</text><line style="stroke:#181818;stroke-width:0.5;" x1="140" x2="511" y1="79.9766" y2="79.9766"/><ellipse cx="150" cy="93.7207" fill="#84BE84" rx="3" ry="3" style="stroke:#038048;stroke-width:1.0;"/><text fill="#000000" font-family="sans-serif" font-size="14" lengthAdjust="spacing" textLength="347" x="159" y="97.5117">Payment(amount: float, gateway: PaymentGateway)</text><ellipse cx="150" cy="110.209" fill="#84BE84" rx="3" ry="3" style="stroke:#038048;stroke-width:1.0;"/><text fill="#000000" font-family="sans-serif" font-size="14" lengthAdjust="spacing" textLength="149" x="159" y="114">getAmount() -&gt; float:</text><ellipse cx="150" cy="126.6973" fill="#84BE84" rx="3" ry="3" style="stroke:#038048;stroke-width:1.0;"/><text fill="#000000" font-family="sans-serif" font-size="14" lengthAdjust="spacing" textLength="240" x="159" y="130.4883">setAmount(amount: float) -&gt; None</text><ellipse cx="150" cy="143.1855" fill="#84BE84" rx="3" ry="3" style="stroke:#038048;stroke-width:1.0;"/><text fill="#000000" font-family="sans-serif" font-size="14" lengthAdjust="spacing" textLength="235" x="159" y="146.9766">getGateway() -&gt; PaymentGateway:</text><ellipse cx="150" cy="159.6738" fill="#84BE84" rx="3" ry="3" style="stroke:#038048;stroke-width:1.0;"/><text fill="#000000" font-family="sans-serif" font-size="14" lengthAdjust="spacing" textLength="333" x="159" y="163.4648">setGateway(gateway: PaymentGateway) -&gt; None:</text><ellipse cx="150" cy="176.1621" fill="#84BE84" rx="3" ry="3" style="stroke:#038048;stroke-width:1.0;"/><text fill="#000000" font-family="sans-serif" font-size="14" lengthAdjust="spacing" textLength="183" x="159" y="179.9531">processPayment() -&gt; bool:</text></g><!--reverse link PaymentGateway to PayPal--><g id="link_PaymentGateway_PayPal"><path d="M265.6,340.86 C244,356.67 220.08,374.18 200.25,388.7 " fill="none" id="PaymentGateway-backto-PayPal" style="stroke:#181818;stroke-width:1.0;stroke-dasharray:7.0,7.0;"/><polygon fill="none" points="261.18,335.42,281.45,329.25,269.45,346.71,261.18,335.42" style="stroke:#181818;stroke-width:1.0;"/></g><!--reverse link PaymentGateway to CreditCardGateway--><g id="link_PaymentGateway_CreditCardGateway"><path d="M385.4,340.86 C407,356.67 430.92,374.18 450.75,388.7 " fill="none" id="PaymentGateway-backto-CreditCardGateway" style="stroke:#181818;stroke-width:1.0;stroke-dasharray:7.0,7.0;"/><polygon fill="none" points="381.55,346.71,369.55,329.25,389.82,335.42,381.55,346.71" style="stroke:#181818;stroke-width:1.0;"/></g><!--link Payment to PaymentGateway--><g id="link_Payment_PaymentGateway"><path codeLine="24" d="M325.5,187.28 C325.5,211.9 325.5,237.29 325.5,257.24 " fill="none" id="Payment-to-PaymentGateway" style="stroke:#181818;stroke-width:1.0;"/><polygon fill="#181818" points="325.5,262,329.5,253,325.5,257,321.5,253,325.5,262" style="stroke:#181818;stroke-width:1.0;"/><text fill="#000000" font-family="sans-serif" font-size="13" lengthAdjust="spacing" textLength="48" x="326.5" y="230.5684">realizes</text></g><!--SRC=[hP112eCm44NtESKibTOBP54eBhehNc6gemHY8acAsDAxbyIaODMTsvd_tXz6A4UcnPgWmgadvMxeQCG9tWpWD1XTaxLnbM6ldyfnQAL6bqDnWOVMahCFOxL4QxsZGWcY7oHvmXvYBGqrmfLecgGvk2060rmiqdxGpMh-L-MBDXlEi4Fa7kd8NKCw2vS4Wlk5_ItMzzwreWX7rqml_KcJ8djd92FV-DNoFUannQeBE1X2ALvasHS0]--></g></svg>