<?xml version="1.0" encoding="us-ascii" standalone="no"?><svg xmlns="http://www.w3.org/2000/svg" xmlns:xlink="http://www.w3.org/1999/xlink" contentStyleType="text/css" height="111px" preserveAspectRatio="none" style="width:789px;height:111px;background:#FFFFFF;" version="1.1" viewBox="0 0 789 111" width="789px" zoomAndPan="magnify"><defs/><g><!--class DataFetcher--><g id="elem_DataFetcher"><rect codeLine="2" fill="#F1F1F1" height="64.4883" id="DataFetcher" rx="2.5" ry="2.5" style="stroke:#181818;stroke-width:0.5;" width="195" x="332" y="23.5"/><ellipse cx="384.25" cy="39.5" fill="#B4A7E5" rx="11" ry="11" style="stroke:#181818;stroke-width:1.0;"/><path d="M380.6777,35.7651 L380.6777,33.6069 L388.0571,33.6069 L388.0571,35.7651 L385.5918,35.7651 L385.5918,43.8418 L388.0571,43.8418 L388.0571,46 L380.6777,46 L380.6777,43.8418 L383.1431,43.8418 L383.1431,35.7651 Z " fill="#000000"/><text fill="#000000" font-family="sans-serif" font-size="14" font-style="italic" lengthAdjust="spacing" textLength="82" x="404.75" y="44.791">DataFetcher</text><line style="stroke:#181818;stroke-width:0.5;" x1="333" x2="526" y1="55.5" y2="55.5"/><line style="stroke:#181818;stroke-width:0.5;" x1="333" x2="526" y1="63.5" y2="63.5"/><ellipse cx="343" cy="77.2441" fill="#84BE84" rx="3" ry="3" style="stroke:#038048;stroke-width:1.0;"/><text fill="#000000" font-family="sans-serif" font-size="14" lengthAdjust="spacing" textLength="169" x="352" y="81.0352">fetchData(url: str) -&gt; str:</text></g><!--class HttpDataFetcher--><g id="elem_HttpDataFetcher"><rect codeLine="6" fill="#F1F1F1" height="64.4883" id="HttpDataFetcher" rx="2.5" ry="2.5" style="stroke:#181818;stroke-width:0.5;" width="195" x="587" y="23.5"/><ellipse cx="625.4" cy="39.5" fill="#ADD1B2" rx="11" ry="11" style="stroke:#181818;stroke-width:1.0;"/><path d="M627.8731,45.6431 Q627.2921,45.9419 626.6529,46.0913 Q626.0138,46.2407 625.3082,46.2407 Q622.8014,46.2407 621.4815,44.5889 Q620.1617,42.937 620.1617,39.8159 Q620.1617,36.6865 621.4815,35.0347 Q622.8014,33.3828 625.3082,33.3828 Q626.0138,33.3828 626.6612,33.5322 Q627.3087,33.6816 627.8731,33.9805 L627.8731,36.7031 Q627.2423,36.1221 626.6488,35.8523 Q626.0553,35.5825 625.4244,35.5825 Q624.0797,35.5825 623.3949,36.6492 Q622.7101,37.7158 622.7101,39.8159 Q622.7101,41.9077 623.3949,42.9744 Q624.0797,44.041 625.4244,44.041 Q626.0553,44.041 626.6488,43.7712 Q627.2423,43.5015 627.8731,42.9204 Z " fill="#000000"/><text fill="#000000" font-family="sans-serif" font-size="14" lengthAdjust="spacing" textLength="111" x="644.6" y="44.791">HttpDataFetcher</text><line style="stroke:#181818;stroke-width:0.5;" x1="588" x2="781" y1="55.5" y2="55.5"/><line style="stroke:#181818;stroke-width:0.5;" x1="588" x2="781" y1="63.5" y2="63.5"/><ellipse cx="598" cy="77.2441" fill="#84BE84" rx="3" ry="3" style="stroke:#038048;stroke-width:1.0;"/><text fill="#000000" font-family="sans-serif" font-size="14" lengthAdjust="spacing" textLength="169" x="607" y="81.0352">fetchData(url: str) -&gt; str:</text></g><!--class DataAnalyzer--><g id="elem_DataAnalyzer"><rect codeLine="10" fill="#F1F1F1" height="97.4648" id="DataAnalyzer" rx="2.5" ry="2.5" style="stroke:#181818;stroke-width:0.5;" width="265" x="7" y="7"/><ellipse cx="89.75" cy="23" fill="#ADD1B2" rx="11" ry="11" style="stroke:#181818;stroke-width:1.0;"/><path d="M92.2231,29.1431 Q91.6421,29.4419 91.0029,29.5913 Q90.3638,29.7407 89.6582,29.7407 Q87.1514,29.7407 85.8315,28.0889 Q84.5117,26.437 84.5117,23.3159 Q84.5117,20.1865 85.8315,18.5347 Q87.1514,16.8828 89.6582,16.8828 Q90.3638,16.8828 91.0112,17.0322 Q91.6587,17.1816 92.2231,17.4805 L92.2231,20.2031 Q91.5923,19.6221 90.9988,19.3523 Q90.4053,19.0825 89.7744,19.0825 Q88.4297,19.0825 87.7449,20.1492 Q87.0601,21.2158 87.0601,23.3159 Q87.0601,25.4077 87.7449,26.4744 Q88.4297,27.541 89.7744,27.541 Q90.4053,27.541 90.9988,27.2712 Q91.5923,27.0015 92.2231,26.4204 Z " fill="#000000"/><text fill="#000000" font-family="sans-serif" font-size="14" lengthAdjust="spacing" textLength="91" x="110.25" y="28.291">DataAnalyzer</text><line style="stroke:#181818;stroke-width:0.5;" x1="8" x2="271" y1="39" y2="39"/><rect fill="none" height="6" style="stroke:#C82930;stroke-width:1.0;" width="6" x="15" y="49.7441"/><text fill="#000000" font-family="sans-serif" font-size="14" lengthAdjust="spacing" textLength="138" x="27" y="56.5352">fetcher: DataFetcher</text><line style="stroke:#181818;stroke-width:0.5;" x1="8" x2="271" y1="63.4883" y2="63.4883"/><ellipse cx="18" cy="77.2324" fill="#84BE84" rx="3" ry="3" style="stroke:#038048;stroke-width:1.0;"/><text fill="#000000" font-family="sans-serif" font-size="14" lengthAdjust="spacing" textLength="239" x="27" y="81.0234">DataAnalyzer(fetcher: DataFetcher)</text><ellipse cx="18" cy="93.7207" fill="#84BE84" rx="3" ry="3" style="stroke:#038048;stroke-width:1.0;"/><text fill="#000000" font-family="sans-serif" font-size="14" lengthAdjust="spacing" textLength="198" x="27" y="97.5117">analyzeData(url: str) -&gt; void:</text></g><!--reverse link DataFetcher to HttpDataFetcher--><g id="link_DataFetcher_HttpDataFetcher"><path d="M548.58,55.5 C561.39,55.5 574.31,55.5 586.82,55.5 " fill="none" id="DataFetcher-backto-HttpDataFetcher" style="stroke:#181818;stroke-width:1.0;stroke-dasharray:7.0,7.0;"/><polygon fill="none" points="548.74,62.5,528.74,55.5,548.74,48.5,548.74,62.5" style="stroke:#181818;stroke-width:1.0;"/></g><!--link DataAnalyzer to DataFetcher--><g id="link_DataAnalyzer_DataFetcher"><path codeLine="16" d="M272.28,55.5 C290.09,55.5 308.15,55.5 325.36,55.5 " fill="none" id="DataAnalyzer-to-DataFetcher" style="stroke:#181818;stroke-width:1.0;stroke-dasharray:7.0,7.0;"/><polygon fill="#181818" points="330.14,55.5,321.14,51.5,325.14,55.5,321.14,59.5,330.14,55.5" style="stroke:#181818;stroke-width:1.0;"/></g><!--SRC=[dOt12i8m38RlVOeSDsHxW1u6WeYl4RhK5Rfsf55GyTqbpaE7dZo59D___P6yW6JWS9u4ni3a9EHaGX9YZuxWW8974ZSHmyC0xBmkUcqk72qKuHQwGQSrJsDSn5BW9BBKoJ0laMPAKluKwd-VCDxkdrZdLuUjXQghoUONr2g5A_5TUyrXVFTk6lj-sFIy0000]--></g></svg>