<?xml version="1.0" encoding="us-ascii" standalone="no"?><svg xmlns="http://www.w3.org/2000/svg" xmlns:xlink="http://www.w3.org/1999/xlink" contentStyleType="text/css" height="350px" preserveAspectRatio="none" style="width:757px;height:350px;background:#FFFFFF;" version="1.1" viewBox="0 0 757 350" width="757px" zoomAndPan="magnify"><defs/><g><!--class Person--><g id="elem_Person"><rect codeLine="1" fill="#F1F1F1" height="163.418" id="Person" rx="2.5" ry="2.5" style="stroke:#181818;stroke-width:0.5;" width="226" x="244" y="7"/><ellipse cx="329.25" cy="23" fill="#ADD1B2" rx="11" ry="11" style="stroke:#181818;stroke-width:1.0;"/><path d="M331.7231,29.1431 Q331.1421,29.4419 330.5029,29.5913 Q329.8638,29.7407 329.1582,29.7407 Q326.6514,29.7407 325.3315,28.0889 Q324.0117,26.437 324.0117,23.3159 Q324.0117,20.1865 325.3315,18.5347 Q326.6514,16.8828 329.1582,16.8828 Q329.8638,16.8828 330.5112,17.0322 Q331.1587,17.1816 331.7231,17.4805 L331.7231,20.2031 Q331.0923,19.6221 330.4988,19.3523 Q329.9053,19.0825 329.2744,19.0825 Q327.9297,19.0825 327.2449,20.1492 Q326.5601,21.2158 326.5601,23.3159 Q326.5601,25.4077 327.2449,26.4744 Q327.9297,27.541 329.2744,27.541 Q329.9053,27.541 330.4988,27.2712 Q331.0923,27.0015 331.7231,26.4204 Z " fill="#000000"/><text fill="#000000" font-family="sans-serif" font-size="14" lengthAdjust="spacing" textLength="47" x="349.75" y="28.291">Person</text><line style="stroke:#181818;stroke-width:0.5;" x1="245" x2="469" y1="39" y2="39"/><rect fill="none" height="6" style="stroke:#C82930;stroke-width:1.0;" width="6" x="252" y="49.7441"/><text fill="#000000" font-family="sans-serif" font-size="14" lengthAdjust="spacing" textLength="64" x="264" y="56.5352">name: str</text><rect fill="none" height="6" style="stroke:#C82930;stroke-width:1.0;" width="6" x="252" y="66.2324"/><text fill="#000000" font-family="sans-serif" font-size="14" lengthAdjust="spacing" textLength="51" x="264" y="73.0234">age: int</text><line style="stroke:#181818;stroke-width:0.5;" x1="245" x2="469" y1="79.9766" y2="79.9766"/><ellipse cx="255" cy="93.7207" fill="#84BE84" rx="3" ry="3" style="stroke:#038048;stroke-width:1.0;"/><text fill="#000000" font-family="sans-serif" font-size="14" lengthAdjust="spacing" textLength="180" x="264" y="97.5117">Person(name: str, age: int)</text><ellipse cx="255" cy="110.209" fill="#84BE84" rx="3" ry="3" style="stroke:#038048;stroke-width:1.0;"/><text fill="#000000" font-family="sans-serif" font-size="14" lengthAdjust="spacing" textLength="120" x="264" y="114">getName() -&gt; str:</text><ellipse cx="255" cy="126.6973" fill="#84BE84" rx="3" ry="3" style="stroke:#038048;stroke-width:1.0;"/><text fill="#000000" font-family="sans-serif" font-size="14" lengthAdjust="spacing" textLength="200" x="264" y="130.4883">setName(name: str) -&gt; None:</text><ellipse cx="255" cy="143.1855" fill="#84BE84" rx="3" ry="3" style="stroke:#038048;stroke-width:1.0;"/><text fill="#000000" font-family="sans-serif" font-size="14" lengthAdjust="spacing" textLength="108" x="264" y="146.9766">getAge() -&gt; int:</text><ellipse cx="255" cy="159.6738" fill="#84BE84" rx="3" ry="3" style="stroke:#038048;stroke-width:1.0;"/><text fill="#000000" font-family="sans-serif" font-size="14" lengthAdjust="spacing" textLength="175" x="264" y="163.4648">setAge(age: int) -&gt; None:</text></g><!--class Employee--><g id="elem_Employee"><rect codeLine="11" fill="#F1F1F1" height="113.9531" id="Employee" rx="2.5" ry="2.5" style="stroke:#181818;stroke-width:0.5;" width="312" x="7" y="230"/><ellipse cx="125.75" cy="246" fill="#ADD1B2" rx="11" ry="11" style="stroke:#181818;stroke-width:1.0;"/><path d="M128.2231,252.1431 Q127.6421,252.4419 127.0029,252.5913 Q126.3638,252.7407 125.6582,252.7407 Q123.1514,252.7407 121.8315,251.0889 Q120.5117,249.437 120.5117,246.3159 Q120.5117,243.1865 121.8315,241.5347 Q123.1514,239.8828 125.6582,239.8828 Q126.3638,239.8828 127.0112,240.0322 Q127.6587,240.1816 128.2231,240.4805 L128.2231,243.2031 Q127.5923,242.6221 126.9988,242.3523 Q126.4053,242.0825 125.7744,242.0825 Q124.4297,242.0825 123.7449,243.1492 Q123.0601,244.2158 123.0601,246.3159 Q123.0601,248.4077 123.7449,249.4744 Q124.4297,250.541 125.7744,250.541 Q126.4053,250.541 126.9988,250.2712 Q127.5923,250.0015 128.2231,249.4204 Z " fill="#000000"/><text fill="#000000" font-family="sans-serif" font-size="14" lengthAdjust="spacing" textLength="66" x="146.25" y="251.291">Employee</text><line style="stroke:#181818;stroke-width:0.5;" x1="8" x2="318" y1="262" y2="262"/><rect fill="none" height="6" style="stroke:#C82930;stroke-width:1.0;" width="6" x="15" y="272.7441"/><text fill="#000000" font-family="sans-serif" font-size="14" lengthAdjust="spacing" textLength="79" x="27" y="279.5352">salary: float</text><line style="stroke:#181818;stroke-width:0.5;" x1="8" x2="318" y1="286.4883" y2="286.4883"/><ellipse cx="18" cy="300.2324" fill="#84BE84" rx="3" ry="3" style="stroke:#038048;stroke-width:1.0;"/><text fill="#000000" font-family="sans-serif" font-size="14" lengthAdjust="spacing" textLength="286" x="27" y="304.0234">Employee(name: str, age: int, salary: float)</text><ellipse cx="18" cy="316.7207" fill="#84BE84" rx="3" ry="3" style="stroke:#038048;stroke-width:1.0;"/><text fill="#000000" font-family="sans-serif" font-size="14" lengthAdjust="spacing" textLength="135" x="27" y="320.5117">getSalary() -&gt; float:</text><ellipse cx="18" cy="333.209" fill="#84BE84" rx="3" ry="3" style="stroke:#038048;stroke-width:1.0;"/><text fill="#000000" font-family="sans-serif" font-size="14" lengthAdjust="spacing" textLength="217" x="27" y="337">setSalary(salary: float) -&gt; None:</text></g><!--class Manager--><g id="elem_Manager"><rect codeLine="18" fill="#F1F1F1" height="113.9531" id="Manager" rx="2.5" ry="2.5" style="stroke:#181818;stroke-width:0.5;" width="396" x="354" y="230"/><ellipse cx="517.75" cy="246" fill="#ADD1B2" rx="11" ry="11" style="stroke:#181818;stroke-width:1.0;"/><path d="M520.2231,252.1431 Q519.6421,252.4419 519.0029,252.5913 Q518.3638,252.7407 517.6582,252.7407 Q515.1514,252.7407 513.8315,251.0889 Q512.5117,249.437 512.5117,246.3159 Q512.5117,243.1865 513.8315,241.5347 Q515.1514,239.8828 517.6582,239.8828 Q518.3638,239.8828 519.0112,240.0322 Q519.6587,240.1816 520.2231,240.4805 L520.2231,243.2031 Q519.5923,242.6221 518.9988,242.3523 Q518.4053,242.0825 517.7744,242.0825 Q516.4297,242.0825 515.7449,243.1492 Q515.0601,244.2158 515.0601,246.3159 Q515.0601,248.4077 515.7449,249.4744 Q516.4297,250.541 517.7744,250.541 Q518.4053,250.541 518.9988,250.2712 Q519.5923,250.0015 520.2231,249.4204 Z " fill="#000000"/><text fill="#000000" font-family="sans-serif" font-size="14" lengthAdjust="spacing" textLength="60" x="538.25" y="251.291">Manager</text><line style="stroke:#181818;stroke-width:0.5;" x1="355" x2="749" y1="262" y2="262"/><rect fill="none" height="6" style="stroke:#C82930;stroke-width:1.0;" width="6" x="362" y="272.7441"/><text fill="#000000" font-family="sans-serif" font-size="14" lengthAdjust="spacing" textLength="82" x="374" y="279.5352">bonus: float</text><line style="stroke:#181818;stroke-width:0.5;" x1="355" x2="749" y1="286.4883" y2="286.4883"/><ellipse cx="365" cy="300.2324" fill="#84BE84" rx="3" ry="3" style="stroke:#038048;stroke-width:1.0;"/><text fill="#000000" font-family="sans-serif" font-size="14" lengthAdjust="spacing" textLength="370" x="374" y="304.0234">Manager(name: str, age: int, salary: float, bonus: float)</text><ellipse cx="365" cy="316.7207" fill="#84BE84" rx="3" ry="3" style="stroke:#038048;stroke-width:1.0;"/><text fill="#000000" font-family="sans-serif" font-size="14" lengthAdjust="spacing" textLength="136" x="374" y="320.5117">getBonus() -&gt; float:</text><ellipse cx="365" cy="333.209" fill="#84BE84" rx="3" ry="3" style="stroke:#038048;stroke-width:1.0;"/><text fill="#000000" font-family="sans-serif" font-size="14" lengthAdjust="spacing" textLength="221" x="374" y="337">setBonus(bonus: float) -&gt; None:</text></g><!--reverse link Person to Employee--><g id="link_Person_Employee"><path codeLine="25" d="M262.39,185.33 C247.44,200.47 232.42,215.68 218.75,229.53 " fill="none" id="Person-backto-Employee" style="stroke:#181818;stroke-width:1.0;"/><polygon fill="none" points="257.16,180.67,276.19,171.35,267.12,190.5,257.16,180.67" style="stroke:#181818;stroke-width:1.0;"/></g><!--reverse link Person to Manager--><g id="link_Person_Manager"><path codeLine="26" d="M452.1,185.33 C467.12,200.47 482.22,215.68 495.96,229.53 " fill="none" id="Person-backto-Manager" style="stroke:#181818;stroke-width:1.0;"/><polygon fill="none" points="447.34,190.48,438.22,171.35,457.28,180.61,447.34,190.48" style="stroke:#181818;stroke-width:1.0;"/></g><!--SRC=[ZP5D2i8m44RtFSKiMsmk44HGS6aHFC5OOX7IH9AwAEhTpSyaDj25k-HxyoMFf9TeBPo5iLh1gm9W2aV1mKx6Rt1mwxkQt7eJX-hCMqYqyNWGK-TGtG3RUSnzQ2dCfK0xhGIdpdwWYZidLNoMp_uLFbNL1ztZ-91w5Y8AMvHePWutgJ689hocsa8ndiml8OmY0IGL0cLfHUc4obrXej5LgwTT217ymwU5PJVP7Nos8XVpeb6eqRTktupbDoj24li2]--></g></svg>