<?xml version="1.0" encoding="us-ascii" standalone="no"?><svg xmlns="http://www.w3.org/2000/svg" xmlns:xlink="http://www.w3.org/1999/xlink" contentStyleType="text/css" height="127px" preserveAspectRatio="none" style="width:643px;height:127px;background:#FFFFFF;" version="1.1" viewBox="0 0 643 127" width="643px" zoomAndPan="magnify"><defs/><g><!--class BankAccount--><g id="elem_BankAccount"><rect codeLine="1" fill="#F1F1F1" height="113.9531" id="BankAccount" rx="2.5" ry="2.5" style="stroke:#181818;stroke-width:0.5;" width="258" x="378" y="7"/><ellipse cx="458.25" cy="23" fill="#ADD1B2" rx="11" ry="11" style="stroke:#181818;stroke-width:1.0;"/><path d="M460.7231,29.1431 Q460.1421,29.4419 459.5029,29.5913 Q458.8638,29.7407 458.1582,29.7407 Q455.6514,29.7407 454.3315,28.0889 Q453.0117,26.437 453.0117,23.3159 Q453.0117,20.1865 454.3315,18.5347 Q455.6514,16.8828 458.1582,16.8828 Q458.8638,16.8828 459.5112,17.0322 Q460.1587,17.1816 460.7231,17.4805 L460.7231,20.2031 Q460.0923,19.6221 459.4988,19.3523 Q458.9053,19.0825 458.2744,19.0825 Q456.9297,19.0825 456.2449,20.1492 Q455.5601,21.2158 455.5601,23.3159 Q455.5601,25.4077 456.2449,26.4744 Q456.9297,27.541 458.2744,27.541 Q458.9053,27.541 459.4988,27.2712 Q460.0923,27.0015 460.7231,26.4204 Z " fill="#000000"/><text fill="#000000" font-family="sans-serif" font-size="14" lengthAdjust="spacing" textLength="89" x="478.75" y="28.291">BankAccount</text><line style="stroke:#181818;stroke-width:0.5;" x1="379" x2="635" y1="39" y2="39"/><rect fill="none" height="6" style="stroke:#C82930;stroke-width:1.0;" width="6" x="386" y="49.7441"/><text fill="#000000" font-family="sans-serif" font-size="14" lengthAdjust="spacing" textLength="69" x="398" y="56.5352">owner: str</text><rect fill="none" height="6" style="stroke:#C82930;stroke-width:1.0;" width="6" x="386" y="66.2324"/><text fill="#000000" font-family="sans-serif" font-size="14" lengthAdjust="spacing" textLength="92" x="398" y="73.0234">balance: float</text><line style="stroke:#181818;stroke-width:0.5;" x1="379" x2="635" y1="79.9766" y2="79.9766"/><ellipse cx="389" cy="93.7207" fill="#84BE84" rx="3" ry="3" style="stroke:#038048;stroke-width:1.0;"/><text fill="#000000" font-family="sans-serif" font-size="14" lengthAdjust="spacing" textLength="220" x="398" y="97.5117">deposit(amount: float) -&gt; None:</text><ellipse cx="389" cy="110.209" fill="#84BE84" rx="3" ry="3" style="stroke:#038048;stroke-width:1.0;"/><text fill="#000000" font-family="sans-serif" font-size="14" lengthAdjust="spacing" textLength="232" x="398" y="114">withdraw(amount: float) -&gt; None:</text></g><!--class Transaction--><g id="elem_Transaction"><rect codeLine="7" fill="#F1F1F1" height="113.9531" id="Transaction" rx="2.5" ry="2.5" style="stroke:#181818;stroke-width:0.5;" width="336" x="7" y="7"/><ellipse cx="130.25" cy="23" fill="#ADD1B2" rx="11" ry="11" style="stroke:#181818;stroke-width:1.0;"/><path d="M132.7231,29.1431 Q132.1421,29.4419 131.5029,29.5913 Q130.8638,29.7407 130.1582,29.7407 Q127.6514,29.7407 126.3315,28.0889 Q125.0117,26.437 125.0117,23.3159 Q125.0117,20.1865 126.3315,18.5347 Q127.6514,16.8828 130.1582,16.8828 Q130.8638,16.8828 131.5112,17.0322 Q132.1587,17.1816 132.7231,17.4805 L132.7231,20.2031 Q132.0923,19.6221 131.4988,19.3523 Q130.9053,19.0825 130.2744,19.0825 Q128.9297,19.0825 128.2449,20.1492 Q127.5601,21.2158 127.5601,23.3159 Q127.5601,25.4077 128.2449,26.4744 Q128.9297,27.541 130.2744,27.541 Q130.9053,27.541 131.4988,27.2712 Q132.0923,27.0015 132.7231,26.4204 Z " fill="#000000"/><text fill="#000000" font-family="sans-serif" font-size="14" lengthAdjust="spacing" textLength="81" x="150.75" y="28.291">Transaction</text><line style="stroke:#181818;stroke-width:0.5;" x1="8" x2="342" y1="39" y2="39"/><rect fill="none" height="6" style="stroke:#C82930;stroke-width:1.0;" width="6" x="15" y="49.7441"/><text fill="#000000" font-family="sans-serif" font-size="14" lengthAdjust="spacing" textLength="56" x="27" y="56.5352">date: str</text><rect fill="none" height="6" style="stroke:#C82930;stroke-width:1.0;" width="6" x="15" y="66.2324"/><text fill="#000000" font-family="sans-serif" font-size="14" lengthAdjust="spacing" textLength="92" x="27" y="73.0234">amount: float</text><rect fill="none" height="6" style="stroke:#C82930;stroke-width:1.0;" width="6" x="15" y="82.7207"/><text fill="#000000" font-family="sans-serif" font-size="14" lengthAdjust="spacing" textLength="55" x="27" y="89.5117">type: str</text><line style="stroke:#181818;stroke-width:0.5;" x1="8" x2="342" y1="96.4648" y2="96.4648"/><ellipse cx="18" cy="110.209" fill="#84BE84" rx="3" ry="3" style="stroke:#038048;stroke-width:1.0;"/><text fill="#000000" font-family="sans-serif" font-size="14" lengthAdjust="spacing" textLength="310" x="27" y="114">Transaction(date: str, amount: float, type: str)</text></g><!--link Transaction to BankAccount--><g id="link_Transaction_BankAccount"><path codeLine="14" d="M343.27,64 C349.3,64 355.32,64 361.35,64 " fill="none" id="Transaction-to-BankAccount" style="stroke:#181818;stroke-width:1.0;"/><ellipse cx="368.29" cy="64" fill="#FFFFFF" rx="8" ry="8" style="stroke:#181818;stroke-width:1.0;"/><line style="stroke:#181818;stroke-width:1.0;" x1="360.29" x2="376.29" y1="64" y2="64"/><line style="stroke:#181818;stroke-width:1.0;" x1="368.29" x2="368.29" y1="56" y2="72"/></g><!--SRC=[TL1B3i8W4DrpYbcseLo0XOaUm9KN604Z4OS6nf36U7ThqOOkdDsyUR-C2PWp791kUsFYWnYU0kPHiP1B6ZAdkfyn81cduH8Yye99wyQOFNTu_oY_fnxK3ewHdAwaulbg4vQ_h9SmIubJGifes4VwbR38hkcmSQWGJsF3a8r7jue7s0W7M4Nz72xQN2NRNxm1]--></g></svg>