<?xml version="1.0" encoding="us-ascii" standalone="no"?><svg xmlns="http://www.w3.org/2000/svg" xmlns:xlink="http://www.w3.org/1999/xlink" contentStyleType="text/css" height="495px" preserveAspectRatio="none" style="width:796px;height:495px;background:#FFFFFF;" version="1.1" viewBox="0 0 796 495" width="796px" zoomAndPan="magnify"><defs/><g><!--class Application--><g id="elem_Application"><rect codeLine="2" fill="#F1F1F1" height="48" id="Application" rx="2.5" ry="2.5" style="stroke:#181818;stroke-width:0.5;" width="110" x="7" y="223"/><ellipse cx="22" cy="239" fill="#ADD1B2" rx="11" ry="11" style="stroke:#181818;stroke-width:1.0;"/><path d="M24.4731,245.1431 Q23.8921,245.4419 23.2529,245.5913 Q22.6138,245.7407 21.9082,245.7407 Q19.4014,245.7407 18.0815,244.0889 Q16.7617,242.437 16.7617,239.3159 Q16.7617,236.1865 18.0815,234.5347 Q19.4014,232.8828 21.9082,232.8828 Q22.6138,232.8828 23.2612,233.0322 Q23.9087,233.1816 24.4731,233.4805 L24.4731,236.2031 Q23.8423,235.6221 23.2488,235.3523 Q22.6553,235.0825 22.0244,235.0825 Q20.6797,235.0825 19.9949,236.1492 Q19.3101,237.2158 19.3101,239.3159 Q19.3101,241.4077 19.9949,242.4744 Q20.6797,243.541 22.0244,243.541 Q22.6553,243.541 23.2488,243.2712 Q23.8423,243.0015 24.4731,242.4204 Z " fill="#000000"/><text fill="#000000" font-family="sans-serif" font-size="14" lengthAdjust="spacing" textLength="78" x="36" y="244.291">Application</text><line style="stroke:#181818;stroke-width:0.5;" x1="8" x2="116" y1="255" y2="255"/><line style="stroke:#181818;stroke-width:0.5;" x1="8" x2="116" y1="263" y2="263"/></g><g id="elem_GMN3"><path d="M34,110.5 L34,135.8105 A0,0 0 0 0 34,135.8105 L58,135.8105 L62,222.96 L66,135.8105 L90,135.8105 A0,0 0 0 0 90,135.8105 L90,120.5 L80,110.5 L34,110.5 A0,0 0 0 0 34,110.5 " fill="#FEFFDD" style="stroke:#181818;stroke-width:0.5;"/><path d="M80,110.5 L80,120.5 L90,120.5 L80,110.5 " fill="#FEFFDD" style="stroke:#181818;stroke-width:0.5;"/><text fill="#000000" font-family="sans-serif" font-size="13" lengthAdjust="spacing" textLength="35" x="40" y="128.0684">client</text></g><g id="elem_GMN6"><path d="M23.5,358.5 L23.5,383.8105 A0,0 0 0 0 23.5,383.8105 L100.5,383.8105 A0,0 0 0 0 100.5,383.8105 L100.5,368.5 L90.5,358.5 L66,358.5 L62,271.23 L58,358.5 L23.5,358.5 A0,0 0 0 0 23.5,358.5 " fill="#FEFFDD" style="stroke:#181818;stroke-width:0.5;"/><path d="M90.5,358.5 L90.5,368.5 L100.5,368.5 L90.5,358.5 " fill="#FEFFDD" style="stroke:#181818;stroke-width:0.5;"/><text fill="#000000" font-family="sans-serif" font-size="13" lengthAdjust="spacing" textLength="56" x="29.5" y="376.0684">receivers</text></g><!--class Menu--><g id="elem_Menu"><rect codeLine="13" fill="#F1F1F1" height="48" id="Menu" rx="2.5" ry="2.5" style="stroke:#181818;stroke-width:0.5;" width="70" x="642" y="99"/><ellipse cx="657" cy="115" fill="#ADD1B2" rx="11" ry="11" style="stroke:#181818;stroke-width:1.0;"/><path d="M659.4731,121.1431 Q658.8921,121.4419 658.2529,121.5913 Q657.6138,121.7407 656.9082,121.7407 Q654.4014,121.7407 653.0815,120.0889 Q651.7617,118.437 651.7617,115.3159 Q651.7617,112.1865 653.0815,110.5347 Q654.4014,108.8828 656.9082,108.8828 Q657.6138,108.8828 658.2612,109.0322 Q658.9087,109.1816 659.4731,109.4805 L659.4731,112.2031 Q658.8423,111.6221 658.2488,111.3523 Q657.6553,111.0825 657.0244,111.0825 Q655.6797,111.0825 654.9949,112.1492 Q654.3101,113.2158 654.3101,115.3159 Q654.3101,117.4077 654.9949,118.4744 Q655.6797,119.541 657.0244,119.541 Q657.6553,119.541 658.2488,119.2712 Q658.8423,119.0015 659.4731,118.4204 Z " fill="#000000"/><text fill="#000000" font-family="sans-serif" font-size="14" lengthAdjust="spacing" textLength="38" x="671" y="120.291">Menu</text><line style="stroke:#181818;stroke-width:0.5;" x1="643" x2="711" y1="131" y2="131"/><line style="stroke:#181818;stroke-width:0.5;" x1="643" x2="711" y1="139" y2="139"/></g><g id="elem_GMN10"><path d="M643,6 L643,31.3105 A0,0 0 0 0 643,31.3105 L673,31.3105 L677,98.79 L681,31.3105 L711,31.3105 A0,0 0 0 0 711,31.3105 L711,16 L701,6 L643,6 A0,0 0 0 0 643,6 " fill="#FEFFDD" style="stroke:#181818;stroke-width:0.5;"/><path d="M701,6 L701,16 L711,16 L701,6 " fill="#FEFFDD" style="stroke:#181818;stroke-width:0.5;"/><text fill="#000000" font-family="sans-serif" font-size="13" lengthAdjust="spacing" textLength="47" x="649" y="23.5684">invoker</text></g><!--class Command--><g id="elem_Command"><rect codeLine="20" fill="#F1F1F1" height="64.4883" id="Command" rx="2.5" ry="2.5" style="stroke:#181818;stroke-width:0.5;" width="103" x="503.5" y="91"/><ellipse cx="518.5" cy="107" fill="#ADD1B2" rx="11" ry="11" style="stroke:#181818;stroke-width:1.0;"/><path d="M520.9731,113.1431 Q520.3921,113.4419 519.7529,113.5913 Q519.1138,113.7407 518.4082,113.7407 Q515.9014,113.7407 514.5815,112.0889 Q513.2617,110.437 513.2617,107.3159 Q513.2617,104.1865 514.5815,102.5347 Q515.9014,100.8828 518.4082,100.8828 Q519.1138,100.8828 519.7612,101.0322 Q520.4087,101.1816 520.9731,101.4805 L520.9731,104.2031 Q520.3423,103.6221 519.7488,103.3523 Q519.1553,103.0825 518.5244,103.0825 Q517.1797,103.0825 516.4949,104.1492 Q515.8101,105.2158 515.8101,107.3159 Q515.8101,109.4077 516.4949,110.4744 Q517.1797,111.541 518.5244,111.541 Q519.1553,111.541 519.7488,111.2712 Q520.3423,111.0015 520.9731,110.4204 Z " fill="#000000"/><text fill="#000000" font-family="sans-serif" font-size="14" lengthAdjust="spacing" textLength="71" x="532.5" y="112.291">Command</text><line style="stroke:#181818;stroke-width:0.5;" x1="504.5" x2="605.5" y1="123" y2="123"/><line style="stroke:#181818;stroke-width:0.5;" x1="504.5" x2="605.5" y1="131" y2="131"/><text fill="#000000" font-family="sans-serif" font-size="14" lengthAdjust="spacing" textLength="64" x="509.5" y="148.5352">execute()</text></g><g id="elem_GMN14"><path d="M513.5,6 L513.5,31.3105 A0,0 0 0 0 513.5,31.3105 L551,31.3105 L555,90.75 L559,31.3105 L596.5,31.3105 A0,0 0 0 0 596.5,31.3105 L596.5,16 L586.5,6 L513.5,6 A0,0 0 0 0 513.5,6 " fill="#FEFFDD" style="stroke:#181818;stroke-width:0.5;"/><path d="M586.5,6 L586.5,16 L596.5,16 L586.5,6 " fill="#FEFFDD" style="stroke:#181818;stroke-width:0.5;"/><text fill="#000000" font-family="sans-serif" font-size="13" lengthAdjust="spacing" textLength="62" x="519.5" y="23.5684">command</text></g><!--class OpenCommand--><g id="elem_OpenCommand"><rect codeLine="28" fill="#F1F1F1" height="64.4883" id="OpenCommand" rx="2.5" ry="2.5" style="stroke:#181818;stroke-width:0.5;" width="140" x="152" y="215"/><ellipse cx="167" cy="231" fill="#ADD1B2" rx="11" ry="11" style="stroke:#181818;stroke-width:1.0;"/><path d="M169.4731,237.1431 Q168.8921,237.4419 168.2529,237.5913 Q167.6138,237.7407 166.9082,237.7407 Q164.4014,237.7407 163.0815,236.0889 Q161.7617,234.437 161.7617,231.3159 Q161.7617,228.1865 163.0815,226.5347 Q164.4014,224.8828 166.9082,224.8828 Q167.6138,224.8828 168.2612,225.0322 Q168.9087,225.1816 169.4731,225.4805 L169.4731,228.2031 Q168.8423,227.6221 168.2488,227.3523 Q167.6553,227.0825 167.0244,227.0825 Q165.6797,227.0825 164.9949,228.1492 Q164.3101,229.2158 164.3101,231.3159 Q164.3101,233.4077 164.9949,234.4744 Q165.6797,235.541 167.0244,235.541 Q167.6553,235.541 168.2488,235.2712 Q168.8423,235.0015 169.4731,234.4204 Z " fill="#000000"/><text fill="#000000" font-family="sans-serif" font-size="14" lengthAdjust="spacing" textLength="108" x="181" y="236.291">OpenCommand</text><line style="stroke:#181818;stroke-width:0.5;" x1="153" x2="291" y1="247" y2="247"/><line style="stroke:#181818;stroke-width:0.5;" x1="153" x2="291" y1="255" y2="255"/><text fill="#000000" font-family="sans-serif" font-size="14" lengthAdjust="spacing" textLength="64" x="158" y="272.5352">execute()</text></g><g id="elem_GMN18"><path d="M138,358.5 L138,383.8105 A0,0 0 0 0 138,383.8105 L286,383.8105 A0,0 0 0 0 286,383.8105 L286,368.5 L276,358.5 L216.97,358.5 L219.42,279.42 L208.97,358.5 L138,358.5 A0,0 0 0 0 138,358.5 " fill="#FEFFDD" style="stroke:#181818;stroke-width:0.5;"/><path d="M276,358.5 L276,368.5 L286,368.5 L276,358.5 " fill="#FEFFDD" style="stroke:#181818;stroke-width:0.5;"/><text fill="#000000" font-family="sans-serif" font-size="13" lengthAdjust="spacing" textLength="127" x="144" y="376.0684">concrete commands</text></g><!--class PasteCommand--><g id="elem_PasteCommand"><rect codeLine="36" fill="#F1F1F1" height="64.4883" id="PasteCommand" rx="2.5" ry="2.5" style="stroke:#181818;stroke-width:0.5;" width="139" x="397.5" y="215"/><ellipse cx="412.5" cy="231" fill="#ADD1B2" rx="11" ry="11" style="stroke:#181818;stroke-width:1.0;"/><path d="M414.9731,237.1431 Q414.3921,237.4419 413.7529,237.5913 Q413.1138,237.7407 412.4082,237.7407 Q409.9014,237.7407 408.5815,236.0889 Q407.2617,234.437 407.2617,231.3159 Q407.2617,228.1865 408.5815,226.5347 Q409.9014,224.8828 412.4082,224.8828 Q413.1138,224.8828 413.7612,225.0322 Q414.4087,225.1816 414.9731,225.4805 L414.9731,228.2031 Q414.3423,227.6221 413.7488,227.3523 Q413.1553,227.0825 412.5244,227.0825 Q411.1797,227.0825 410.4949,228.1492 Q409.8101,229.2158 409.8101,231.3159 Q409.8101,233.4077 410.4949,234.4744 Q411.1797,235.541 412.5244,235.541 Q413.1553,235.541 413.7488,235.2712 Q414.3423,235.0015 414.9731,234.4204 Z " fill="#000000"/><text fill="#000000" font-family="sans-serif" font-size="14" lengthAdjust="spacing" textLength="107" x="426.5" y="236.291">PasteCommand</text><line style="stroke:#181818;stroke-width:0.5;" x1="398.5" x2="535.5" y1="247" y2="247"/><line style="stroke:#181818;stroke-width:0.5;" x1="398.5" x2="535.5" y1="255" y2="255"/><text fill="#000000" font-family="sans-serif" font-size="14" lengthAdjust="spacing" textLength="64" x="403.5" y="272.5352">execute()</text></g><g id="elem_GMN22"><path d="M321,358.5 L321,383.8105 A0,0 0 0 0 321,383.8105 L469,383.8105 A0,0 0 0 0 469,383.8105 L469,368.5 L459,358.5 L406.02,358.5 L448.46,279.42 L398.02,358.5 L321,358.5 A0,0 0 0 0 321,358.5 " fill="#FEFFDD" style="stroke:#181818;stroke-width:0.5;"/><path d="M459,358.5 L459,368.5 L469,368.5 L459,358.5 " fill="#FEFFDD" style="stroke:#181818;stroke-width:0.5;"/><text fill="#000000" font-family="sans-serif" font-size="13" lengthAdjust="spacing" textLength="127" x="327" y="376.0684">concrete commands</text></g><!--class MacroCommand--><g id="elem_MacroCommand"><rect codeLine="44" fill="#F1F1F1" height="64.4883" id="MacroCommand" rx="2.5" ry="2.5" style="stroke:#181818;stroke-width:0.5;" width="145" x="571.5" y="215"/><ellipse cx="586.5" cy="231" fill="#ADD1B2" rx="11" ry="11" style="stroke:#181818;stroke-width:1.0;"/><path d="M588.9731,237.1431 Q588.3921,237.4419 587.7529,237.5913 Q587.1138,237.7407 586.4082,237.7407 Q583.9014,237.7407 582.5815,236.0889 Q581.2617,234.437 581.2617,231.3159 Q581.2617,228.1865 582.5815,226.5347 Q583.9014,224.8828 586.4082,224.8828 Q587.1138,224.8828 587.7612,225.0322 Q588.4087,225.1816 588.9731,225.4805 L588.9731,228.2031 Q588.3423,227.6221 587.7488,227.3523 Q587.1553,227.0825 586.5244,227.0825 Q585.1797,227.0825 584.4949,228.1492 Q583.8101,229.2158 583.8101,231.3159 Q583.8101,233.4077 584.4949,234.4744 Q585.1797,235.541 586.5244,235.541 Q587.1553,235.541 587.7488,235.2712 Q588.3423,235.0015 588.9731,234.4204 Z " fill="#000000"/><text fill="#000000" font-family="sans-serif" font-size="14" lengthAdjust="spacing" textLength="113" x="600.5" y="236.291">MacroCommand</text><line style="stroke:#181818;stroke-width:0.5;" x1="572.5" x2="715.5" y1="247" y2="247"/><line style="stroke:#181818;stroke-width:0.5;" x1="572.5" x2="715.5" y1="255" y2="255"/><text fill="#000000" font-family="sans-serif" font-size="14" lengthAdjust="spacing" textLength="64" x="577.5" y="272.5352">execute()</text></g><g id="elem_GMN26"><path d="M641,358.5 L641,383.8105 A0,0 0 0 0 641,383.8105 L789,383.8105 A0,0 0 0 0 789,383.8105 L789,368.5 L779,358.5 L712.08,358.5 L662.28,279.42 L704.08,358.5 L641,358.5 A0,0 0 0 0 641,358.5 " fill="#FEFFDD" style="stroke:#181818;stroke-width:0.5;"/><path d="M779,358.5 L779,368.5 L789,368.5 L779,358.5 " fill="#FEFFDD" style="stroke:#181818;stroke-width:0.5;"/><text fill="#000000" font-family="sans-serif" font-size="13" lengthAdjust="spacing" textLength="127" x="647" y="376.0684">concrete commands</text></g><!--class Document--><g id="elem_Document"><rect codeLine="52" fill="#F1F1F1" height="64.4883" id="Document" rx="2.5" ry="2.5" style="stroke:#181818;stroke-width:0.5;" width="102" x="504" y="339"/><ellipse cx="519" cy="355" fill="#ADD1B2" rx="11" ry="11" style="stroke:#181818;stroke-width:1.0;"/><path d="M521.4731,361.1431 Q520.8921,361.4419 520.2529,361.5913 Q519.6138,361.7407 518.9082,361.7407 Q516.4014,361.7407 515.0815,360.0889 Q513.7617,358.437 513.7617,355.3159 Q513.7617,352.1865 515.0815,350.5347 Q516.4014,348.8828 518.9082,348.8828 Q519.6138,348.8828 520.2612,349.0322 Q520.9087,349.1816 521.4731,349.4805 L521.4731,352.2031 Q520.8423,351.6221 520.2488,351.3523 Q519.6553,351.0825 519.0244,351.0825 Q517.6797,351.0825 516.9949,352.1492 Q516.3101,353.2158 516.3101,355.3159 Q516.3101,357.4077 516.9949,358.4744 Q517.6797,359.541 519.0244,359.541 Q519.6553,359.541 520.2488,359.2712 Q520.8423,359.0015 521.4731,358.4204 Z " fill="#000000"/><text fill="#000000" font-family="sans-serif" font-size="14" lengthAdjust="spacing" textLength="70" x="533" y="360.291">Document</text><line style="stroke:#181818;stroke-width:0.5;" x1="505" x2="605" y1="371" y2="371"/><line style="stroke:#181818;stroke-width:0.5;" x1="505" x2="605" y1="379" y2="379"/><text fill="#000000" font-family="sans-serif" font-size="14" lengthAdjust="spacing" textLength="83" x="510" y="396.5352">insert_text()</text></g><g id="elem_GMN30"><path d="M516.5,463 L516.5,488.3105 A0,0 0 0 0 516.5,488.3105 L593.5,488.3105 A0,0 0 0 0 593.5,488.3105 L593.5,473 L583.5,463 L559,463 L555,403.31 L551,463 L516.5,463 A0,0 0 0 0 516.5,463 " fill="#FEFFDD" style="stroke:#181818;stroke-width:0.5;"/><path d="M583.5,463 L583.5,473 L593.5,473 L583.5,463 " fill="#FEFFDD" style="stroke:#181818;stroke-width:0.5;"/><text fill="#000000" font-family="sans-serif" font-size="13" lengthAdjust="spacing" textLength="56" x="522.5" y="480.5684">receivers</text></g><!--reverse link Command to Menu--><g id="link_Command_Menu"><path codeLine="60" d="M621.34,123 C628.12,123 634.91,123 641.7,123 " fill="none" id="Command-backto-Menu" style="stroke:#181818;stroke-width:1.0;"/><polygon fill="none" points="608.46,123,614.46,127,620.46,123,614.46,119,608.46,123" style="stroke:#181818;stroke-width:1.0;"/></g><!--reverse link Application to OpenCommand--><g id="link_Application_OpenCommand"><path codeLine="62" d="M123.75,247 C133.06,247 142.36,247 151.66,247 " fill="none" id="Application-backto-OpenCommand" style="stroke:#181818;stroke-width:1.0;"/><polygon fill="#181818" points="118.83,247,127.83,251,123.83,247,127.83,243,118.83,247" style="stroke:#181818;stroke-width:1.0;"/></g><!--reverse link Command to OpenCommand--><g id="link_Command_OpenCommand"><path codeLine="64" d="M483.22,150.3 C426.75,170.99 348.48,199.66 292.37,220.22 " fill="none" id="Command-backto-OpenCommand" style="stroke:#181818;stroke-width:1.0;"/><polygon fill="none" points="480.73,143.76,501.91,143.45,485.54,156.9,480.73,143.76" style="stroke:#181818;stroke-width:1.0;"/></g><!--reverse link Command to PasteCommand--><g id="link_Command_PasteCommand"><path codeLine="65" d="M519.93,172.63 C509.71,186.79 498.81,201.89 489.59,214.69 " fill="none" id="Command-backto-PasteCommand" style="stroke:#181818;stroke-width:1.0;"/><polygon fill="none" points="514.08,168.77,531.45,156.65,525.43,176.96,514.08,168.77" style="stroke:#181818;stroke-width:1.0;"/></g><!--reverse link Command to MacroCommand--><g id="link_Command_MacroCommand"><path codeLine="66" d="M578.29,173.1 C588,187.13 599.29,202.04 609.86,214.69 " fill="none" id="Command-backto-MacroCommand" style="stroke:#181818;stroke-width:1.0;"/><polygon fill="none" points="572.62,177.23,567.44,156.68,584.31,169.51,572.62,177.23" style="stroke:#181818;stroke-width:1.0;"/></g><!--reverse link Command to MacroCommand--><g id="link_Command_MacroCommand"><path codeLine="70" d="M593.87,160.21 C608.04,177.53 622.86,198.06 633.12,214.69 " fill="none" id="Command-backto-MacroCommand-1" style="stroke:#181818;stroke-width:1.0;"/><polygon fill="#181818" points="590.86,156.58,593.5453,166.0557,594.0595,160.4223,599.693,160.9365,590.86,156.58" style="stroke:#181818;stroke-width:1.0;"/></g><!--link PasteCommand to Document--><g id="link_PasteCommand_Document"><path codeLine="68" d="M489.66,279.42 C501.57,295.93 516.23,316.25 528.64,333.46 " fill="none" id="PasteCommand-to-Document" style="stroke:#181818;stroke-width:1.0;"/><polygon fill="#181818" points="531.53,337.46,529.5058,327.8214,528.6036,333.4059,523.0191,332.5037,531.53,337.46" style="stroke:#181818;stroke-width:1.0;"/></g><!--SRC=[ZP91Zi8m34NtEKMMmw9NG1h15Z4tGC4OAQAreyG59E3kX19AceAcNLNn-__N-ONQXA1_dQij6B5C-g9kIX4BQc6dUPyFbOuFr1P95D9EFx04Rrc4cq-yHq1xH1yo2NInAwHsdFSuxOIMZdn0Fv8jk6bCFBjq59uHMi6VMUcJiEStf_VIQksG_hDxRvRHoPN0OqII_NZ3FnC4fmVa-CI4bG7FqnDoV6B2ag5jOkF9tL90Bnl1itnCUE5Vk-zQhshSIyLzIIfluZcS3_wa8T2wwZhlnODRBcQ3-obcXN379ugf_G9ZxLjw1m00]--></g></svg>